<svg xmlns="http://www.w3.org/2000/svg" width="2324.324" height="1592.094" viewBox="-545.092 -137.544 2324.324 1592.094" fill="none">
<g transform="matrix(0 1 1 0 0 0)">
<svg x="-137.564" y="-552.384" width="1596.704" height="2982.912" viewBox="0 0 1596.61 2982.93" preserveAspectRatio="none" overflow="visible"><defs><radialGradient id="paint1_radial_0_95" cx="0" cy="0" r="1" gradientUnits="userSpaceOnUse" gradientTransform="translate(1005.17 26.4583) scale(17.2205 17.2206)">
<stop stop-color="#FFBCF8"/>
<stop offset="1" stop-color="#FFBCF8" stop-opacity="0"/>
</radialGradient></defs><path id="Vector_3" d="M1005.18 43.6185C1014.66 43.6185 1022.34 35.9342 1022.34 26.4552C1022.34 16.9762 1014.66 9.29193 1005.18 9.29193C995.7 9.29193 988.015 16.9762 988.015 26.4552C988.015 35.9342 995.7 43.6185 1005.18 43.6185Z" fill="url(#paint1_radial_0_95)"/><path id="Vector_19" d="M1498.92 2310.06C1503.89 2307.57 1505.9 2301.52 1503.41 2296.55C1500.92 2291.58 1494.87 2289.57 1489.9 2292.06C1484.93 2294.55 1482.93 2300.6 1485.42 2305.57C1487.91 2310.54 1493.95 2312.55 1498.92 2310.06Z" fill="#D99FFD"/><path id="Vector_9" d="M1585.89 420.434C1588.17 420.434 1590.02 418.585 1590.02 416.305C1590.02 414.024 1588.17 412.175 1585.89 412.175C1583.61 412.175 1581.76 414.024 1581.76 416.305C1581.76 418.585 1583.61 420.434 1585.89 420.434Z" fill="#FFBCF8"/><path id="Vector_31" d="M769.986 2328.6C772.025 2327.58 772.849 2325.1 771.827 2323.06C770.806 2321.02 768.325 2320.2 766.286 2321.22C764.247 2322.24 763.422 2324.72 764.444 2326.76C765.466 2328.8 767.947 2329.63 769.986 2328.6Z" fill="#D99FFD"/><path id="Vector" d="M18.0171 410.877C22.9868 408.386 24.9966 402.339 22.5062 397.369C20.0157 392.399 13.9682 390.389 8.99852 392.88C4.02881 395.37 2.01889 401.418 4.5093 406.388C6.99971 411.357 13.0474 413.367 18.0171 410.877Z" fill="#FFBCF8"/></svg>
</g>
</svg>
