<svg width="209" height="32" viewBox="0 0 209 32" fill="none" xmlns="http://www.w3.org/2000/svg">
<g id="Bruntwood" clip-path="url(#clip0_1479_2532)">
<path id="Vector" d="M21.1457 21.048C21.1457 27.4736 16.8221 32 11.0786 32C8.26906 32 5.83844 30.6392 4.19755 28.424V31.5888H0V0H4.19755V13.6736C5.83844 11.4576 8.26906 10.0976 11.0778 10.0976C16.8221 10.0976 21.1457 14.5912 21.1457 21.0488M4.19755 21.0488C4.19755 25.2904 6.91216 28.108 10.5728 28.108C14.2335 28.108 16.9481 25.2904 16.9481 21.0496C16.9481 16.8088 14.2343 13.9912 10.5728 13.9912C6.91136 13.9912 4.19755 16.8064 4.19755 21.0488ZM30.0146 14.308C31.5303 11.5864 34.0861 10.0984 37.2738 10.0984C37.7787 10.0984 38.2837 10.1304 38.6307 10.2248V14.8144C37.9997 14.5928 37.2427 14.4664 36.421 14.4664C32.3822 14.4664 30.0465 16.6504 30.0465 20.9864V31.5584H25.8171V10.5104H30.0146V14.308ZM51.6972 28.2984C54.7588 28.2984 56.6526 26.1464 56.6526 21.936V10.54H60.8501V31.588H56.6526V28.2016C55.3587 30.6704 53.1179 32 50.4033 32C45.9218 32 42.5132 29.056 42.5132 22.7896V10.5088H46.7107V21.9032C46.7107 26.1448 48.6045 28.2968 51.6972 28.2968M76.3464 13.8008C73.1907 13.8008 71.265 15.8888 71.265 20.0672V31.5568H67.0675V10.5088H71.265V13.832C72.5589 11.3944 74.8627 10.0968 77.6403 10.0968C82.2168 10.0968 85.6254 13.0408 85.6254 19.244V31.588H81.4278V20.068C81.4278 15.9208 79.503 13.8008 76.3464 13.8008ZM100.554 28.1056C101.47 28.1056 102.321 27.9792 103.015 27.7264V31.4608C102.258 31.7144 100.965 31.9672 99.7337 31.9672C95.6933 31.9672 92.7585 30.3216 92.7585 24.5928V14.212H89.318V10.508H92.7896V4.3056H96.988V10.5408H103.047V14.2448H96.988V24.3728C96.988 26.968 98.1239 28.1072 100.554 28.1072M111.19 31.5576L105.509 10.5096H109.549L113.873 27.8856L118.292 10.5096H123.625L128.044 27.8856L132.368 10.5096H136.408L130.726 31.5576H125.424L120.974 14.1808L116.461 31.5576H111.19ZM138.553 21.0496C138.553 14.592 143.099 10.0976 149.19 10.0976C155.281 10.0976 159.794 14.592 159.794 21.0496C159.794 27.4744 155.25 32.0008 149.19 32.0008C143.067 32.0008 138.553 27.4752 138.553 21.0496ZM155.597 21.0488C155.597 16.8072 152.82 13.9904 149.19 13.9904C145.529 13.9904 142.783 16.8064 142.783 21.0488C142.783 25.2896 145.561 28.1064 149.19 28.1064C152.82 28.1064 155.597 25.2904 155.597 21.0488ZM162.888 21.0488C162.888 14.5912 167.432 10.0968 173.492 10.0968C179.584 10.0968 184.096 14.5912 184.096 21.0488C184.096 27.4736 179.552 32 173.492 32C167.432 32 162.888 27.4736 162.888 21.048M179.931 21.048C179.931 16.8064 177.153 13.9896 173.523 13.9896C169.894 13.9896 167.117 16.8056 167.117 21.048C167.117 25.2888 169.894 28.1056 173.523 28.1056C177.153 28.1056 179.931 25.2896 179.931 21.048ZM204.201 13.6728V0H208.399V31.5568H204.201V28.392C202.56 30.608 200.129 31.968 197.321 31.968C191.576 31.968 187.253 27.4736 187.253 21.0168C187.253 14.56 191.576 10.0648 197.321 10.0648C200.129 10.0968 202.56 11.4576 204.201 13.6728ZM191.418 21.0488C191.418 25.2896 194.133 28.1064 197.795 28.1064C201.456 28.1064 204.17 25.2904 204.17 21.0488C204.17 16.8072 201.455 13.9904 197.795 13.9904C194.165 13.9904 191.418 16.8064 191.418 21.0488Z" fill="white"/>
</g>
<defs>
<clipPath id="clip0_1479_2532">
<rect width="209" height="32" fill="white"/>
</clipPath>
</defs>
</svg>
