<svg width="226" height="32" viewBox="0 0 226 32" fill="none" xmlns="http://www.w3.org/2000/svg">
<g id="CreateFuture" clip-path="url(#clip0_1479_2532)">
<g id="Vector">
<path d="M0 15.9757C0 7.33567 6.23712 0 16.619 0C21.8283 0 26.3697 1.81327 30.3561 5.72044C30.1577 7.18019 29.2519 8.36271 27.672 8.36271C26.2508 8.36271 25.5005 7.29898 24.8296 6.07386C23.0941 3.39196 20.093 0.789331 16.4605 0.789331C10.1837 0.789331 5.95952 6.82364 5.95952 14.4366C5.95952 23.7838 11.6844 29.2267 18.632 29.2267C24.6708 29.2267 29.566 25.0057 30.7097 17.984H31.3808C30.1577 27.0567 23.448 31.9086 15.948 31.9086C6.11822 31.9115 0 24.5332 0 15.9757Z" fill="white"/>
<path d="M28.1448 26.0329V16.1707C28.1448 14.0799 28.0654 12.6202 27.8275 10.9653H33.3938C33.1559 12.6233 33.0765 14.0799 33.0765 16.1707V17.2342C34.696 12.2637 37.5752 10.4107 41.6437 10.4107C41.8816 10.9227 42.0371 11.4377 42.0371 11.9101C42.0371 13.2114 41.0888 14.3939 39.4722 14.3939C37.0263 14.3939 34.3026 14.7871 33.0765 18.5752V26.0297C33.0765 28.1205 33.1559 29.5801 33.3938 31.235H27.8275C28.0654 29.5771 28.1448 28.1205 28.1448 26.0297V26.0329Z" fill="white"/>
<path d="M54.4749 18.1456C54.356 13.4522 52.8156 11.0843 50.1317 11.0843C47.21 11.0843 45.197 13.8057 44.9987 18.1456H54.4749ZM39.8291 20.9463C39.8291 14.4761 44.7638 10.3345 50.2507 10.3345C55.2252 10.3345 59.5256 13.6869 59.6841 18.9714H44.9591V19.011C44.9591 24.2958 47.7224 29.3456 52.4192 29.3456C55.7742 29.3456 58.6166 26.8617 59.6414 23.0338L60.2331 23.1529C58.8119 28.7543 54.7066 31.9086 50.1683 31.9086C44.6814 31.9086 39.8261 27.4133 39.8261 20.9433L39.8291 20.9463Z" fill="white"/>
<path d="M69.3159 29.1872C71.7619 29.1872 74.6836 26.9776 74.6836 21.7722V17.5909C73.8938 19.011 72.2743 19.5231 70.2247 20.352C67.5804 21.5741 65.726 22.7199 65.726 25.283C65.726 27.8462 67.4249 29.1872 69.3189 29.1872H69.3159ZM60.8279 26.5051C60.8279 22.5615 64.4603 21.3395 68.1294 20.1539C71.3654 19.13 74.8392 18.1424 74.8392 14.5128C74.8392 12.3824 73.4973 11.0811 71.524 11.0811C68.959 11.0811 67.5376 13.1719 66.7082 14.3939C65.9975 15.4209 65.2868 16.2469 63.945 16.2469C62.6029 16.2469 61.932 15.3386 61.8922 13.3272C64.6554 11.5535 68.0898 10.3284 71.2861 10.3284C76.2208 10.3284 79.5362 12.8519 79.5362 17.5452V24.7253C79.5362 27.9193 79.7343 29.0256 80.445 31.232H75.0375C74.7996 29.4187 74.6836 27.2885 74.6836 25.2373C73.1831 29.9307 69.7489 31.9024 66.7112 31.9024C63.6734 31.9024 60.8308 29.891 60.8308 26.499L60.8279 26.5051Z" fill="white"/>
<path d="M82.5769 25.4811V11.8735H79.4598V10.9653H79.9326C83.4462 10.9653 83.6445 8.3627 83.6445 2.87993H88.6188C88.6188 6.4304 87.4355 9.90174 82.9733 10.9653H94.2246V11.8735H87.5148V24.9691C87.5148 27.6907 88.6188 29.3486 90.4366 29.3486C92.6874 29.3486 94.1484 27.0994 94.6608 22.9179H95.2922C94.621 28.7938 92.2117 31.9115 88.2651 31.9115C84.7118 31.9115 82.5799 29.4674 82.5799 25.4811H82.5769Z" fill="white"/>
<path d="M111.158 18.1456C111.039 13.4522 109.499 11.0843 106.815 11.0843C103.893 11.0843 101.88 13.8057 101.682 18.1456H111.158ZM96.5121 20.9463C96.5121 14.4761 101.447 10.3345 106.934 10.3345C111.908 10.3345 116.209 13.6869 116.367 18.9714H101.642V19.011C101.642 24.2958 104.405 29.3456 109.102 29.3456C112.457 29.3456 115.3 26.8617 116.324 23.0338L116.916 23.1529C115.495 28.7543 111.39 31.9086 106.851 31.9086C101.364 31.9086 96.5091 27.4133 96.5091 20.9433L96.5121 20.9463Z" fill="white"/>
<path d="M119.682 26.0329V5.6808C119.682 3.51093 119.603 2.09068 119.365 0.475442H137.997L136.969 2.9989C132.864 1.4995 129.824 1.22516 126.389 1.22516H125.48V15.3447H127.771C130.217 15.3447 132.269 15.2259 134.52 14.9516V16.6095C132.269 16.3322 130.217 16.2164 127.771 16.2164H125.48V26.0389C125.48 28.2087 125.56 29.629 125.798 31.2443H119.362C119.6 29.6258 119.679 28.2057 119.679 26.0389L119.682 26.0329Z" fill="white"/>
<path d="M136.064 25.1643V16.1707C136.064 14.0799 135.984 12.6202 135.746 10.9653H141.352C141.114 12.6233 141.035 14.0799 141.035 16.1707V25.2037C141.035 28.163 142.179 29.6624 144.271 29.6624C146.205 29.6624 148.138 28.2818 149.404 26.112V16.1707C149.404 14.0799 149.325 12.6202 149.087 10.9653H154.653C154.415 12.6233 154.336 14.0799 154.336 16.1707V26.0329C154.336 28.1234 154.415 29.5833 154.653 31.2379H149.087C149.285 29.9367 149.364 28.7543 149.404 27.3342C147.666 30.0558 144.707 31.869 141.666 31.869C138.192 31.869 136.06 29.5008 136.06 25.1643H136.064Z" fill="white"/>
<path d="M158.761 25.4811V11.8735H155.644V10.9653H156.117C159.63 10.9653 159.829 8.3627 159.829 2.87993H164.803C164.803 6.4304 163.62 9.90174 159.158 10.9653H170.409V11.8735H163.699V24.9691C163.699 27.6907 164.803 29.3486 166.621 29.3486C168.872 29.3486 170.333 27.0994 170.845 22.9179H171.476C170.805 28.7938 168.399 31.9115 164.449 31.9115C160.896 31.9115 158.764 29.4674 158.764 25.4811H158.761Z" fill="white"/>
<path d="M172.931 25.1643V16.1707C172.931 14.0799 172.852 12.6202 172.614 10.9653H178.22C177.982 12.6233 177.902 14.0799 177.902 16.1707V25.2037C177.902 28.163 179.046 29.6624 181.139 29.6624C183.072 29.6624 185.006 28.2818 186.272 26.112V16.1707C186.272 14.0799 186.192 12.6202 185.954 10.9653H191.521C191.283 12.6233 191.203 14.0799 191.203 16.1707V26.0329C191.203 28.1234 191.283 29.5833 191.521 31.2379H185.954C186.153 29.9367 186.232 28.7543 186.272 27.3342C184.533 30.0558 181.575 31.869 178.534 31.869C175.06 31.869 172.928 29.5008 172.928 25.1643H172.931Z" fill="white"/>
<path d="M192.985 26.0329V16.1707C192.985 14.0799 192.905 12.6202 192.667 10.9653H198.233C197.995 12.6233 197.916 14.0799 197.916 16.1707V17.2342C199.536 12.2637 202.415 10.4107 206.48 10.4107C206.718 10.9227 206.874 11.4377 206.874 11.9101C206.874 13.2114 205.925 14.3939 204.309 14.3939C201.863 14.3939 199.136 14.7871 197.913 18.5752V26.0297C197.913 28.1205 197.992 29.5801 198.23 31.235H192.664C192.902 29.5771 192.981 28.1205 192.981 26.0297L192.985 26.0329Z" fill="white"/>
<path d="M220.105 18.1456C219.986 13.4522 218.445 11.0843 215.761 11.0843C212.84 11.0843 210.827 13.8057 210.628 18.1456H220.105ZM205.459 20.9463C205.459 14.4761 210.393 10.3345 215.88 10.3345C220.855 10.3345 225.158 13.6869 225.314 18.9714H210.589V19.011C210.589 24.2958 213.352 29.3456 218.049 29.3456C221.404 29.3456 224.246 26.8617 225.271 23.0338L225.863 23.1529C224.442 28.7543 220.336 31.9086 215.798 31.9086C210.311 31.9086 205.456 27.4133 205.456 20.9433L205.459 20.9463Z" fill="white"/>
</g>
</g>
<defs>
<clipPath id="clip0_1479_2532">
<rect width="226" height="32" fill="white"/>
</clipPath>
</defs>
</svg>
