<svg width="143" height="32" viewBox="0 0 143 32" fill="none" xmlns="http://www.w3.org/2000/svg">
<g id="Curve" clip-path="url(#clip0_1479_2532)">
<path id="Vector" d="M134.574 9.69476V13.2029H141.193V17.7137H134.574V21.1982H143V25.805H129.76V5.08794H143V9.70661H134.574V9.69476ZM115.901 15.4465L111.186 5.08794H105.839L115.901 26.0456L125.977 5.08794H120.63L115.901 15.4465ZM99.1823 17.0263L106.13 25.8168H100.394L93.7745 17.3996H93.7149V25.805H88.9006V5.08794H96.9515C98.4335 5.09245 99.8699 5.59817 101.025 6.52201C102.164 7.43303 102.935 8.72185 103.196 10.1522C103.462 11.5745 103.208 13.0346 102.469 14.2885C101.726 15.553 100.564 16.521 99.1823 17.0263ZM98.6365 11.4192C98.6365 11.1419 98.5769 10.8645 98.4673 10.6109C98.3538 10.3551 98.1887 10.1252 97.9823 9.93535C97.7767 9.74022 97.5335 9.58861 97.2673 9.48972C96.9985 9.39391 96.7151 9.345 96.4296 9.34513H93.7269V13.4696H96.4296C97.0045 13.4875 97.5644 13.2846 97.993 12.9031C98.2004 12.7087 98.3696 12.4799 98.4792 12.2275C98.5877 11.9739 98.6484 11.6965 98.6365 11.4192ZM78.1947 17.4601C78.1947 19.9679 76.5943 21.549 74.255 21.549C71.9146 21.549 70.3261 19.9679 70.3261 17.4601V5.08794H65.5118V17.4115C65.5118 22.6085 69.1499 26.0456 74.2669 26.0456C79.3828 26.0456 83.0209 22.5967 83.0209 17.4115V5.08794H78.2066L78.1947 17.4601ZM23.2588 23.2367C23.187 23.2623 23.1241 23.308 23.0777 23.3682C23.0287 23.423 22.995 23.4896 22.98 23.5614C22.9679 23.6332 22.9679 23.7065 22.98 23.7783C22.9919 23.8506 23.0408 23.9111 23.0896 23.9715C23.2958 24.2856 23.6712 24.8153 24.205 25.5751C24.7389 26.3348 25.15 26.9025 25.442 27.3113C25.5623 27.5164 25.7208 27.5294 25.927 27.3599C26.6845 26.7345 27.3973 26.0573 28.0601 25.3333C29.9014 23.1334 31.1117 20.4801 31.5636 17.6533C31.6005 17.6177 31.5278 17.6533 31.3824 17.7374C27.4547 20.3425 24.7508 22.1866 23.2588 23.2367ZM30.522 9.47668C30.4732 9.46483 30.3636 9.51342 30.1824 9.62246C29.5878 10.0195 27.7574 11.2616 24.6769 13.3356C21.4523 15.5188 19.6576 16.7371 19.3061 16.9659C19.0465 17.113 18.8391 17.3366 18.7126 17.6059C18.665 17.7742 18.7603 18.0385 19.0034 18.3881L21.2116 21.4518C21.4177 21.741 21.5869 21.8974 21.6966 21.9223C21.8181 21.946 22.0231 21.8619 22.315 21.6687C22.9943 21.1745 23.9762 20.5108 25.2608 19.6657C26.1625 19.0795 27.0559 18.4809 27.9409 17.8702C29.6259 16.749 30.7532 15.9893 31.3228 15.5792C31.4584 15.5172 31.5725 15.4165 31.6506 15.29C31.7325 15.169 31.7749 15.0258 31.7721 14.8799C31.689 13.1276 31.3328 11.3988 30.7163 9.7552C30.6329 9.58572 30.5709 9.50157 30.5232 9.47787L30.522 9.47668ZM14.3952 11.6124C14.3971 11.8662 14.492 12.1106 14.6622 12.2998C15.0983 12.9279 15.8502 13.9887 16.9049 15.4962C17.0872 15.7487 17.2076 15.8933 17.3291 15.9063C17.5348 15.882 17.7288 15.7979 17.8868 15.6645C19.7872 14.3936 21.6827 13.1156 23.5734 11.8305V11.8779C26.4215 9.94839 28.2769 8.67075 29.1624 8.03194C29.4531 7.86246 29.6116 7.72972 29.6235 7.64557C29.6354 7.56142 29.5628 7.39194 29.3804 7.12764C28.6086 6.00021 27.7005 4.97128 26.6765 4.06394C26.3858 3.77475 26.1796 3.63016 26.0831 3.63016C25.8281 3.68942 25.5981 3.8115 25.3919 3.96794C25.38 3.96794 25.3562 3.96794 25.3443 3.97979C25.3323 3.99164 25.3073 3.99164 25.3073 4.01535L25.2716 4.05209C25.2585 4.06394 25.2346 4.06394 25.2227 4.06394C19.5599 7.88735 16.1172 10.2269 14.879 11.0577C14.6548 11.1773 14.4826 11.3747 14.3952 11.6124ZM22.5796 26.7828C22.0946 26.1072 21.7669 25.6616 21.6215 25.4198C21.3784 25.1069 21.2092 24.9256 21.0876 24.9019C20.8457 24.9019 20.5907 24.9611 20.3726 25.0702C18.1186 26.0143 15.6191 26.2129 13.2429 25.6367C10.984 25.1552 8.94744 23.9473 7.44781 22.1996C5.1324 19.45 4.38046 16.4124 5.18006 13.0962C6.21086 8.7549 8.879 6.09061 13.1702 5.10098C15.12 4.66866 17.1525 4.78563 19.0391 5.43876C19.2247 5.50885 19.4255 5.52899 19.6213 5.49715C19.8172 5.46531 20.0011 5.38261 20.1545 5.25742C20.2749 5.17446 20.9172 4.7395 22.0696 3.96794C23.1969 3.22127 23.8523 2.77446 24.0215 2.62868C24.1919 2.48409 24.3004 2.39994 24.3254 2.37624C24.3254 2.31579 24.2277 2.23164 24.0215 2.12261C20.9628 0.337836 17.382 -0.351849 13.8745 0.168236C10.3419 0.593436 7.06135 2.20578 4.57589 4.73831C2.49524 6.78592 1.0408 9.37817 0.381223 12.2145C-0.26805 15.0353 -0.087268 17.9825 0.901982 20.7039C1.8958 23.4562 3.67895 25.8585 6.03091 27.6136C8.48748 29.5171 11.4685 30.6316 14.5775 30.8088C17.7057 31.0625 20.8338 30.3988 23.5627 28.9031C23.6223 28.8912 23.6712 28.8556 23.7081 28.8082C23.7475 28.7627 23.7761 28.7088 23.7915 28.6506C23.8038 28.5948 23.8038 28.537 23.7915 28.4811C23.7788 28.4228 23.7449 28.3713 23.6962 28.3365C23.4412 27.9869 23.0646 27.4571 22.5808 26.7816L22.5796 26.7828ZM41.6141 15.3872C41.5783 21.2361 46.1615 26.2281 53.4712 26.2636C56.927 26.2755 59.2186 25.1188 61.4625 23.3694L58.8313 19.6076C57.3801 20.9297 55.4759 21.6505 53.5081 21.6225C49.5553 21.6094 47.0946 18.861 47.1184 15.4121C47.1422 11.9632 49.628 9.24913 53.5689 9.27283C55.5363 9.25483 57.4345 9.9937 58.867 11.3351L61.5495 7.59698C59.3306 5.81327 57.0509 4.6435 53.5951 4.61861C46.2723 4.5949 41.6415 9.55135 41.6165 15.3991V15.3872H41.6141Z" fill="white"/>
</g>
<defs>
<clipPath id="clip0_1479_2532">
<rect width="143" height="32" fill="white"/>
</clipPath>
</defs>
</svg>
