<svg width="286" height="32" viewBox="0 0 286 32" fill="none" xmlns="http://www.w3.org/2000/svg">
<g id="Dishoom" clip-path="url(#clip0_1479_2532)">
<path id="Vector" d="M32.7816 16.272C32.7816 18.496 32.405 20.5156 31.6394 22.3093C30.8768 24.1013 29.8914 25.5994 28.6835 26.8036C27.472 28.0053 26.1823 28.9013 24.8109 29.5147C21.9119 30.7852 18.3608 31.4204 14.1579 31.4204H0V29.3333C1.31335 29.3333 2.30695 29.2089 2.9808 28.96C3.65227 28.7087 4.08986 28.3336 4.29355 27.8347C4.49962 27.3369 4.60205 26.6222 4.60087 25.6907V6.21867C4.60087 4.87941 4.3273 3.93719 3.78017 3.392C3.23304 2.84681 1.97299 2.57481 0 2.576V0.433778L6.65616 0.295111C6.88532 0.295111 7.82148 0.284444 9.45399 0.248889C11.0883 0.216889 12.0357 0.202074 12.2962 0.204444C14.8436 0.204444 17.0126 0.339556 18.7836 0.613333C20.5636 0.885333 22.1979 1.328 23.6687 1.92889C25.0401 2.47944 26.3104 3.25447 27.4276 4.22222C28.5586 5.18322 29.5362 6.31149 30.3267 7.568C31.1241 8.83576 31.7355 10.2116 32.1421 11.6533C32.5649 13.1289 32.7816 14.6613 32.7816 16.272ZM25.3599 16.1369C25.3575 12.9381 24.7446 10.256 23.5213 8.09067C22.2896 5.92178 20.6228 4.4237 18.5207 3.59644C17.5836 3.22891 16.5992 2.99608 15.5968 2.90489C14.5724 2.80533 13.0956 2.75615 11.1664 2.75733V24.4444C11.1664 25.6924 11.2251 26.5884 11.3494 27.168C11.4726 27.7357 11.8302 28.1671 12.4223 28.4622C13.0168 28.7561 13.9418 28.9031 15.1971 28.9031C18.9098 28.9031 21.5228 27.6107 23.0665 25.0347C24.5942 22.4569 25.3599 19.4862 25.3599 16.1387M59.1238 31.4222H43.3796V29.3333C44.6942 29.3333 45.6878 29.2089 46.3604 28.96C47.0355 28.7093 47.4671 28.3342 47.675 27.8347C47.8798 27.3369 47.9823 26.6222 47.9823 25.6907V6.29867C47.9835 4.95941 47.7052 4.01719 47.1474 3.472C46.5872 2.92681 45.3319 2.65422 43.3814 2.65422V0.568889H59.1256V2.65778C57.8123 2.65541 56.8187 2.784 56.1448 3.04356C55.4733 3.3043 55.0358 3.67882 54.8321 4.16711C54.6284 4.65541 54.5259 5.36652 54.5247 6.30044V25.6889C54.5247 26.5742 54.6278 27.2533 54.8214 27.7653C55.0168 28.2643 55.439 28.6501 56.088 28.9227C56.7399 29.1947 57.7436 29.3316 59.1256 29.3316L59.1238 31.4222ZM92.4082 22.5724C92.4082 23.5241 92.2027 24.5375 91.7918 25.6124C91.3814 26.6791 90.7526 27.7013 89.9301 28.688C89.097 29.6658 88.0471 30.4587 86.7788 31.0827C85.514 31.6942 84.0491 32 82.384 32C80.6907 31.9928 79.0179 31.6294 77.474 30.9333C75.8556 30.2257 74.436 29.1304 73.3403 27.744C72.8501 28.8699 72.538 29.9105 72.4042 30.8658H70.2903V20.3004H72.4042C72.7808 21.8204 73.3066 23.2391 73.9799 24.5778C74.6531 25.9164 75.6017 27.0631 76.8345 28.0284C78.0549 28.992 79.5737 29.4684 81.3555 29.4684C82.908 29.4684 84.1639 29.0489 85.1001 28.1991C86.038 27.3493 86.5064 26.2785 86.5052 24.9867C86.5052 24.2613 86.356 23.6249 86.0718 23.0809C85.7606 22.5102 85.3327 22.0117 84.8159 21.6178C84.2676 21.184 83.5138 20.7218 82.5545 20.2311C81.5976 19.7452 80.5093 19.2237 79.2895 18.6667C77.4172 17.792 75.8628 16.896 74.6638 16.0107C73.454 15.1147 72.5516 14.2524 71.9246 13.4009C71.3082 12.5618 70.8729 11.7564 70.6456 10.9956C70.4112 10.2537 70.2914 9.48031 70.2903 8.70222C70.2903 7.31911 70.6686 5.95733 71.4094 4.61867C72.1519 3.27941 73.2486 2.17837 74.6993 1.31556C76.1382 0.453333 77.8044 0.0355556 79.6999 0.0355556C81.1494 0.0355556 82.5314 0.352 83.8442 0.999111C85.1599 1.64622 86.298 2.53096 87.2584 3.65333C87.532 3.01926 87.7831 2.12326 88.0116 0.965333H90.1699V9.56444H88.0116C86.4839 4.87822 83.8335 2.528 80.0427 2.528C78.6731 2.528 77.5646 2.89244 76.7315 3.60711C75.8984 4.32178 75.488 5.25156 75.488 6.39822C75.4892 7.29185 75.7474 8.06756 76.2625 8.72533C76.7883 9.38311 77.4616 9.95022 78.3054 10.4142C79.1509 10.88 80.5223 11.5609 82.4177 12.4356C84.7128 13.5129 86.4946 14.4444 87.7825 15.2373C89.0581 16.0115 90.1717 17.0258 91.0617 18.224C91.9517 19.4258 92.3975 20.8658 92.3975 22.5689M139.348 31.4187H124.083V29.3333C125.339 29.3333 126.275 29.1964 126.925 28.9244C127.565 28.6519 127.976 28.2584 128.16 27.744C128.343 27.2338 128.434 26.5422 128.434 25.7013V16.432H114.034V25.6907C114.032 26.9636 114.298 27.8904 114.833 28.4711C115.37 29.0471 116.592 29.3345 118.5 29.3333V31.4204H103.107V29.3333C104.343 29.3333 105.286 29.197 105.939 28.9244C106.591 28.6524 107.001 28.256 107.195 27.7564C107.39 27.2462 107.479 26.5653 107.479 25.6907V6.29867C107.479 5.43348 107.389 4.75615 107.207 4.26667C107.024 3.77956 106.625 3.38133 105.996 3.09867C105.371 2.81304 104.408 2.66904 103.107 2.66667V0.568889H118.5V2.656C116.605 2.656 115.393 2.94044 114.846 3.49511C114.297 4.05156 114.034 4.99378 114.034 6.29867V13.9004H128.434V6.29867C128.436 5.43348 128.352 4.75615 128.183 4.26667C128.011 3.77956 127.622 3.38133 126.995 3.09867C126.367 2.81304 125.396 2.66904 124.081 2.66667V0.568889H139.35V2.656C138.049 2.65837 137.086 2.80178 136.461 3.08622C135.832 3.37896 135.433 3.76889 135.262 4.256C135.088 4.74548 135 5.42222 134.999 6.28622V25.6907C134.999 26.5298 135.079 27.1893 135.239 27.6889C135.399 28.176 135.798 28.5849 136.438 28.88C137.077 29.1834 138.048 29.3345 139.35 29.3333L139.348 31.4187ZM184.911 16C184.923 18.7573 184.231 21.4719 182.9 23.8862C181.553 26.3372 179.567 28.3004 176.94 29.776C174.304 31.2516 171.194 31.9893 167.612 31.9893C164.677 31.9917 162.097 31.5224 159.87 30.5813C157.643 29.6391 155.817 28.3804 154.412 26.8036C153.041 25.2936 151.975 23.5327 151.273 21.6178C150.602 19.8048 150.257 17.8871 150.255 15.9538C150.255 13.2065 150.906 10.6121 152.209 8.17067C153.499 5.72978 155.461 3.75644 158.066 2.26844C160.678 0.772741 163.798 0.0248889 167.425 0.0248889C170.738 0.0248889 173.559 0.568889 175.876 1.63556C178.194 2.71467 180.009 4.07467 181.301 5.71022C182.601 7.344 183.527 9.06845 184.086 10.8622C184.643 12.6566 184.921 14.3662 184.919 15.9911M177.498 15.9004C177.498 14.176 177.35 12.5298 177.054 10.9867C176.779 9.50673 176.25 8.08584 175.489 6.78756C174.741 5.54212 173.682 4.51331 172.415 3.80267C171.116 3.06785 169.515 2.70104 167.61 2.70222C164.981 2.70222 162.929 3.34933 161.455 4.64356C159.981 5.936 158.989 7.55911 158.453 9.51111C157.927 11.4631 157.664 13.584 157.664 15.888C157.662 17.1597 157.746 18.4871 157.916 19.8702C158.087 21.2569 158.485 22.6613 159.124 24.1156C159.764 25.5698 160.794 26.7822 162.198 27.7813C163.601 28.7804 165.418 29.2676 167.644 29.2676C169.87 29.2676 171.652 28.7556 173.034 27.7351C174.359 26.7762 175.404 25.479 176.059 23.9787C176.689 22.5019 177.085 21.0874 177.247 19.7351C177.407 18.3852 177.487 17.1028 177.487 15.888M231.472 15.9787C231.484 18.737 230.788 21.4523 229.452 23.8649C228.104 26.317 226.117 28.2803 223.49 29.7547C220.855 31.2302 217.746 31.968 214.162 31.968C211.228 31.9704 208.647 31.501 206.421 30.56C204.193 29.6178 202.367 28.3591 200.962 26.7822C199.592 25.2723 198.526 23.5114 197.823 21.5964C197.018 19.4172 196.684 17.0917 196.843 14.7737C197.002 12.4556 197.651 10.1978 198.747 8.14933C200.049 5.71022 202.001 3.73511 204.605 2.24711C207.218 0.749037 210.339 0 213.969 0C217.28 0 220.099 0.544 222.417 1.61067C224.736 2.68978 226.551 4.05156 227.841 5.68533C229.143 7.31911 230.068 9.04533 230.628 10.8373C231.185 12.6317 231.462 14.3413 231.461 15.9662M224.039 15.8756C224.039 14.1511 223.89 12.5049 223.593 10.9618C223.32 9.48195 222.791 8.06107 222.03 6.76267C221.282 5.51788 220.223 4.4897 218.957 3.77956C217.658 3.04356 216.056 2.67615 214.15 2.67733C211.525 2.67733 209.469 3.32444 208.007 4.61867C206.535 5.91289 205.542 7.53422 205.005 9.48622C204.479 11.437 204.216 13.5627 204.216 15.8631C204.214 17.1348 204.298 18.4622 204.469 19.8453C204.639 21.232 205.039 22.6382 205.678 24.0907C206.318 25.5431 207.345 26.7573 208.75 27.7564C210.155 28.7556 211.97 29.2427 214.196 29.2427C216.424 29.2427 218.204 28.7324 219.586 27.7102C220.912 26.7524 221.957 25.4557 222.611 23.9556C223.241 22.4788 223.637 21.0637 223.799 19.7102C223.959 18.3603 224.039 17.0779 224.039 15.8631M285.458 31.376H269.883V29.2871C271.229 29.2859 272.215 29.1538 272.84 28.8907C273.469 28.6293 273.869 28.2436 274.063 27.7333C274.254 27.2237 274.35 26.528 274.349 25.6462V6.34133L262.621 31.4187H261.228L249.342 6.34133V24.7129C249.342 25.6782 249.376 26.4267 249.445 26.9369C249.513 27.4596 249.685 27.8898 249.969 28.2524C250.256 28.6187 250.701 28.8877 251.305 29.0596C251.911 29.2302 252.767 29.3209 253.853 29.3209V31.408H242.354V29.3209C243.45 29.3209 244.306 29.2302 244.9 29.0471C245.503 28.8658 245.942 28.5932 246.214 28.2293C246.488 27.8684 246.658 27.4258 246.715 26.9262C246.774 26.4166 246.805 25.6788 246.807 24.7129V7.23733C246.807 5.93363 246.739 4.992 246.601 4.41244C246.465 3.83289 246.088 3.40267 245.471 3.10756C244.857 2.81244 243.814 2.66489 242.343 2.66489V0.568889H253.703L264.003 22.3431L274.382 0.568889H285.492V2.65778C283.585 2.65541 282.352 2.93156 281.794 3.48622C281.234 4.04089 280.959 4.97244 280.959 6.30044V25.6889C280.959 26.528 281.051 27.1982 281.234 27.7209C281.417 28.2311 281.838 28.64 282.501 28.912C283.161 29.1941 284.158 29.3339 285.492 29.3316V31.4187L285.458 31.376Z" fill="white"/>
</g>
<defs>
<clipPath id="clip0_1479_2532">
<rect width="286" height="32" fill="white"/>
</clipPath>
</defs>
</svg>
