<svg width="82" height="40" viewBox="0 0 82 40" fill="none" xmlns="http://www.w3.org/2000/svg">
<g id="Fujitsu" clip-path="url(#clip0_1479_2532)">
<path id="Vector" d="M61.1424 13.633C59.4023 13.633 57.8912 14.0076 56.7118 14.8588C55.525 15.7156 54.7065 17.1096 54.7065 18.8095C54.7065 22.0574 57.164 23.3602 59.4238 24.5009C61.3479 25.4722 63.1288 26.1161 63.1288 27.9481C63.1288 29.6781 61.1114 30.9854 58.9106 30.9854C56.3164 30.9854 54.3698 28.9561 54.3698 28.9561L55.4275 32.5171C55.4275 32.5171 57.4775 32.9921 58.8594 32.9921C61.498 32.9921 63.4032 32.3339 64.7783 31.0191C65.7733 30.0671 66.3024 28.8432 66.3024 27.4783C66.3024 24.4597 63.9072 23.1253 61.6582 22.0156C59.6828 21.0407 57.9016 20.4446 57.9016 18.4457C57.9016 16.51 59.6133 15.5488 61.4256 15.5488C63.8319 15.5488 64.6292 16.9958 64.6292 16.9958V14.0985C64.6292 14.0985 62.7572 13.633 61.1424 13.633ZM11.3601 13.9759L0 13.9916C0.600919 14.3377 1.18422 15.0227 1.18422 15.786V30.915C1.18422 31.6472 0.624734 32.3038 0.0489348 32.6358H5.4099C4.83378 32.3038 4.27462 31.6472 4.27462 30.915V23.3559H8.54238C9.06109 23.3559 9.81697 23.7024 9.97356 24.2889V21.4185H4.27462V15.9136H9.57099C10.3321 15.9136 11.0149 16.5289 11.3601 17.163V13.9759ZM11.9019 13.9759C12.481 14.3096 13.0434 14.9027 13.0434 15.7048V27.0841C13.0434 30.9428 16.4568 33.0108 19.7625 33.0108C23.0682 33.0108 26.367 30.9428 26.367 27.0841V15.7048C26.367 14.9027 27.044 14.3096 27.623 13.9759H21.7678C22.4943 14.3096 23.1197 14.9027 23.1197 15.7048V27.0841C23.1197 29.5891 21.3457 31.0099 19.7628 31.0099C18.1796 31.0099 16.2901 29.5891 16.2901 27.0841V15.7048C16.2901 14.9027 16.9954 14.3096 17.7219 13.9759H11.9019ZM28.604 13.9759C29.048 14.25 29.8101 14.7777 29.8101 15.5095V33.8234C29.8101 36.2489 28.1561 39.2286 26.8352 40C30.9901 39.3113 33.0956 36.4471 33.0956 33.1544V15.696C33.0956 14.9642 33.7484 14.3076 34.4211 13.9759H28.604ZM35.2455 13.9759C35.6891 14.25 36.5047 14.8134 36.5047 15.5095V30.9478C36.5047 31.6446 35.6891 32.3617 35.2455 32.6358H41.041C40.3683 32.3038 39.7152 31.6475 39.7152 30.9157V15.696C39.7152 14.9642 40.3683 14.3076 41.041 13.9759H35.2455ZM42.2229 13.9759L41.04 17.6906C41.04 17.6906 42.3736 15.9136 43.4172 15.9136H46.4695V30.9484C46.4695 31.6449 45.6542 32.3617 45.2102 32.6362H50.8429C50.2818 32.2361 49.6519 31.6479 49.6519 30.916V15.9136H52.2986C53.5706 15.9136 53.9033 17.3573 53.9033 17.3573L54.9799 13.9759H42.2229ZM66.396 13.9759C66.9751 14.3096 67.6302 14.9027 67.6302 15.7048V27.0841C67.6302 30.9428 70.9385 33.0108 74.2442 33.0108C77.5499 33.0108 80.7434 30.9428 80.7434 27.0841V15.6253C80.7434 14.8232 81.4207 14.3096 81.9997 13.9759H76.3233C76.7917 14.2301 77.516 14.7182 77.516 15.3368V27.0841C77.516 29.5891 75.8274 31.0099 74.2442 31.0099C72.661 31.0099 70.8768 29.5891 70.8768 27.0841V15.6607C70.8768 14.8052 71.4937 14.3096 72.2203 13.9759H66.396ZM38.4921 2.21048e-06C36.9184 0.00163796 35.4617 0.779928 34.456 2.07577V5.16472C35.1965 3.35951 35.6738 2.98623 36.0294 2.64076C36.689 1.99811 37.5721 1.63803 38.4918 1.63673C40.4511 1.63543 42.0399 3.22996 42.0396 5.19482C42.0396 7.15968 40.4511 8.75421 38.4918 8.75258C37.4684 8.75127 36.5706 8.29849 35.8976 7.62326C35.3087 7.03275 34.9531 6.55707 34.4635 6.03985C34.1529 5.7163 34.0198 5.50561 33.5272 5.16472C32.9511 4.7656 32.004 4.5186 31.2305 4.5186C28.942 4.5186 27.0867 6.3791 27.0867 8.67439C27.0867 10.9693 28.942 12.8321 31.2308 12.8299C31.8505 12.8287 32.4621 12.688 33.0203 12.4181C33.5785 12.1483 34.0691 11.7561 34.456 11.2707V9.11441C33.259 11.0354 32.0637 11.2847 31.2308 11.2847C30.8901 11.2848 30.5527 11.2175 30.2379 11.0868C29.923 10.956 29.637 10.7644 29.396 10.5228C29.1551 10.2812 28.9639 9.99434 28.8335 9.67865C28.7031 9.36296 28.636 9.0246 28.636 8.68289C28.6359 8.34116 28.703 8.00277 28.8334 7.68704C28.9638 7.37132 29.1549 7.08444 29.3959 6.8428C29.6369 6.60116 29.9229 6.40949 30.2378 6.27873C30.5526 6.14798 30.8901 6.0807 31.2308 6.08074C32.0105 6.08107 32.7051 6.38139 33.244 6.96601C33.996 7.78127 34.3046 8.24615 34.7235 8.7071C35.6823 9.76282 37.056 10.3582 38.4918 10.3595C41.3444 10.3625 43.657 8.04037 43.657 5.17977C43.657 2.31917 41.3447 -0.00261499 38.4921 2.21048e-06Z" fill="white"/>
</g>
<defs>
<clipPath id="clip0_1479_2532">
<rect width="82" height="40" fill="white"/>
</clipPath>
</defs>
</svg>
