<svg width="71" height="40" viewBox="0 0 71 40" fill="none" xmlns="http://www.w3.org/2000/svg">
<g id="Havas" clip-path="url(#clip0_1479_2532)">
<g id="Havas_2">
<g id="Vector" opacity="0.6">
<path d="M8.08541 24H0V40H8.08541V24Z" fill="white"/>
<path d="M8.08541 0H0V16H8.08541V0Z" fill="white"/>
</g>
<g id="Vector_2">
<path d="M0 16V24H16.1708V40H24.2562V16H0Z" fill="white"/>
<path d="M32.4791 16.008H33.8132V20.24H33.8455C34.2821 19.28 35.4303 18.872 36.4005 18.872C38.527 18.872 39.19 20.08 39.19 21.8V27.072H37.8559V21.648C37.8559 20.672 37.2252 20.032 36.2146 20.032C34.5975 20.032 33.8213 21.104 33.8213 22.544V27.072H32.4872V16.008H32.4791Z" fill="white"/>
<path d="M46.0302 22.936C45.5128 23.312 44.5102 23.32 43.6208 23.48C42.7476 23.632 41.9956 23.944 41.9956 24.92C41.9956 25.784 42.7476 26.096 43.5642 26.096C45.3187 26.096 46.0383 25.008 46.0383 24.28V22.936H46.0302ZM48.189 27.04C47.9546 27.176 47.6554 27.256 47.235 27.256C46.5477 27.256 46.1111 26.88 46.1111 26.016C45.3753 26.872 44.3889 27.256 43.2569 27.256C41.7854 27.256 40.5807 26.608 40.5807 25.008C40.5807 23.192 41.9471 22.808 43.3216 22.544C44.7932 22.264 46.0464 22.36 46.0464 21.368C46.0464 20.224 45.0923 20.032 44.2434 20.032C43.1114 20.032 42.2867 20.376 42.222 21.552H40.8879C40.9688 19.568 42.5131 18.872 44.3161 18.872C45.7715 18.872 47.3562 19.2 47.3562 21.072V25.192C47.3562 25.808 47.3562 26.088 47.7767 26.088C47.8899 26.088 48.0112 26.072 48.181 26.008V27.04H48.189Z" fill="white"/>
<path d="M52.6684 27.072H51.2453L48.2376 19.064H49.7253L51.9973 25.744H52.0296L54.2369 19.064H55.6276L52.6684 27.072Z" fill="white"/>
<path d="M61.4572 22.936C60.9397 23.312 59.9371 23.32 59.0477 23.48C58.1745 23.632 57.4226 23.944 57.4226 24.92C57.4226 25.784 58.1745 26.096 58.9911 26.096C60.7457 26.096 61.4653 25.008 61.4653 24.28V22.936H61.4572ZM63.6241 27.04C63.3896 27.176 63.0905 27.256 62.67 27.256C61.9828 27.256 61.5461 26.88 61.5461 26.016C60.8104 26.872 59.8239 27.256 58.692 27.256C57.2204 27.256 56.0157 26.608 56.0157 25.008C56.0157 23.192 57.3822 22.808 58.7567 22.544C60.2282 22.264 61.4815 22.36 61.4815 21.368C61.4815 20.224 60.5274 20.032 59.6784 20.032C58.5465 20.032 57.7217 20.376 57.6571 21.552H56.323C56.4038 19.568 57.9481 18.872 59.7512 18.872C61.2066 18.872 62.7913 19.2 62.7913 21.072V25.192C62.7913 25.808 62.7913 26.088 63.2117 26.088C63.3249 26.088 63.4462 26.072 63.616 26.008V27.04H63.6241Z" fill="white"/>
<path d="M65.5808 24.544C65.6293 25.72 66.6642 26.096 67.7557 26.096C68.5885 26.096 69.7124 25.912 69.7124 24.904C69.7124 23.88 68.3945 23.712 67.0685 23.416C65.7505 23.12 64.4245 22.688 64.4245 21.152C64.4245 19.544 66.0335 18.872 67.4485 18.872C69.2354 18.872 70.6584 19.432 70.7716 21.384H69.4375C69.3405 20.36 68.4349 20.032 67.5536 20.032C66.7531 20.032 65.8314 20.248 65.8314 21.056C65.8314 22 67.2383 22.16 68.4753 22.448C69.8094 22.744 71.1193 23.176 71.1193 24.728C71.1193 26.632 69.3162 27.256 67.6749 27.256C65.8557 27.256 64.3194 26.528 64.2467 24.544H65.5808Z" fill="white"/>
</g>
</g>
</g>
<defs>
<clipPath id="clip0_1479_2532">
<rect width="71" height="40" fill="white"/>
</clipPath>
</defs>
</svg>
