<svg width="120" height="40" viewBox="0 0 120 40" fill="none" xmlns="http://www.w3.org/2000/svg">
<g id="KikoMilano">
<g id="Vector">
<path d="M119.976 11.1093C119.832 9.03375 119.617 8.60433 119.187 8.6759C118.828 8.74747 118.9 9.53474 118.9 9.53474C118.9 9.53474 119.832 19.6261 111.08 27.7136C102.328 35.7294 95.1536 36.803 92.4992 35.5863C89.8448 34.3696 92.284 30.9342 92.284 30.9342C101.323 32.4372 112.084 19.6977 103.189 18.8389C95.5841 18.1232 89.7013 27.7136 89.7013 27.7136C83.1729 29.3597 76.1423 34.4412 75.3532 34.3696C74.7075 34.298 75.4967 33.4392 75.7836 33.0813C76.0706 32.7235 78.1511 29.9323 78.1511 29.9323C78.1511 29.9323 80.0881 27.2842 77.9359 25.638C76.501 24.5645 74.5641 25.7812 74.5641 25.7812C74.5641 25.7812 65.6682 31.3637 62.7986 32.9382C60.0007 34.5127 60.0007 34.6559 59.7855 34.5127C59.5703 34.3696 60.0007 33.9402 60.0007 33.9402L63.0856 30.147C63.0856 30.147 66.6726 25.7096 67.103 22.6321C67.4617 18.7673 62.7268 20.6997 62.7268 20.6997C53.4723 23.9919 32.7393 35.6579 32.7393 35.6579C32.7393 35.6579 31.4479 36.5167 31.0175 36.1589C30.7305 35.8726 31.0892 35.4432 31.0892 35.4432C36.7567 27.3557 49.5983 14.9025 54.1897 10.4652C59.5703 5.3121 57.7767 2.73557 57.7767 2.73557C57.7767 2.73557 55.3376 -3.41947 34.748 2.73557C14.1584 8.89061 3.32559 23.9204 3.32559 23.9204C3.32559 23.9204 -3.20281 32.7951 2.03426 37.805C5.90826 41.4551 11.6475 39.4511 11.6475 39.4511C12.0779 39.3079 12.0779 39.0217 12.0062 38.8785C11.8627 38.5923 10.9301 38.7354 10.9301 38.7354C4.76041 39.8805 2.60819 36.4451 2.60819 36.4451C-0.548402 31.7931 5.54955 25.4233 5.54955 25.4233C19.4672 9.67788 44.5047 4.5964 46.2982 4.31011C48.0918 4.02383 51.7505 3.59442 53.544 4.16698C55.3376 4.73954 52.4679 6.88664 52.4679 6.88664C41.9221 15.3319 34.5328 24.2782 34.5328 24.2782C34.5328 24.2782 27.8609 32.2941 27.5739 36.0157C27.287 40.0952 32.4523 37.7334 32.4523 37.7334C32.4523 37.7334 54.3332 26.9979 57.705 25.2086C62.5834 22.6321 60.0724 25.4949 59.642 26.2106C59.2833 26.7832 56.9159 30.2185 56.9159 30.2185C56.9159 30.2185 53.4723 35.0853 54.9071 37.304C56.055 38.9501 57.7767 38.2344 58.6376 38.0197C60.7181 37.304 69.9009 30.9342 71.1922 30.0038C72.3401 29.145 72.5553 29.7891 72.2683 30.2901C72.0531 30.648 71.6944 31.3637 71.3357 32.2941C70.6901 33.7255 70.2596 34.5127 70.4748 35.6579C71.4792 38.6638 75.0662 37.0177 75.0662 37.0177C84.8947 32.0794 88.1948 31.1489 88.1948 31.1489C84.1056 41.5266 95.871 38.8785 95.871 38.8785C119.474 32.0078 120.191 13.829 119.976 11.1093ZM103.978 22.0595C106.202 23.2762 97.5211 29.646 93.8623 28.3577C93.7188 28.2146 101.108 20.485 103.978 22.0595Z" fill="white"/>
<path d="M62.5116 16.0476V4.16698H64.7356V10.1073L72.914 4.16698H75.9271L68.9683 9.03375L76.2141 16.0476H73.3445L67.39 10.0357L64.7356 11.9681V16.0476H62.5116Z" fill="white"/>
<path d="M80.662 4.16698H78.438V16.0476H80.662V4.16698Z" fill="white"/>
<path d="M84.3925 16.0476V4.16698H86.5447V10.1073L94.7949 4.16698H97.808L90.8492 9.03375L98.095 16.0476H95.2254L89.2709 10.0357L86.5447 11.9681V16.0476H84.3925Z" fill="white"/>
<path d="M101.108 10.322C101.108 11.7534 101.61 12.8985 102.686 13.6858C103.762 14.4731 105.126 14.9025 106.704 14.9025C108.354 14.9025 109.717 14.4731 110.793 13.6858C111.869 12.827 112.371 11.6818 112.371 10.1073C112.371 9.17689 112.156 8.31804 111.654 7.60234C111.224 6.88664 110.506 6.31408 109.645 5.95623C108.784 5.52681 107.78 5.38367 106.704 5.38367C105.126 5.38367 103.834 5.74152 102.686 6.52879C101.61 7.24449 101.108 8.53276 101.108 10.322ZM98.8124 10.322C98.8124 8.31805 99.5298 6.81507 101.036 5.66995C102.543 4.52483 104.408 4.02383 106.776 4.02383C108.282 4.02383 109.717 4.31012 110.937 4.81111C112.156 5.3121 113.089 6.09937 113.734 7.02978C114.38 7.9602 114.739 9.03375 114.739 10.2504C114.739 11.4671 114.38 12.5407 113.734 13.4711C113.089 14.4015 112.084 15.1172 110.865 15.6182C109.645 16.1192 108.282 16.3339 106.847 16.3339C105.269 16.3339 103.906 16.0476 102.686 15.5466C101.467 14.9741 100.534 14.2584 99.8885 13.328C99.1711 12.326 98.8124 11.324 98.8124 10.322Z" fill="white"/>
</g>
</g>
</svg>
