<svg width="184" height="40" viewBox="0 0 184 40" fill="none" xmlns="http://www.w3.org/2000/svg">
<g id="ManyPets" clip-path="url(#clip0_1479_2532)">
<g id="Vector">
<path d="M61.4821 9.8261H64.7405C65.4757 9.8261 66.1512 10.2235 66.4989 10.8693L67.2439 12.2205C68.4559 10.452 70.5421 9.39888 73.3336 9.39888C78.2609 9.39888 81.1418 12.4689 81.1418 18.5991V31.4356H74.9628V19.5529C74.9628 16.9697 74.4958 14.6647 71.5255 14.6647C68.0387 14.6647 67.6711 17.7744 67.6711 21.4704V31.4356H61.4921V9.8261H61.4821ZM90.3209 29.9453L81.857 9.8261H88.6421L93.5694 22.8117L98.6358 9.8261H105.282L93.2515 38.4699H86.5857L90.3209 29.9453ZM107.437 0.387451H117.064C122.736 0.387451 129.62 1.39093 129.62 10.6905C129.62 20.7054 121.534 21.3711 116.507 21.3711H113.855V31.4257H107.437V0.387451ZM116.219 16.0556C119.567 16.0556 123.054 15.4297 123.054 10.7402C123.054 6.00096 119.289 5.71284 116.219 5.66316H113.845V16.0556H116.219ZM129.71 20.7948C129.71 14.2772 133.385 9.39888 140.359 9.39888C147.8 9.39888 150.631 14.6647 150.631 20.4669C150.631 21.232 150.581 21.8082 150.442 22.6229H136.078C136.495 25.5439 138.919 26.7461 142.406 26.7461C145.982 26.7461 148.306 25.5936 149.518 24.9279V30.1043C148.078 30.8693 145.376 31.8728 141.382 31.8728C134.26 31.8629 129.71 28.1669 129.71 20.7948ZM144.402 18.5891C144.313 16.2444 142.823 14.4659 140.359 14.4659C138.084 14.4659 136.405 16.0954 136.127 18.5891H144.402ZM169.774 30.611V25.5837C170.658 26.1103 173.172 27.2628 175.536 27.2628C177.394 27.2628 178.278 26.3984 178.278 25.1565C178.278 21.3711 169.814 23.4277 169.814 15.9165C169.814 11.4158 172.933 9.39888 177.483 9.39888C179.947 9.39888 181.854 9.97513 182.5 10.3527V15.3303C181.248 14.6547 179.619 13.9394 177.9 13.9394C176.271 13.9394 175.576 14.7044 175.576 15.6681C175.576 18.9269 183.99 17.0591 183.99 24.6696C183.99 29.5082 180.642 31.8529 175.943 31.8529C173.4 31.8629 170.986 31.2369 169.774 30.611ZM26.1067 18.917C26.067 18.6885 25.7689 18.6388 25.6597 18.8375L17.8614 33.1346H17.4044L9.51669 18.7779C9.40742 18.5792 9.10939 18.6289 9.06966 18.8574L6.70533 32.459C6.68546 32.5782 6.58612 32.6577 6.46691 32.6577H0.66538C0.516368 32.6577 0.397158 32.5186 0.426961 32.3696L6.35764 1.43067H6.81461L17.3845 20.8345C17.4739 21.0034 17.7123 21.0034 17.8018 20.8345L28.3717 1.43067H28.8286L33.6666 26.5275C34.4812 30.462 36.925 33.7208 40.0542 35.0422C42.955 36.2742 46.2233 35.8072 49.5016 33.691C49.5016 33.691 49.6705 33.5519 49.7698 33.6314C49.8691 33.7108 49.74 33.8897 49.74 33.8897C46.879 38.917 42.2596 38.5395 41.147 38.3706C41.0576 38.3606 40.998 38.4699 41.0576 38.5395C41.3755 38.917 41.9715 39.3939 41.9715 39.3939C37.0144 40.6358 34.4613 36.8604 33.9547 36.0059C33.9149 35.9364 33.8056 35.9463 33.7858 36.0258C33.607 36.612 33.746 37.5956 33.746 37.5956C30.4678 35.5191 30.3088 32.0417 30.3486 30.9885C30.3486 30.8991 30.2294 30.8594 30.1797 30.9389C29.7724 31.5847 29.3552 32.6776 29.3552 32.6776C28.3518 30.7998 27.7061 28.2861 27.4279 26.5176L26.1067 18.917ZM164.38 26.6368C161.539 26.6368 161.121 25.0074 161.121 22.7123V14.8037H166.844V9.8261H161.121V3.11969H158.608C158.658 4.94781 157.684 10.9687 151.128 11.8529V14.8037H154.942V23.5668C154.942 29.3194 157.684 31.8529 162.939 31.8529C165.175 31.8529 166.893 31.4257 167.817 30.9389V25.8122C166.794 26.299 165.721 26.6368 164.38 26.6368Z" fill="white"/>
<path d="M53.3361 10.8892L52.6308 12.2205C51.2798 10.5911 49.1439 9.39888 45.8855 9.39888C39.8853 9.39888 35.564 13.7605 35.564 20.7551C35.564 28.1768 40.4913 31.8629 45.7465 31.8629C47.7631 31.8629 49.3824 31.3264 50.6043 30.5713C51.1506 30.1639 51.6771 29.6969 52.2037 29.1704C52.2037 29.1704 52.2732 29.0809 52.3626 29.0511C52.4123 28.9915 52.452 28.9419 52.4917 28.8822L52.3725 29.0412C52.4023 29.0313 52.4321 29.0313 52.452 29.0511C52.5712 29.1108 52.4818 29.3095 52.4818 29.3095C52.2564 30.0433 51.9498 30.7498 51.5679 31.4158H58.3529V9.8261H55.1243C54.3693 9.8261 53.6838 10.2335 53.3361 10.8892ZM47.0478 26.4977C44.2067 26.4977 41.9814 24.5305 41.9814 20.6557C41.9814 16.7809 44.3557 14.7143 47.1472 14.7143C49.889 14.7143 52.3129 16.5325 52.3129 20.606C52.303 24.8683 49.6506 26.4977 47.0478 26.4977Z" fill="white"/>
</g>
</g>
<defs>
<clipPath id="clip0_1479_2532">
<rect width="184" height="40" fill="white"/>
</clipPath>
</defs>
</svg>
