<svg width="74" height="40" viewBox="0 0 74 40" fill="none" xmlns="http://www.w3.org/2000/svg">
<g id="Mintel" clip-path="url(#clip0_1479_2532)">
<g id="Mintel_2">
<path id="Subtract" d="M56.9756 35.5264C58.2204 35.5382 59.2168 36.5329 59.2168 37.7637C59.2166 38.9943 58.2202 40 56.9756 40C55.743 39.9998 54.7356 39.006 54.7354 37.7637C54.7354 36.533 55.731 35.5266 56.9756 35.5264ZM74 14.876C73.9999 20.0004 69.9837 24.1811 64.915 24.4375L64.4209 24.4619H62.0674C62.4358 25.254 62.6426 26.136 62.6426 27.0654C62.6423 30.4853 59.8567 33.2666 56.4307 33.2666C55.8692 33.2666 55.3253 33.1898 54.8076 33.0498C54.4059 34.5852 53.0101 35.7158 51.3447 35.7158C49.3649 35.7158 47.7646 34.1179 47.7646 32.1416C47.7648 30.4798 48.8964 29.0861 50.4336 28.6846C50.2936 28.1682 50.2188 27.6254 50.2188 27.0654C50.2188 26.136 50.4255 25.254 50.7939 24.4619H0V9.57422C0 4.28428 4.29156 8.45774e-06 9.59082 0H74V14.876ZM20.9121 7.94043V17.1006H23.2002V7.94043H20.9121ZM7.05371 7.94043V17.0889H9.3418V11.373L11.8076 14.248H12.1631L14.6416 11.373V17.0889H16.917V7.94043H14.9258L11.9854 11.3369L9.0459 7.94043H7.05371ZM27.208 7.94043V17.0889H29.4961V11.2188L34.5576 17.0889H36.4902V7.94043H34.2021V13.5264L29.3057 7.94043H27.208ZM39.7744 7.94043V9.60938H43.1055V17.0889H45.3818V9.60938H48.7129V7.94043H39.7744ZM51.9971 7.94043V17.0889H58.7656V15.4082H54.2852V13.207H58.4697V11.5381H54.2852V9.60938H58.6709V7.94043H51.9971ZM62.3936 7.94043V17.0889H69.3887V15.4082H64.6816V7.94043H62.3936ZM22.0625 4C21.375 4 20.8059 4.55587 20.8057 5.25391C20.8057 5.9403 21.363 6.50879 22.0625 6.50879C22.7501 6.50878 23.3193 5.95212 23.3193 5.25391C23.3191 4.55588 22.75 4.00001 22.0625 4Z" fill="white"/>
</g>
</g>
<defs>
<clipPath id="clip0_1479_2532">
<rect width="74" height="40" fill="white"/>
</clipPath>
</defs>
</svg>
