<svg width="202" height="32" viewBox="0 0 202 32" fill="none" xmlns="http://www.w3.org/2000/svg">
<g id="Moneyhub">
<g id="Logo">
<path id="Vector" opacity="0.75" fill-rule="evenodd" clip-rule="evenodd" d="M180.307 13.9272L191.609 7.44897L188.801 2.60756C188.203 1.59317 187.121 0.970703 185.947 0.970703H180.307V13.9272Z" fill="white"/>
<path id="Vector_2" fill-rule="evenodd" clip-rule="evenodd" d="M166.841 8.67078L164.033 13.5122C163.434 14.5266 163.434 15.7715 164.033 16.7859L170.386 27.7367C170.985 28.7511 172.066 29.3736 173.24 29.3736H185.947C187.121 29.3736 188.203 28.7511 188.801 27.7367L191.609 22.8953L166.841 8.67078Z" fill="white"/>
<path id="Vector_3" fill-rule="evenodd" clip-rule="evenodd" d="M178.857 13.9272V0.947632H173.217C172.043 0.947632 170.961 1.5701 170.363 2.58449L167.555 7.42589L178.857 13.9272Z" fill="white"/>
<path id="Vector_4" opacity="0.5" fill-rule="evenodd" clip-rule="evenodd" d="M195.155 13.5353L192.346 8.69385L181.021 15.1721L192.323 21.6504L195.132 16.809C195.73 15.7946 195.73 14.5496 195.155 13.5353Z" fill="white"/>
<g id="Vector_5">
<path d="M16.8268 8.02526C15.0544 8.02526 13.42 8.71689 12.2 9.93877C12.131 10.0079 12.0849 10.1001 12.0159 10.1693C10.8189 8.80911 9.04644 8.02526 6.85964 8.02526C5.08718 8.02526 3.33774 8.71689 2.11774 9.93877C0.782644 11.299 0 13.1894 0 15.3796V24.1863H3.31473V15.1721C3.31473 13.8119 4.09737 11.2529 6.76756 11.2529C8.42493 11.2529 9.71399 12.0137 10.0132 14.0655C10.0132 14.0655 10.0132 14.9416 10.0132 15.4026V24.2094H13.5812V15.3335C13.5812 14.8954 13.6042 14.4805 13.5812 14.0424C13.6963 12.6361 14.7551 11.2529 16.7808 11.2529C18.7834 11.2529 20.3027 12.9358 20.3027 15.1029V24.2094H23.6635V15.3335C23.6404 10.884 21.0163 8.02526 16.8268 8.02526Z" fill="white"/>
<path d="M43.5748 16.2787C43.5748 20.9587 40.3292 24.463 35.3341 24.463C30.385 24.463 27.1623 20.9356 27.1623 16.2787C27.1623 11.6448 30.408 8.04828 35.3341 8.04828C40.2141 8.04828 43.5748 11.6448 43.5748 16.2787ZM30.454 16.2787C30.454 19.0913 32.2956 21.3967 35.311 21.3967C38.3725 21.3967 40.2141 19.0913 40.2141 16.2787C40.2141 13.4891 38.2114 11.0915 35.311 11.0915C32.2956 11.0915 30.454 13.4891 30.454 16.2787Z" fill="white"/>
<path d="M53.9794 8.02526C50.1582 8.02526 46.6363 10.6996 46.6363 15.4949V24.2324H49.905V15.2413C49.905 13.42 51.079 10.3307 55.1073 11.0223C56.9488 11.3451 58.3069 12.9358 58.3069 14.8032V24.1863H61.5756V15.4026C61.5296 10.8148 58.422 8.02526 53.9794 8.02526Z" fill="white"/>
<path d="M68.3662 17.5006C68.6655 19.8751 70.6451 21.4428 73.5224 21.4428C75.1107 21.4428 77.1364 20.8434 78.1032 19.7599L80.244 21.8348C78.6096 23.6099 75.8934 24.5091 73.4764 24.5091C68.2971 24.5091 64.9594 21.2353 64.9594 16.2095C64.9594 11.4373 68.3202 8.04828 73.2462 8.04828C78.3334 8.04828 81.7862 11.1376 81.1877 17.5236H68.3662V17.5006ZM77.9881 14.734C77.804 12.2442 75.9624 10.9531 73.3153 10.9531C70.9213 10.9531 68.9417 12.2672 68.4122 14.734H77.9881Z" fill="white"/>
<path d="M99.5107 8.32484L89.2903 31.8864H85.5612L88.8989 24.1862L82.4306 8.32484H86.3899L89.1752 15.9097L90.7865 20.4975L92.5129 15.9789L95.7356 8.32484H99.5107Z" fill="white"/>
<path d="M105.818 1.52393V10.6534C107.222 8.71687 109.11 8.07135 111.02 8.07135C115.532 8.07135 117.627 11.0684 117.627 15.6332V24.2324H114.266V15.6562C114.266 12.6592 112.701 11.1606 110.238 11.1606C107.636 11.1606 105.818 13.3047 105.818 15.9098V24.2094H102.457V1.52393H105.818Z" fill="white"/>
<path d="M128.906 24.5091C132.704 24.5091 136.249 21.7887 136.249 17.0164V8.27883H133.003V17.1086C133.003 18.7455 132.037 21.4198 128.929 21.4198C126.558 21.4198 124.624 19.4832 124.624 17.1086V8.27883H121.379V17.0856C121.356 21.6734 124.486 24.5091 128.906 24.5091Z" fill="white"/>
<path d="M148.656 8.11746C145.019 8.11746 143.408 10.5612 143.385 10.5843V1.52393H140.024V16.1404C140.024 21.097 143.96 24.5321 148.679 24.5321C153.237 24.5321 157.058 21.4198 157.058 16.3248C157.058 11.5526 153.743 8.11746 148.656 8.11746ZM148.679 21.4659C145.825 21.4659 143.339 19.368 143.339 16.3248C143.339 13.4891 145.48 11.1837 148.679 11.1837C151.879 11.1837 153.697 13.4891 153.697 16.3248C153.674 19.4602 151.511 21.4659 148.679 21.4659Z" fill="white"/>
</g>
<g id="Vector_6">
<path d="M197.871 7.47201C197.848 7.47201 197.824 7.47201 197.801 7.47201C196.858 7.44896 196.006 7.08009 195.338 6.41152C194.694 5.74294 194.349 4.84382 194.349 3.92165C194.372 2.97642 194.74 2.12341 195.407 1.45484C196.075 0.809316 196.973 0.463501 197.894 0.463501C199.827 0.486555 201.369 2.10036 201.323 4.03692C201.323 5.95043 199.758 7.47201 197.871 7.47201ZM197.847 0.786262C197.019 0.786262 196.236 1.10902 195.638 1.68538C195.016 2.28479 194.694 3.06864 194.671 3.92165C194.648 4.77466 194.97 5.58156 195.569 6.18097C196.167 6.80344 196.95 7.1262 197.801 7.14925C199.551 7.17231 201.001 5.78905 201.024 4.03692C201.047 2.28479 199.666 0.83237 197.917 0.809316C197.894 0.786261 197.871 0.786262 197.847 0.786262Z" fill="white"/>
<path d="M197.249 5.71987H196.789V2.26172H197.778C198.009 2.26172 198.193 2.28478 198.354 2.33088C198.515 2.37699 198.653 2.44616 198.745 2.51532C198.86 2.60754 198.929 2.69975 198.975 2.81502C199.021 2.9303 199.044 3.06862 199.044 3.20695C199.044 3.32222 199.021 3.43749 198.975 3.55276C198.929 3.66803 198.883 3.76025 198.814 3.82942C198.745 3.92163 198.653 3.99079 198.538 4.0369C198.423 4.10607 198.308 4.15218 198.17 4.17523C198.239 4.19828 198.285 4.26745 198.331 4.31356L199.344 5.69681H198.929C198.837 5.69681 198.791 5.67376 198.745 5.6046L197.847 4.35966C197.824 4.31356 197.801 4.2905 197.755 4.26745C197.732 4.24439 197.686 4.24439 197.617 4.24439H197.249V5.71987ZM197.249 3.94469H197.732C197.87 3.94469 197.986 3.92163 198.101 3.89858C198.216 3.87552 198.285 3.82941 198.354 3.76025C198.423 3.69109 198.469 3.62193 198.515 3.55276C198.561 3.46055 198.561 3.36833 198.561 3.27611C198.561 3.06862 198.492 2.90724 198.354 2.81502C198.216 2.72281 198.009 2.65364 197.755 2.65364H197.249V3.94469Z" fill="white"/>
</g>
</g>
</g>
</svg>
