<svg viewBox="0 0 2038.25 315" xmlns="http://www.w3.org/2000/svg"><g fill="#fff" fill-rule="evenodd"><path d="m173.5 67.5c-18.3 0-35.1 6.9-47.7 19.2-.7.7-1.2 1.6-1.9 2.3-12.3-13.7-30.6-21.5-53.2-21.5s-36.3 6.9-48.9 19.2c-13.8 13.7-21.8 32.7-21.8 54.7v88.5h34.2v-90.6c0-13.7 8.1-39.4 35.6-39.4s30.4 7.6 33.5 28.3v101.9h36.8v-89.2c0-4.4.2-8.6 0-13 1.2-14.1 12.1-28 33-28s36.3 16.9 36.3 38.7v91.5h34.7v-89.2c-.2-44.7-27.3-73.4-70.5-73.4z"/><path d="m449.6 150.5c0 47.2-33.6 82.5-85.3 82.5s-84.6-35.6-84.6-82.5 33.6-83 84.6-83 85.3 36.3 85.3 83zm-135.9 0c0 28.4 19.1 51.6 50.3 51.6s50.8-23.2 50.8-51.6-20.7-52.3-50.8-52.3-50.3 24.2-50.3 52.3z"/><path d="m556 67.5c-39.4 0-75.8 26.8-75.8 74.9v87.7h33.7v-90.2c0-18.3 12.1-49.3 53.7-42.3 19 3.2 33 19.2 33 37.9v94.1h33.7v-88.1c-.5-46-32.5-74-78.4-74z"/><path d="m704.1 162.6c3.1 23.9 23.5 39.6 53.2 39.6s37.3-6 47.2-16.9l22.1 20.9c-16.8 17.8-44.8 26.9-69.8 26.9-53.4 0-87.8-32.9-87.8-83.4s34.7-82 85.4-82 88 31.1 81.9 95.3l-132.2-.2zm99.2-27.8c-1.9-25-20.9-38-48.2-38s-45.1 13.2-50.5 38z"/><path d="m980.2 75-34 78-18.2 46-17-46.7-29.4-77.3h-41.7l68.2 161.6-35.2 78.4h39.3l107.7-240h-39.8z"/><path d="m1091.6 0v94.9c14.3-20.1 33.4-26.8 52.9-26.8 45.8 0 67.1 31.1 67.1 78.6v89.4h-34.1v-89.1c0-31.1-15.9-46.7-40.9-46.7s-44.9 22.3-44.9 49.4v86.3h-34.1v-236h34.1z"/><path d="m1327.1 239c38.6 0 74.6-28.4 74.6-78.2v-91.1h-33v92.1c0 17.1-9.8 45-41.4 45s-43.8-20.2-43.8-45v-92.1h-33v91.9c-.2 47.9 31.6 77.4 76.5 77.4z"/><path d="m1473.9 0h-34.1v152.5c0 51.7 39.9 87.5 87.7 87.5s84.9-32.5 84.9-85.6-33.6-85.6-85.2-85.6-53.2 25.5-53.4 25.7v-94.5zm53.6 208c-28.9 0-54.1-21.9-54.1-53.6s21.7-53.6 54.1-53.6 50.9 24 50.9 53.6c-.2 32.7-22.2 53.6-50.9 53.6z"/><path d="m2003.1 82.1-120.8 68.3 121.2 67.7 30.1-51.1c6.2-10.6 6.2-23.5 0-34l-30.4-50.9z"/><path d="m1856.8 136.2-.4-136-60.5.2c-12.5 0-24 6.5-30.2 17.1l-30.1 51.1 121.2 67.7z"/><path d="m1934 0h-.1l-60.5.2.4 136 120.8-68.3-30.4-50.9c-6.3-10.5-17.8-16.9-30.2-16.9"/><path d="m1727.2 82.8-30.1 51.1c-6.2 10.5-6.2 23.5 0 34l69.3 116.1c6.3 10.5 17.8 17 30.3 16.9l137.9-.4c12.5 0 24-6.5 30.2-17.1l30.1-51.1-267.8-149.6z"/></g></svg>
