<svg width="212" height="32" viewBox="0 0 212 32" fill="none" xmlns="http://www.w3.org/2000/svg">
<g id="Novartis" clip-path="url(#clip0_1479_2532)">
<g id="Vector">
<path d="M177.561 8.95405L178.069 14.4596H177.083L175.53 10.6895H170.363V29.4803L173.469 30.1984V31.3055H163.672V30.1984L166.778 29.4803V10.6895H161.611L160.058 14.4596H159.072L159.58 8.95405H177.561ZM134.012 30.1984V31.3054H124.455V30.1984L127.561 29.5102L125.44 23.6755H117.137L114.957 29.57L117.764 30.1984V31.3055H110.476V30.1984L113.135 29.4504L113.224 29.181L120.811 8.95405L123.409 8.29577L131.354 29.4503L134.012 30.1984ZM124.813 21.94L121.318 12.395L117.794 21.94H124.813ZM197.369 30.5874C199.131 31.4252 201.61 31.9937 203.761 31.9937C208.57 31.9937 212.005 29.3606 212.005 25.6204C212.005 22.6581 210.631 20.8927 206.718 18.8281L204.09 17.4517C201.551 16.1052 200.505 14.9682 200.505 13.1729C200.505 10.9887 202.298 9.73199 204.806 9.73199C205.792 9.73199 206.837 9.94148 207.883 10.3903L209.705 14.31H210.661L210.123 9.1036C208.869 8.65481 206.449 8.2658 204.896 8.2658C200.326 8.2658 197.489 10.5698 197.489 14.31C197.489 16.8234 199.221 18.9479 202.775 20.803L205.016 21.9699C207.554 23.2865 208.63 24.6628 208.63 26.5479C208.63 29.0912 206.419 30.5574 203.612 30.5574C202.268 30.5574 200.983 30.1385 199.4 29.1511L197.668 25.1715H196.742L197.369 30.5874ZM192.237 31.3054V30.1984L189.101 29.4802V10.7792L192.237 10.0611V8.95398H182.44V10.0611L185.576 10.7792V29.4802L182.44 30.1984V31.3054H192.237ZM158.508 30.2282V31.3054H152.654L146.023 21.0424H143.425V29.4802L146.441 30.1984V31.3054H137.272V30.1984L139.87 29.4802V10.7792L137.272 10.0611V8.95398C137.78 8.95398 141.722 8.83433 145.635 8.83433C151.997 8.83433 154.566 11.4375 154.566 14.8485C154.566 19.0375 150.145 20.1746 149.368 20.3841L155.312 29.4204L158.508 30.2282ZM150.952 15.0879C150.952 11.1982 148.204 10.5399 143.425 10.5399V19.4266H144.859C148.592 19.4266 150.952 17.9604 150.952 15.0879ZM102.183 31.6944L109.978 10.8092L112.428 10.0611V8.95405H105.737V10.0611L108.186 10.6894L102.153 27.0566L96.1495 10.7493L98.8675 10.0611V8.95405H89.8175V10.0611L92.2965 10.8092L100.182 31.6944H102.183ZM88.5453 19.5456C88.5453 27.4748 83.0496 31.9929 76.9861 31.9929C70.8633 31.9929 65.457 27.3551 65.457 20.144C65.457 12.8731 70.9229 8.26513 76.9562 8.26513C84.3635 8.26513 88.5453 14.0101 88.5453 19.5456ZM84.6625 20.7132C84.6625 14.9085 81.2276 9.61233 76.5083 9.61233C71.4903 9.61233 69.2802 14.1604 69.2802 19.3368C69.2802 24.5132 72.1178 30.677 77.4941 30.677C82.5416 30.6771 84.6625 25.8298 84.6625 20.7132ZM61.9369 10.0611V8.95405H55.0374V10.0611L57.7554 10.6894V24.992L45.4497 8.95405H39.6255V10.0611C39.8644 10.091 40.163 10.1509 40.3124 10.1808C40.9396 10.3304 41.9252 10.7193 42.433 11.1382V29.4801L39.9838 30.1983V31.3054H46.8535V30.1983L44.1355 29.5699V13.0234L58.5917 31.6645H59.6072C59.5474 31.2456 59.4878 28.6724 59.4878 27.5054V10.7793L61.9369 10.0611Z" fill="white"/>
<path d="M19.537 14.31L19.4564 14.5124C20.783 15.0953 23.7504 17.4093 23.7504 22.0627C23.7504 26.4443 20.0603 30.866 14.2644 30.866C7.04905 30.866 4.5625 26.6431 4.5625 22.761C4.5625 17.788 8.03389 14.4727 8.03389 9.94335C8.03389 6.7895 5.65235 3.67619 2.46404 3.11021L2.34318 3.31266C3.67445 4.72745 4.11863 6.1026 4.11863 7.55837C4.11863 12.4505 0.00195312 15.9277 0.00195312 21.5478C0.00195312 26.7239 3.61499 31.9936 14.0634 31.9936C23.3772 31.9936 28.2894 27.4261 28.2894 22.5589C28.2894 18.3946 25.3019 14.8656 19.537 14.31Z" fill="white"/>
<path d="M14.1848 25.0254L16.8084 -0.00317383H11.3193L13.9428 25.0254H14.1848Z" fill="white"/>
</g>
</g>
<defs>
<clipPath id="clip0_1479_2532">
<rect width="212" height="32" fill="white"/>
</clipPath>
</defs>
</svg>
