<svg width="55" height="40" viewBox="0 0 55 40" fill="none" xmlns="http://www.w3.org/2000/svg">
<g id="Oddbox" clip-path="url(#clip0_1479_2532)">
<g id="Vector">
<path d="M55 39.9707H0V0H55V39.9707ZM2.0583 37.9584H52.9417V2.01228H2.0583V37.9584Z" fill="white"/>
<path d="M40.8764 36.4184L36.6415 36.417L41.838 29.7528L36.8592 23.3971L41.0941 23.3986L43.593 26.598C43.769 26.8233 44.1163 26.8233 44.2923 26.598L46.7935 23.4001L51.0549 23.4016L46.0722 29.7536L51.2635 36.4214L47.0286 36.4199L44.2908 32.9329C44.114 32.7082 43.7675 32.709 43.5915 32.9344L40.8757 36.4177L40.8764 36.4184Z" fill="white"/>
<path d="M35.0496 18.7521L32.1556 20.281C32.1556 20.281 32.0327 19.9777 31.8226 19.5632C31.6444 19.2125 31.5382 19.0012 31.4449 18.8455C31.3729 18.7246 31.1871 18.7483 31.1476 18.8826C31.1218 18.9685 31.0976 19.0531 31.0741 19.145C31.0596 19.1999 31.0506 19.2555 31.0354 19.3104C30.6471 20.7065 29.5785 21.9344 28.1686 22.6802C25.0296 24.3403 21.5076 23.0658 19.5305 19.4927C17.5662 15.9427 18.3648 12.3519 21.4803 10.7044C22.6589 10.0808 23.9133 9.8762 25.1191 10.0904C25.4323 10.1483 25.741 10.2462 26.061 10.3581C26.2112 10.4108 26.3485 10.2536 26.2726 10.1164L23.0562 4.30347L26.1483 2.66784L35.0496 18.7521ZM22.5368 17.978C23.5378 19.7871 25.4642 20.3669 27.2912 19.4008C29.0946 18.4466 29.665 16.5759 28.651 14.7438C27.637 12.9117 25.7235 12.3548 23.9201 13.3083C22.093 14.2752 21.5356 16.1681 22.5368 17.978Z" fill="white"/>
<path d="M46.5833 22.5993L43.4397 21.6517C43.4397 21.6517 43.5755 21.3537 43.7302 20.9162C43.8614 20.5462 43.941 20.3245 43.9896 20.1496C44.0267 20.0146 43.8803 19.9019 43.7537 19.9687C43.6733 20.0109 43.5944 20.0532 43.511 20.1014C43.461 20.1296 43.4139 20.1622 43.3631 20.1896C42.0723 20.8969 40.4274 21.0111 38.8954 20.55C35.4841 19.5231 33.9475 16.1725 35.1701 12.2902C36.3851 8.43247 39.5658 6.47505 42.9513 7.49383C44.2323 7.87932 45.2606 8.61119 45.9485 9.60251C46.1252 9.86122 46.2708 10.1452 46.4127 10.447C46.4794 10.5886 46.6902 10.5745 46.7372 10.4255L48.7273 4.10984L52.0878 5.12117L46.5833 22.5993ZM38.3827 13.3275C37.7639 15.2938 38.6898 17.0437 40.6753 17.6412C42.6358 18.2315 44.3999 17.3187 45.027 15.3272C45.6542 13.3364 44.7199 11.6111 42.7602 11.0209C40.7747 10.4233 39.0023 11.3612 38.3827 13.3268V13.3275Z" fill="white"/>
<path d="M30.7639 23.0761C26.6578 23.0635 23.5825 25.8172 23.5697 29.8833C23.5567 33.9494 26.6139 36.7216 30.7199 36.7342C34.8258 36.7468 37.9011 33.9931 37.9141 29.927C37.9269 25.8609 34.8698 23.0879 30.7639 23.0761ZM34.0576 32.095C33.9628 32.5073 33.4797 32.9736 33.0376 33.0863C31.4684 33.4682 30.054 33.4682 28.4841 33.0863C28.0427 32.9736 27.5596 32.5073 27.4641 32.095C27.1349 30.6218 27.1349 29.1819 27.4641 27.7086C27.5589 27.2963 28.0427 26.83 28.4841 26.7173C30.054 26.3355 31.4669 26.3355 33.0376 26.7173C33.4789 26.8293 33.9628 27.2963 34.0576 27.7086C34.3875 29.1819 34.3875 30.6218 34.0576 32.095Z" fill="white"/>
<path d="M13.7552 7.4678C10.0845 5.6698 6.0771 6.79681 4.21371 10.4329C2.35032 14.0682 3.82541 17.8814 7.49681 19.6795C11.1675 21.4774 15.1749 20.3504 17.0383 16.7144C18.9017 13.0791 17.4266 9.26583 13.7552 7.4678ZM12.5971 16.9769C12.3248 17.3046 11.6794 17.5122 11.2327 17.4203C9.6537 17.0792 8.38719 16.4638 7.15553 15.4384C6.81199 15.1455 6.5913 14.5175 6.69368 14.1067C7.06987 12.6439 7.72512 11.3552 8.69134 10.1785C8.96434 9.85085 9.6097 9.64319 10.0557 9.73519C11.6354 10.0762 12.9004 10.6916 14.1328 11.717C14.4771 12.0099 14.6971 12.6379 14.5947 13.0487C14.2193 14.5115 13.5633 15.8002 12.5971 16.9769Z" fill="white"/>
<path d="M2.76972 21.8304L5.70625 19.9404L9.42394 25.4597C9.51194 25.5902 9.71819 25.5458 9.7417 25.3915C9.79099 25.0631 9.85019 24.7509 9.94568 24.4536C10.3226 23.3133 11.1 22.3301 12.2201 21.6094C15.1787 19.7046 18.7932 20.7145 21.0631 24.0858C23.3481 27.4787 22.8317 31.1155 19.8504 33.0344C18.5119 33.8959 16.8995 34.2363 15.4578 33.9108C15.4017 33.8982 15.3463 33.8796 15.2902 33.8663C15.1969 33.8433 15.1089 33.824 15.0194 33.8055C14.8791 33.7758 14.7707 33.9241 14.845 34.0435C14.9413 34.1977 15.0816 34.389 15.3137 34.7085C15.5874 35.086 15.8028 35.3351 15.8028 35.3351L13.0559 37.1049L2.76972 21.8304ZM13.4132 24.9437C11.6999 26.0462 11.2972 27.9577 12.4689 29.6978C13.6406 31.438 15.5958 31.8317 17.309 30.7292C19.0443 29.6126 19.4326 27.6789 18.2752 25.961C17.1179 24.2431 15.1483 23.8264 13.4132 24.9437Z" fill="white"/>
</g>
</g>
<defs>
<clipPath id="clip0_1479_2532">
<rect width="55" height="40" fill="white"/>
</clipPath>
</defs>
</svg>
