<svg width="80" height="59" viewBox="0 0 80 59" fill="none" xmlns="http://www.w3.org/2000/svg">
<path d="M79.9998 58.9568H-0.000244141V0H79.9998V58.9568ZM2.99365 55.9886H77.0059V2.96812H2.99365V55.9886Z" fill="#FFFFFF"/>
<path d="M59.4564 53.7172L53.2965 53.715L60.8551 43.8854L53.6131 34.5107L59.773 34.5129L63.4078 39.232C63.6637 39.5644 64.1689 39.5644 64.4249 39.232L68.063 34.5151L74.2615 34.5173L67.0139 43.8865L74.5648 53.7215L68.405 53.7193L64.4227 48.576C64.1656 48.2446 63.6615 48.2457 63.4056 48.5782L59.4553 53.7161L59.4564 53.7172Z" fill="#FFFFFF"/>
<path d="M50.981 27.6593L46.7715 29.9144C46.7715 29.9144 46.5928 29.4671 46.2872 28.8557C46.028 28.3384 45.8735 28.0267 45.7378 27.7971C45.633 27.6188 45.3628 27.6538 45.3054 27.8518C45.2679 27.9786 45.2326 28.1033 45.1984 28.2389C45.1774 28.3198 45.1642 28.4019 45.1421 28.4828C44.5773 30.5421 43.023 32.3532 40.9723 33.4533C36.4065 35.902 31.2835 34.022 28.4077 28.7518C25.5506 23.5155 26.7122 18.219 31.2438 15.789C32.9581 14.8692 34.7827 14.5674 36.5366 14.8834C36.9922 14.9687 37.4412 15.1131 37.9067 15.2782C38.1251 15.3559 38.3248 15.124 38.2145 14.9217L33.5361 6.34762L38.0336 3.93506L50.981 27.6593ZM32.7805 26.5175C34.2366 29.186 37.0386 30.0412 39.696 28.6162C42.3192 27.2087 43.1488 24.4495 41.6739 21.7471C40.199 19.0447 37.4158 18.2234 34.7926 19.6298C32.1351 21.0559 31.3243 23.848 32.7805 26.5175Z" fill="#FFFFFF"/>
<path d="M67.7573 33.334L63.1848 31.9363C63.1848 31.9363 63.3823 31.4967 63.6073 30.8514C63.7981 30.3057 63.914 29.9787 63.9846 29.7206C64.0386 29.5216 63.8257 29.3553 63.6415 29.4538C63.5246 29.5161 63.4098 29.5784 63.2885 29.6495C63.2157 29.6911 63.1473 29.7392 63.0734 29.7797C61.1959 30.823 58.8032 30.9914 56.5749 30.3112C51.613 28.7965 49.378 23.8544 51.1563 18.1281C52.9235 12.4379 57.55 9.5507 62.4744 11.0534C64.3376 11.622 65.8334 12.7015 66.834 14.1637C67.091 14.5453 67.3028 14.9642 67.5091 15.4093C67.6061 15.6182 67.9128 15.5974 67.9812 15.3776L70.8758 6.06201L75.7638 7.55373L67.7573 33.334ZM55.8291 19.6581C54.929 22.5584 56.2759 25.1394 59.1639 26.0208C62.0155 26.8914 64.5814 25.5451 65.4936 22.6076C66.4059 19.6712 65.0469 17.1263 62.1964 16.2558C59.3084 15.3743 56.7304 16.7578 55.8291 19.657V19.6581Z" fill="#FFFFFF"/>
<path d="M44.7472 34.0372C38.7748 34.0186 34.3016 38.0803 34.2829 44.0778C34.2641 50.0753 38.7109 54.1644 44.6832 54.183C50.6555 54.2016 55.1287 50.1398 55.1475 44.1424C55.1662 38.1449 50.7195 34.0547 44.7472 34.0372ZM49.5381 47.3401C49.4002 47.9482 48.6975 48.6361 48.0544 48.8023C45.772 49.3656 43.7146 49.3656 41.4312 48.8023C40.7891 48.6361 40.0865 47.9482 39.9475 47.3401C39.4687 45.1671 39.4687 43.0433 39.9475 40.8702C40.0854 40.2621 40.7891 39.5742 41.4312 39.408C43.7146 38.8448 45.7698 38.8448 48.0544 39.408C48.6964 39.5732 49.4002 40.2621 49.5381 40.8702C50.0179 43.0433 50.0179 45.1671 49.5381 47.3401Z" fill="#FFFFFF"/>
<path d="M20.0073 11.015C14.6681 8.36296 8.83917 10.0253 6.12879 15.3885C3.4184 20.7506 5.56399 26.3751 10.9042 29.0272C16.2434 31.6792 22.0723 30.0169 24.7827 24.6537C27.4931 19.2916 25.3475 13.6671 20.0073 11.015ZM18.3228 25.0409C17.9268 25.5243 16.988 25.8305 16.3382 25.6949C14.0415 25.1918 12.1993 24.2841 10.4078 22.7716C9.90811 22.3396 9.5871 21.4133 9.73602 20.8074C10.2832 18.6497 11.2363 16.7489 12.6417 15.0133C13.0388 14.53 13.9775 14.2237 14.6262 14.3594C16.924 14.8624 18.764 15.7701 20.5566 17.2826C21.0574 17.7146 21.3773 18.6409 21.2284 19.2468C20.6824 21.4045 19.7282 23.3053 18.3228 25.0409Z" fill="#FFFFFF"/>
<path d="M4.02844 32.1998L8.29976 29.4121L13.7073 37.5531C13.8353 37.7456 14.1353 37.68 14.1695 37.4525C14.2412 36.968 14.3273 36.5076 14.4662 36.0691C15.0145 34.3871 16.1452 32.9369 17.7745 31.8739C22.0778 29.0643 27.3353 30.5539 30.637 35.5266C33.9607 40.5311 33.2095 45.8954 28.8731 48.7257C26.9261 49.9965 24.5808 50.4985 22.4838 50.0184C22.4022 49.9998 22.3216 49.9724 22.24 49.9528C22.1043 49.9189 21.9763 49.8904 21.8462 49.8631C21.6421 49.8193 21.4844 50.0381 21.5925 50.2141C21.7326 50.4416 21.9366 50.7238 22.2742 51.1951C22.6724 51.7518 22.9857 52.1192 22.9857 52.1192L18.9902 54.7298L4.02844 32.1998ZM19.5098 36.792C17.0178 38.4182 16.432 41.2376 18.1364 43.8043C19.8407 46.3711 22.6846 46.9518 25.1765 45.3256C27.7005 43.6786 28.2653 40.8264 26.5819 38.2924C24.8985 35.7585 22.0337 35.1449 19.5098 36.793V36.792Z" fill="#FFFFFF"/>
</svg>
