<svg width="146" height="32" viewBox="0 0 146 32" fill="none" xmlns="http://www.w3.org/2000/svg">
<g id="OldMutual" clip-path="url(#clip0_1479_2532)">
<g id="Vector">
<path d="M5.86062 21.0552C5.52653 20.4989 5.73534 19.7897 6.29217 19.4698C6.84899 19.1499 7.57287 19.3307 7.89305 19.9009C8.21323 20.4572 8.03226 21.1804 7.46151 21.5002C7.28054 21.6115 7.07173 21.6532 6.87684 21.6532C6.47314 21.6532 6.08336 21.4446 5.86062 21.0691M9.91155 17.5924C9.41041 16.6884 7.50327 16.9944 8.1297 18.2738C7.37798 17.8566 6.43137 17.8288 5.62397 18.2877C4.41287 18.9831 3.99525 20.5267 4.69128 21.7366C5.38732 22.9465 6.94644 23.3498 8.15754 22.6545C8.96494 22.1956 9.41041 21.3611 9.42433 20.4989C10.2317 21.6671 11.4428 20.1791 10.9138 19.3029C11.415 18.9274 12.3755 18.3294 13.2664 17.7871C13.3082 17.1334 13.3361 16.4937 13.35 15.8401C12.2781 16.4381 10.6911 17.2586 9.92548 17.5924M22.5516 21.4863C21.9947 21.1664 21.7999 20.4572 22.12 19.887C22.4402 19.3307 23.1641 19.136 23.7209 19.4559C24.2777 19.7757 24.4726 20.485 24.1525 21.0413C23.9297 21.4168 23.5399 21.6254 23.1362 21.6254C22.9414 21.6254 22.7325 21.5698 22.5516 21.4724M16.7605 17.7731C17.6515 18.3155 18.612 18.9274 19.1131 19.289C18.5842 20.1651 19.7953 21.6671 20.6027 20.485C20.6027 21.3472 21.062 22.1817 21.8695 22.6406C23.0806 23.3359 24.6258 22.9187 25.3357 21.7227C26.0317 20.5128 25.628 18.9691 24.403 18.2738C23.5956 17.8149 22.649 17.8427 21.8973 18.2599C22.5098 16.9804 20.6027 16.6745 20.1154 17.5784C19.3359 17.2447 17.7628 16.4242 16.6909 15.8262C16.6909 16.4937 16.7327 17.1195 16.7745 17.7731M13.8372 6.41113C13.8372 5.7714 14.3523 5.24294 15.0065 5.24294C15.6608 5.24294 16.1759 5.7714 16.1759 6.41113C16.1759 7.05085 15.6469 7.57931 15.0065 7.57931C14.3662 7.57931 13.8372 7.05085 13.8372 6.41113ZM12.473 6.41113C12.473 7.32899 12.9741 8.1495 13.7119 8.58062C12.292 8.69187 12.988 10.4859 14.0182 10.472C14.1295 11.4176 14.1852 13.5732 14.1852 14.7692C14.1852 19.1777 13.5727 24.5737 12.0553 26.0339C10.9695 26.1173 9.6749 25.9644 8.32459 25.6028C6.87684 25.2134 5.65181 24.6293 4.73305 23.9618C3.63331 24.1147 2.67278 24.3929 1.9489 24.7823C3.60547 26.2147 5.45692 27.5637 7.50327 28.7319C9.91155 30.1226 12.5565 31.249 15.0065 32C17.4287 31.2629 20.1015 30.1226 22.5098 28.7319C24.5562 27.5498 26.4076 26.2008 28.0642 24.7823C27.3403 24.3929 26.3798 24.1008 25.28 23.9618C24.3613 24.6293 23.1362 25.2134 21.6885 25.6028C20.3382 25.9644 19.0435 26.1034 17.9577 26.0339C16.4404 24.5737 15.8279 19.1777 15.8279 14.7692C15.8279 13.5732 15.8835 11.4176 15.9949 10.472C17.025 10.4859 17.7211 8.69187 16.3012 8.58062C17.039 8.13559 17.5401 7.32899 17.5401 6.41113C17.5401 5.02043 16.3986 3.88005 15.0065 3.88005C13.6145 3.88005 12.473 5.00652 12.473 6.41113ZM7.50327 2.82312C5.02538 4.24163 2.82591 5.88266 0.918768 7.66275C0.320177 10.2077 0 12.9335 0 15.7844C0 18.1347 0.250573 20.4155 0.654274 22.5711C1.35031 22.1399 2.08811 21.4585 2.7563 20.5824C2.63102 19.442 2.74238 18.1069 3.13216 16.6606C3.4941 15.3255 4.00917 14.1295 4.62168 13.2256C6.29217 12.7527 9.95331 14.1017 13.3221 15.8401C13.3221 15.4785 13.3221 15.1308 13.3221 14.7692C13.3221 14.4772 13.3221 14.1156 13.3221 13.7401C10.4684 11.8209 7.94873 9.63755 7.57287 8.12169C8.04618 7.1482 8.82574 6.09126 9.80019 5.11777C10.8582 4.06084 11.9718 3.29596 13.0159 2.83703C13.4335 1.82182 13.6701 0.848327 13.698 0.0139073C11.6238 0.737071 9.52177 1.65493 7.48935 2.83703M16.9694 2.82312C18.0134 3.28205 19.1271 4.04694 20.199 5.10387C21.1873 6.07736 21.953 7.12038 22.4263 8.10778C22.0504 9.62364 19.5169 11.807 16.677 13.7262C16.677 14.1017 16.677 14.4633 16.677 14.7553C16.677 15.1169 16.677 15.4646 16.677 15.8262C20.0458 14.1017 23.7209 12.7388 25.3775 13.2116C25.99 14.1156 26.5051 15.2977 26.867 16.6467C27.2568 18.093 27.3681 19.442 27.2429 20.5684C27.925 21.4446 28.6488 22.126 29.3449 22.5571C29.7486 20.4155 29.9992 18.1347 29.9992 15.7705C29.9992 12.9196 29.679 10.1938 29.0804 7.66275C27.1732 5.88266 24.9738 4.24163 22.4959 2.82312C20.4495 1.64103 18.3475 0.723164 16.2872 0C16.3151 0.820513 16.5378 1.794 16.9694 2.82312Z" fill="white"/>
<path d="M36.8889 15.8815V15.8398C36.8889 12.4187 39.4643 9.42868 43.2507 9.42868C47.0371 9.42868 49.5707 12.3909 49.5707 15.812C49.5707 15.812 49.5707 15.8259 49.5707 15.8537C49.5707 19.2748 46.9954 22.2787 43.2089 22.2787C39.4225 22.2787 36.875 19.3166 36.875 15.8954M48.123 15.8815V15.8398C48.123 13.0167 46.0627 10.722 43.2229 10.722C40.383 10.722 38.3506 12.9889 38.3506 15.812V15.8537C38.3506 18.6768 40.4109 20.9715 43.2507 20.9715C46.0905 20.9715 48.123 18.7046 48.123 15.8815Z" fill="white"/>
<path d="M51.1586 9.65132H52.5646V20.763H59.5668V22.0564H51.1586V9.65132Z" fill="white"/>
<path d="M61.2227 9.65132H65.5382C69.4499 9.65132 72.1505 12.3215 72.1505 15.8121V15.8538C72.1505 19.3445 69.4499 22.0564 65.5382 22.0564H61.2227V9.65132ZM65.5521 20.763C68.6982 20.763 70.7028 18.6352 70.7028 15.8817V15.8399C70.7028 13.0863 68.6982 10.9308 65.5521 10.9308H62.6427V20.7491H65.5521V20.763Z" fill="white"/>
<path d="M73.8492 9.65132H76.8004L80.0578 14.8943L83.3292 9.65132H86.2804V22.0564H83.5659V13.9486L80.0578 19.2471H79.9882L76.522 14.0042V22.0564H73.8492V9.65132Z" fill="white"/>
<path d="M87.9507 16.7439V9.65132H90.6931V16.6743C90.6931 18.6909 91.7093 19.7478 93.3798 19.7478C95.0503 19.7478 96.0665 18.7326 96.0665 16.7717V9.66523H98.8089V16.6604C98.8089 20.4153 96.6929 22.265 93.3519 22.265C90.011 22.265 87.9646 20.4014 87.9646 16.7439" fill="white"/>
<path d="M103.973 12.1685H100.201V9.65132H110.502V12.1685H106.716V22.0564H103.973V12.1685Z" fill="white"/>
<path d="M111.908 16.7439V9.65132H114.65V16.6743C114.65 18.6909 115.667 19.7478 117.337 19.7478C119.008 19.7478 120.024 18.7326 120.024 16.7717V9.66523H122.766V16.6604C122.766 20.4153 120.65 22.265 117.309 22.265C113.968 22.265 111.922 20.4014 111.922 16.7439" fill="white"/>
<path d="M130.493 9.55398L135.824 22.0564H132.957L131.815 19.275H126.553L125.412 22.0564H122.614L127.945 9.55398H130.493ZM130.855 16.8551L129.198 12.836L127.542 16.8551H130.855Z" fill="white"/>
<path d="M137.063 9.65132H139.805V19.567H146V22.0564H137.063V9.65132Z" fill="white"/>
</g>
</g>
<defs>
<clipPath id="clip0_1479_2532">
<rect width="146" height="32" fill="white"/>
</clipPath>
</defs>
</svg>
