<svg width="149" height="40" viewBox="0 0 149 40" fill="none" xmlns="http://www.w3.org/2000/svg">
<g id="Paramount" clip-path="url(#clip0_1479_2532)">
<g id="Vector">
<path d="M44.5366 10.2099C44.5366 3.32211 37.2343 0.0217285 28.4908 0.0217285C19.1707 0.0217285 10.6194 4.13525 7.49668 10.4969C6.63193 12.171 6.19956 14.0842 6.19956 15.9975C6.15152 17.6716 6.63193 19.2979 7.49668 20.6372C8.84184 22.5983 11.2439 23.8419 14.7509 23.8419C19.0747 23.8419 22.4856 21.4981 22.4856 17.3846C22.4856 17.3846 22.5336 16.2367 21.1885 16.2367C20.0835 16.2367 19.7953 17.002 19.8433 17.3846C19.9874 20.5893 18.0658 23.1723 14.6549 23.1723C10.8115 23.1723 9.22617 19.9197 9.22617 16.4758C9.22617 9.39673 14.6068 4.6614 20.1796 2.60464C22.8219 1.60017 25.5602 1.12185 28.3467 1.16969C34.6881 1.16969 39.8766 3.6091 39.8766 10.0664C39.8766 15.4714 35.3126 20.111 29.8359 20.4937L30.0761 19.7762C31.1811 15.8062 32.5743 11.4535 34.8322 8.20095C34.9764 8.00962 35.1685 7.67479 35.4568 7.3878L35.1205 7.00516C34.6401 7.29215 34.2077 7.62697 33.7273 7.96179C23.2543 16.0932 22.918 39.0524 8.93792 39.0524C8.45751 39.0524 7.97709 39.0045 7.49668 38.9567C4.56615 38.4784 3.02883 36.5173 3.02883 33.8387C3.02883 33.3126 3.221 32.5473 3.221 32.1646C3.26904 31.3993 2.59646 30.7297 1.8278 30.7297H1.77975C0.530677 30.7297 0.00222293 31.7341 0.00222293 33.1212C-0.0938599 37.1869 2.93275 39.5307 7.54472 39.9612C8.07318 40.009 8.55359 40.009 9.13009 40.009C20.0355 40.009 26.7132 31.782 29.5477 21.833C30.9889 21.6895 32.4302 21.3546 33.8234 20.9242C38.8197 19.537 44.5366 16.141 44.5366 10.2099Z" fill="#EEEEEE"/>
<path d="M148.45 12.6015H144.607L143.742 14.6104L142.253 18.0064H140.475L139.947 19.1544H141.82L139.562 24.0811C137.977 27.5728 135.479 30.9688 134.038 30.9688C133.701 30.9688 133.509 30.8253 133.509 30.5383C133.509 30.2035 133.605 29.9165 133.942 29.0555C134.374 28.0033 135.143 26.4726 135.671 25.3725C136.488 23.7462 137.737 21.2112 137.737 19.9675C137.737 18.7239 136.92 17.7194 135.383 17.7194C133.605 17.7194 132.02 18.7717 130.531 20.3024L131.492 18.0064H127.888L124.958 24.7029C123.757 27.0466 121.355 30.9688 119.866 30.9688C119.529 30.9688 119.433 30.7775 119.433 30.4427C119.481 30.1557 119.529 29.9165 119.673 29.6295C119.817 29.3425 121.547 25.229 121.547 25.229L124.766 17.9586H120.874L117.752 25.0377C116.791 27.2379 114.341 30.9688 112.803 30.9688C112.563 31.0166 112.275 30.8253 112.275 30.5383V30.3948C112.275 30.0122 112.563 29.2947 112.803 28.8164L114.437 25.229L117.8 17.9586H113.908L113.14 19.6327C112.563 20.7328 111.602 22.0721 110.065 22.0721C109.344 22.0721 108.96 21.7851 108.816 21.4981C108.576 19.0587 107.038 17.7194 104.732 17.7194C101.514 17.7194 99.2558 19.5849 97.7665 21.8808C96.7576 23.4592 95.9889 25.1812 95.4605 26.951C94.0673 29.199 92.6261 30.9688 91.4731 30.9688C91.1848 30.9688 90.9927 30.8253 90.9927 30.4427C90.9927 30.06 91.377 29.199 91.5211 28.8642L94.0673 23.5071C94.7879 21.833 95.2683 20.7807 95.2683 19.6805C95.2683 18.5326 94.4516 17.7194 93.1545 17.7194C91.3289 17.7194 89.3592 18.7717 87.7739 20.4937C87.8219 20.2067 87.8219 19.9675 87.8219 19.6805C87.8219 18.3891 87.1974 17.7194 85.8522 17.7194C84.1708 17.7194 82.4413 18.7239 80.904 20.4937L81.9128 18.0064H78.4058L75.4272 24.7029C74.034 27.8598 71.728 30.9688 70.479 30.9688C70.1907 30.9688 69.9986 30.8253 69.9986 30.4427C69.9986 29.8209 70.6711 28.3381 70.9113 27.7163L74.8507 18.8196C75.139 18.1499 73.2654 17.7194 70.8633 17.7194C68.4132 17.7194 65.867 18.9152 64.0414 20.4937C62.7443 21.5938 61.7835 22.12 61.3031 22.12C61.0629 22.12 60.9668 21.9765 60.9668 21.833C60.9668 21.3068 62.2639 19.7762 62.2639 18.5804C62.2639 18.0543 61.9756 17.6716 61.255 17.6716C59.8618 17.6716 58.1804 19.0109 56.9793 20.398L57.9882 17.9586H54.5292L51.5507 24.655C50.1575 27.8119 47.8034 31.1123 46.5063 31.1123C46.2181 31.1123 46.0259 30.9688 46.0259 30.5862C46.0259 29.9644 46.6504 28.5294 47.0348 27.7641L50.9742 18.8674C51.2624 18.1978 49.3888 17.7673 46.9867 17.7673C43.4317 17.7673 39.9727 20.1589 38.1471 22.5983C36.1294 25.229 34.7362 28.0511 34.7362 30.347C34.6881 32.2124 35.6489 33.3604 37.5706 33.3604C39.7325 33.3604 41.462 31.6863 42.4228 30.3948C42.3747 30.634 42.3267 30.921 42.2787 31.1602C42.2787 32.4516 42.8071 33.3604 44.3444 33.3604C45.7376 33.3604 47.5632 32.2124 49.0045 30.3948L47.8034 33.1212H51.5507L55.2498 24.7985C56.4509 22.0721 57.8441 20.685 58.2284 20.685C58.3725 20.685 58.4206 20.7328 58.4206 20.8285C58.4206 21.1155 57.8441 21.8808 57.8441 22.5983C57.8441 23.3157 58.2284 23.8419 59.2373 23.8419C60.054 23.8419 60.9187 23.4592 61.7354 22.9331C59.8618 25.4682 58.5647 28.1467 58.5647 30.347C58.5167 32.2124 59.4775 33.3604 61.3991 33.3604C63.4169 33.3604 65.2905 31.4471 66.3474 30.1557C66.2994 30.4427 66.2994 30.7297 66.2994 31.0645C66.2994 32.3081 67.02 33.3604 68.4612 33.3604C70.0466 33.3604 71.3437 32.3559 72.9291 30.4427L71.728 33.1212H75.5714L79.0784 25.1812C80.6157 21.7373 82.6815 19.8719 83.7384 19.8719C83.9786 19.824 84.2188 20.0154 84.2669 20.3024V20.398C84.2188 20.7807 84.1227 21.1633 83.9306 21.4981L78.8862 33.1212H82.8256L86.4287 25.0377C87.966 21.546 89.6475 19.8719 90.9446 19.8719C91.3289 19.8719 91.4731 20.0632 91.4731 20.4937C91.425 20.9242 91.3289 21.4025 91.1368 21.7851L87.6778 29.1034C87.3415 29.8209 87.1493 30.5862 87.1013 31.3515C87.1013 32.4516 87.7258 33.4561 89.4553 33.4561C91.7133 33.4561 93.3947 31.782 95.3164 29.2469V29.773C95.4605 31.7819 96.6135 33.5517 99.5921 33.5517C103.099 33.5517 105.934 31.1123 107.663 27.2858C108.288 25.8987 108.768 24.4637 108.912 22.9809C109.296 23.1723 109.729 23.2679 110.161 23.2201C110.738 23.2201 111.314 23.0766 111.843 22.7896L111.218 24.0811C110.497 25.5638 109.729 27.1901 109.152 28.5294C108.768 29.3425 108.528 30.2035 108.48 31.1123C108.48 32.4994 109.248 33.4561 110.834 33.4561C112.419 33.4561 114.533 31.9733 116.07 29.9165H116.118C116.022 30.347 115.974 30.7775 115.974 31.208C115.974 32.3559 116.31 33.4561 117.944 33.4561C119.817 33.4561 121.259 32.1168 122.652 30.4427L121.451 33.1212H125.342L128.465 26.1378C130.242 22.1678 131.972 19.824 133.605 19.824C133.894 19.824 134.134 20.0154 134.134 20.3024V20.398C134.134 21.0677 133.173 22.8853 132.308 24.7029C131.492 26.377 130.915 27.6206 130.483 28.6251C130.098 29.4382 129.858 30.347 129.81 31.2558C129.81 32.4516 130.483 33.4082 131.972 33.4082C134.23 33.4082 136.488 31.2558 137.689 29.6295C137.401 30.4427 137.257 31.208 137.257 32.069C137.257 34.317 138.602 35.4172 140.475 35.4172C141.724 35.4172 142.925 34.9867 143.982 34.2692C145.472 33.2647 146.625 31.7341 147.633 30.2992L146.961 29.6774C146.048 30.9688 144.991 32.2124 143.934 32.9777C143.358 33.4561 142.685 33.6952 141.965 33.7431C141.148 33.7431 140.667 33.3126 140.667 32.3081C140.667 31.3036 141.148 29.9165 141.868 28.0511C141.917 28.0033 142.973 25.6595 143.934 23.4114C144.751 21.4981 145.616 19.6327 145.76 19.2501H148.306L148.834 18.1021H146.336L148.45 12.6015ZM39.3001 30.9688C38.7716 30.9688 38.3873 30.7775 38.3873 30.06C38.4353 28.1946 39.9727 24.8464 41.9424 22.1678C43.3356 20.3024 45.1131 18.9631 47.0348 18.9631L44.5847 24.368C42.7591 28.4337 40.7894 30.9688 39.3001 30.9688ZM63.2247 30.9688C62.6963 30.9688 62.3119 30.7775 62.2639 30.06C62.3119 28.1946 63.8492 24.8464 65.8189 22.1678C67.2121 20.3024 68.9897 18.9631 70.9113 18.9631L68.4612 24.368C66.6356 28.5294 64.762 30.9688 63.2247 30.9688ZM105.741 20.4458C105.645 22.5026 103.82 27.5249 101.658 30.4905C100.793 31.6863 100.072 32.069 99.3999 32.069C98.4871 32.069 98.2469 31.3515 98.391 30.2513C98.5832 28.3859 100.169 23.9854 102.33 20.972C103.339 19.5849 104.012 19.0109 104.781 19.0109C105.549 19.0109 105.741 19.6327 105.741 20.4458Z" fill="#EEEEEE"/>
</g>
</g>
<defs>
<clipPath id="clip0_1479_2532">
<rect width="149" height="40" fill="white"/>
</clipPath>
</defs>
</svg>
