<svg width="202" height="32" viewBox="0 0 202 32" fill="none" xmlns="http://www.w3.org/2000/svg">
<g id="Paymentology">
<g id="Vector">
<path d="M44.7673 6.70935V7.57092C45.5567 6.88884 46.6692 6.51191 47.8175 6.51191C51.5855 6.51191 54.0437 9.54535 54.0437 13.0814C54.0437 16.6174 51.5676 19.6509 47.8175 19.6509C44.0675 19.6509 45.5567 19.2739 44.7673 18.5918V24.1382C44.7673 26.6152 41.2864 26.6152 41.2864 24.1382V6.70935H44.7673ZM50.5448 13.0634C50.5448 11.2146 49.3068 9.7069 47.3151 9.7069C45.3235 9.7069 45.3414 10.1736 44.7673 10.9454V15.1456C45.3235 15.9353 46.1847 16.42 47.3151 16.42C49.2888 16.42 50.5448 14.9122 50.5448 13.0634Z" fill="white"/>
<path d="M28.8161 0.69628H15.377C14.7669 0.69628 14.1927 0.929621 13.7621 1.36041L0.663883 14.4814C0.233256 14.9122 0 15.4866 0 16.0789V31.0666C0 31.4436 0.215314 31.7667 0.574169 31.9282C0.699769 31.982 0.807426 32 0.933025 32C1.16628 32 1.39954 31.9103 1.57897 31.7308L7.87689 25.4126H20.1498C25.6403 25.4126 30.1259 20.9432 30.1259 15.4327V1.98863C30.1259 1.27066 29.5338 0.67833 28.8161 0.67833V0.69628ZM21.7646 8.7735C21.9082 8.7735 22.0338 8.89915 22.0338 9.04274V17.0661C22.0338 17.2097 21.9082 17.3354 21.7646 17.3354H8.3434C8.19986 17.3354 8.07426 17.2097 8.07426 17.0661V9.04274C8.07426 8.89915 8.19986 8.7735 8.3434 8.7735H21.7826H21.7646Z" fill="white"/>
<path d="M64.1634 18.6995C63.3381 19.3995 62.2256 19.7765 61.0414 19.7765C57.2375 19.7765 54.7255 16.7071 54.7255 13.1352C54.7255 9.56328 57.2196 6.49394 61.0414 6.49394C64.8632 6.49394 63.3381 6.88882 64.1634 7.5709V6.69138H67.6982V19.5611H64.1634V18.6816V18.6995ZM64.1634 15.2712V11.0172C63.5713 10.2274 62.728 9.72482 61.5617 9.72482C59.588 9.72482 58.3141 11.2505 58.3141 13.1173C58.3141 14.984 59.5701 16.5097 61.5617 16.5097C63.5534 16.5097 63.5713 16.043 64.1634 15.2532V15.2712Z" fill="white"/>
<path d="M91.1674 12.8301C91.1674 11.1069 90.5573 9.74277 88.9245 9.74277C87.2917 9.74277 87.0943 10.2633 86.5919 11.089V19.579H83.0572V6.70933H86.5919V7.6068C87.3994 6.88882 88.5477 6.49394 89.6781 6.49394C90.8085 6.49394 92.5131 7.14011 93.3923 8.16323C94.2176 7.26576 95.6351 6.49394 97.537 6.49394C101.197 6.49394 102.812 9.04275 102.812 12.2377V19.579H99.2775V12.8301C99.2775 11.1069 98.6674 9.74277 97.0346 9.74277C95.4018 9.74277 95.1506 10.2633 94.6124 11.1608C94.6662 11.5018 94.6841 11.8787 94.6841 12.2377V19.579H91.1494V12.8301H91.1674Z" fill="white"/>
<path d="M104.14 13.1352C104.14 9.34789 106.849 6.49394 110.725 6.49394C114.601 6.49394 117.364 9.34789 116.897 13.7993H107.549C107.764 15.684 109.325 16.5276 110.671 16.5276C112.017 16.5276 113.291 15.9712 113.578 15.8276C115.282 14.8045 116.538 15.4686 116.395 16.8866C116.054 18.3944 113.201 19.7765 110.707 19.7765C108.213 19.7765 104.14 17.0482 104.14 13.1352ZM107.603 11.6275H113.398C113.165 10.0838 111.927 9.38379 110.51 9.38379C109.092 9.38379 107.98 9.90432 107.603 11.6275Z" fill="white"/>
<path d="M118.422 6.70933H121.957V7.66065C122.783 6.88882 123.913 6.49394 125.115 6.49394C128.596 6.49394 130.606 8.8453 130.606 12.2377V19.579H127.071V12.8301C127.071 11.0531 126.263 9.74277 124.523 9.74277C122.783 9.74277 122.549 10.2633 121.957 11.1787V19.579H118.422V6.70933Z" fill="white"/>
<path d="M141.066 13.1352C141.066 9.47353 143.991 6.49394 147.759 6.49394C151.527 6.49394 154.452 9.47353 154.452 13.1352C154.452 16.7969 151.491 19.7765 147.759 19.7765C144.027 19.7765 141.066 16.7969 141.066 13.1352ZM150.881 13.1352C150.881 11.1967 149.571 9.77867 147.759 9.77867C145.947 9.77867 144.619 11.1967 144.619 13.1352C144.619 15.0737 145.929 16.4738 147.759 16.4738C149.589 16.4738 150.881 15.0558 150.881 13.1352Z" fill="white"/>
<path d="M160.732 13.1352C160.732 9.47353 163.656 6.49394 167.424 6.49394C171.192 6.49394 174.117 9.47353 174.117 13.1352C174.117 16.7969 171.156 19.7765 167.424 19.7765C163.692 19.7765 160.732 16.7969 160.732 13.1352ZM170.528 13.1352C170.528 11.1967 169.218 9.77867 167.406 9.77867C165.594 9.77867 164.266 11.1967 164.266 13.1352C164.266 15.0737 165.576 16.4738 167.406 16.4738C169.236 16.4738 170.528 15.0558 170.528 13.1352Z" fill="white"/>
<path d="M176.665 23.5997C175.498 22.792 175.983 20.8714 177.903 21.033C182.263 21.4278 184.326 21.4278 184.326 17.838C183.537 18.538 182.389 18.9508 181.204 18.9508C177.347 18.9508 175.086 15.9712 175.086 12.7403C175.086 9.50945 177.347 6.51191 181.204 6.51191C185.062 6.51191 183.465 6.92474 184.29 7.62477V6.7273H187.825V17.0841C187.951 19.8124 187.323 24.6049 181.617 24.6049C175.911 24.6049 177.185 23.9946 176.665 23.6356V23.5997ZM184.29 14.4096V11.0352C183.698 10.2454 182.765 9.7428 181.617 9.7428C179.733 9.7428 178.638 11.1608 178.638 12.7224C178.638 14.284 179.751 15.684 181.617 15.684C183.483 15.684 183.698 15.1994 184.29 14.3917V14.4096Z" fill="white"/>
<path d="M133.997 15.9712V10.1736C133.997 10.1736 133.405 10.2095 132.274 10.1736C130.265 10.1018 130.767 7.12219 132.185 7.12219H133.997C133.997 7.12219 133.997 7.24783 133.997 5.04006C133.997 2.83229 137.478 2.90408 137.478 5.02211V7.12219H139.11C140.923 7.12219 140.941 10.1736 139.11 10.1736H137.478V15.0379C137.478 16.1507 137.908 16.6713 139.039 16.6713C139.039 16.6713 138.518 16.6713 139.505 16.6713C141.497 16.7969 141.246 19.8483 139.451 19.8483C137.657 19.8483 137.872 19.8483 137.872 19.8483C135.486 19.8483 134.015 18.3944 134.015 15.9892L133.997 15.9712Z" fill="white"/>
<path d="M155.851 1.52195C155.851 -0.416579 159.332 -0.596073 159.332 1.52195V19.579H155.851V1.52195Z" fill="white"/>
<path d="M73.6372 19.2021L68.8286 6.70934H72.5427L75.4674 15.002L78.41 6.70934H82.0883C82.0883 6.70934 76.4722 21.374 75.3777 24.1023C74.032 27.405 71.1791 25.4305 71.6994 24.1023C72.1121 23.0433 73.6372 19.1842 73.6372 19.1842V19.2021Z" fill="white"/>
<path d="M193.531 19.2021L188.722 6.70934H192.436L195.361 15.002L198.304 6.70934H202C202 6.70934 196.384 21.374 195.289 24.1023C193.944 27.405 191.091 25.4305 191.593 24.1023C192.006 23.0433 193.531 19.1842 193.531 19.1842V19.2021Z" fill="white"/>
</g>
</g>
</svg>
