<svg width="151" height="32" viewBox="0 0 151 32" fill="none" xmlns="http://www.w3.org/2000/svg">
<g id="Qinetiq" clip-path="url(#clip0_1479_2532)">
<path id="Vector" d="M38.5762 31.9483H35.2211V5.04371H38.5762V31.9483ZM115.73 31.9483H112.375V5.04371H115.73V31.9483ZM109.021 8.40617H100.636V31.9508H97.2784V8.40617H88.8936V5.04617H109.021V8.40617ZM72.1215 8.40617V15.1336H80.5063V18.4972H72.1215V28.5846H85.5397V31.9471H68.7664V5.04371H85.5397V8.4074L72.1215 8.40617ZM65.4125 5.04617V31.9483H62.6896L45.2853 11.0646V31.9508H41.9313V5.04371H44.6493L62.0573 25.9176V5.04617H65.4125ZM27.0536 31.9471L24.7984 29.2431H24.7959L22.6291 26.6462L18.6393 21.8585H23.0379L25.2182 24.4726C29.429 19.8302 29.5764 12.7852 25.5693 7.96802C21.5599 3.14956 14.6188 2.03325 9.30921 5.35387C3.99843 8.67325 1.94336 15.4117 4.49685 21.1422C7.04667 26.8714 13.4218 29.8363 19.4336 28.0886L21.7379 30.8517C19.889 31.5779 17.9199 31.9508 15.9336 31.9471C7.14488 31.9483 0 24.7852 0 15.9754C0 7.1631 7.14733 2.01322e-05 15.9348 2.01322e-05C24.7198 2.01322e-05 31.8671 7.16556 31.8671 15.9754C31.8708 20.1169 30.2626 24.0985 27.3862 27.0708L31.4522 31.9483L27.0536 31.9471ZM146.137 31.9471L143.878 29.2419L141.713 26.6449L137.723 21.8573H142.12L144.301 24.4714C148.512 19.8289 148.661 12.784 144.652 7.96679C140.642 3.14833 133.701 2.03202 128.392 5.35263C123.081 8.67202 121.026 15.4105 123.579 21.1409C126.13 26.8702 132.504 29.8351 138.517 28.0874L140.82 30.8505C138.97 31.5766 137.002 31.9496 135.014 31.9459C126.23 31.9459 119.081 24.7828 119.081 15.9729C119.081 7.1631 126.23 -0.00244141 135.016 -0.00244141C143.801 -0.00244141 150.951 7.1631 150.951 15.9729C150.951 20.1145 149.343 24.096 146.466 27.0683L150.532 31.9459H146.134L146.137 31.9471Z" fill="white"/>
</g>
<defs>
<clipPath id="clip0_1479_2532">
<rect width="151" height="32" fill="white"/>
</clipPath>
</defs>
</svg>
