<svg width="119" height="40" viewBox="0 0 119 40" fill="none" xmlns="http://www.w3.org/2000/svg">
<g id="Sodexo">
<path id="path5971" d="M103.469 5.93703L105.765 1.14429L106.421 6.01681L111.106 4.37675L107.832 8.57663L111.383 11.3293L106.644 11.6961L106.382 16.7625L103.748 13.0181L99.8747 16.5908L101.327 11.5564L96.7593 10.937L101.205 8.40265L99.3807 4.06647L103.469 5.93703Z" fill="white"/>
<g id="Vector">
<path d="M56.529 24.4661L55.2333 30.941C54.6629 33.5662 53.0825 35.3182 49.8541 35.3182C46.1485 35.3182 45.1705 33.0188 45.9834 29.783C47.1341 25.193 50.8764 23.8256 56.529 24.4661ZM62.3644 15.2086L58.4251 15.4602L57.1791 21.7999C55.6729 21.7467 55.1989 21.699 53.428 21.699C47.8839 21.699 43.0452 24.0306 41.7672 29.5004C40.6154 34.4317 43.4151 38.2592 49.5208 38.2592C55.7748 38.2592 58.496 34.9946 59.4739 30.4035L62.3644 15.2086Z" fill="white"/>
<path d="M19.6261 24.7423C13.8494 24.216 8.88003 24.6958 8.79918 26.6583C8.67403 29.6049 18.3203 27.034 18.1343 32.455C17.8629 40.4193 4.45003 38.5875 1.13086 37.5736L1.73334 35.2099C7.45578 36.1186 13.4928 36.1939 13.6257 33.0357C13.7674 29.6791 4.08124 32.6966 4.30827 27.2612C4.47772 23.212 10.5313 21.0289 20.4401 22.485L19.6261 24.7423Z" fill="white"/>
<path d="M35.2021 30.1601C34.3681 33.4845 31.7334 35.5723 28.5958 35.5723C25.3154 35.5723 23.8391 33.6696 24.7185 30.1601C25.5535 26.8356 28.2193 24.6038 31.3557 24.6038C34.4899 24.6038 36.036 26.8356 35.2021 30.1601ZM31.8607 21.8822C26.1161 21.8822 21.4979 25.2078 20.3627 30.1601C19.2242 35.1157 22.3174 38.4402 28.0598 38.4402C33.8022 38.4402 38.4216 35.1157 39.5578 30.1601C40.6964 25.2078 37.6042 21.8822 31.8607 21.8822Z" fill="white"/>
<path d="M98.2354 38.3561H93.2417C90.2138 35.507 84.4205 28.9612 80.1555 22.0342H83.8202C87.8704 27.6259 98.2354 38.3561 98.2354 38.3561Z" fill="white"/>
<path d="M113.207 30.2103C112.359 33.5868 109.684 35.7078 106.497 35.7078C103.166 35.7078 101.664 33.7752 102.559 30.2103C103.406 26.8338 106.113 24.5665 109.298 24.5665C112.486 24.5665 114.055 26.8338 113.207 30.2103ZM109.812 21.7994C103.979 21.7994 99.2887 25.1782 98.1324 30.2103C96.9773 35.2435 100.119 38.6211 105.952 38.6211C111.787 38.6211 116.478 35.2435 117.632 30.2103C118.788 25.1782 115.646 21.7994 109.812 21.7994Z" fill="white"/>
<path d="M72.638 24.3102C74.4444 24.3102 75.4278 24.9662 75.4278 26.2195C75.4278 29.5462 68.9456 29.3267 66.0872 28.7439C67.0928 26.2539 69.3632 24.3102 72.638 24.3102ZM79.3129 26.0378C79.3129 23.6253 77.3914 21.8523 73.0312 21.8523C65.9598 21.8523 61.3648 26.4456 61.3648 32.1315C61.3648 35.8039 64.4115 38.8557 69.9767 38.8557C73.8109 38.8557 76.3714 36.9652 76.3714 36.9652C71.4918 37.4883 65.4991 36.9652 65.4991 31.7414C65.4991 31.5342 65.5102 31.327 65.5268 31.1197C72.1851 32.5027 79.3129 30.8294 79.3129 26.0378Z" fill="white"/>
</g>
<path id="path5979" d="M76.3711 36.9649C85.8026 31.7233 93.9947 23.6682 99.8058 16.7046C95.6283 29.7874 85.5722 36.8286 76.3711 36.9649Z" fill="white"/>
</g>
</svg>
