<svg width="186" height="32" viewBox="0 0 186 32" fill="none" xmlns="http://www.w3.org/2000/svg">
<g id="What3Words">
<g id="Vector">
<path fill-rule="evenodd" clip-rule="evenodd" d="M31.2907 0V32H0V0H31.2907ZM12.0677 9.02871C11.5338 8.84675 10.9999 9.13788 10.8219 9.64746L6.90596 21.6611C6.87036 21.7703 6.87043 21.8797 6.87043 21.9889C6.87044 22.5713 7.29769 23.0082 7.83165 23.0082C8.2588 23.0082 8.61477 22.7168 8.75716 22.3164L12.6729 10.3029C12.8509 9.75686 12.6016 9.21074 12.0677 9.02871ZM17.9415 9.02871C17.4076 8.8467 16.8736 9.13785 16.6956 9.64746L12.7798 21.6611C12.7442 21.7703 12.7441 21.8797 12.7441 21.9889C12.7441 22.5713 13.1714 23.0082 13.7053 23.0082C14.0969 23.0082 14.4885 22.7168 14.6308 22.3164L18.5466 10.3029C18.7246 9.75688 18.4755 9.21076 17.9415 9.02871ZM23.7795 9.02871C23.2456 8.84671 22.7116 9.13784 22.5335 9.64746L18.6178 21.6611C18.5822 21.7703 18.5823 21.8797 18.5823 21.9889C18.5823 22.5713 19.0094 23.0082 19.5433 23.0082C19.9705 23.0082 20.3622 22.7169 20.469 22.3164L24.3847 10.3029C24.5627 9.75686 24.2779 9.21074 23.7795 9.02871Z" fill="white"/>
<path d="M157.45 8.99187C155.848 8.99187 154.46 9.39233 153.57 10.266V10.0112C153.57 9.46513 153.143 9.02827 152.573 9.02827C152.039 9.02827 151.612 9.46513 151.612 10.0112V22.0249C151.612 22.5709 152.039 23.0078 152.609 23.0078C153.143 23.0078 153.57 22.5709 153.57 22.0249V15.3627C153.57 12.3775 154.531 10.9941 157.45 10.9941C157.984 10.9577 158.411 10.5573 158.447 10.0112C158.411 9.46513 157.984 8.99187 157.45 8.99187Z" fill="white"/>
<path d="M50.122 23.0081C49.6949 23.0081 49.3389 22.7533 49.1965 22.3528L45.8503 12.9603L42.5752 22.3528C42.4684 22.7897 42.0769 23.0445 41.6497 23.0081C41.2225 23.0081 40.8665 22.7533 40.7241 22.3528L36.4524 10.3391C36.2744 9.82948 36.5236 9.24699 37.0219 9.06497C37.5203 8.88295 38.0899 9.13778 38.2679 9.64745L41.6141 19.0399L44.8535 9.75666C44.9603 9.21059 45.4943 8.88295 46.0282 8.99216C46.1706 9.02857 46.313 9.10138 46.4198 9.17419C46.5978 9.31981 46.7046 9.50183 46.7758 9.68386L50.122 19.0035L53.397 9.61104C53.575 9.10138 54.1446 8.81013 54.643 8.99216C55.1414 9.17418 55.4261 9.75667 55.2481 10.2663L51.0832 22.2436C50.9408 22.7533 50.5492 23.0445 50.122 23.0081Z" fill="white"/>
<path d="M64.3614 8.99175C63.0087 8.95534 61.6559 9.3922 60.588 10.2659V4.00426C60.588 3.45819 60.1608 3.02133 59.5913 3.02133C59.0573 3.02133 58.6301 3.45819 58.6301 4.00426V22.0247C58.6301 22.5708 59.0573 23.0077 59.6269 23.0077C60.1608 23.0077 60.588 22.5708 60.588 22.0247V14.5617C60.588 14.1977 60.7304 10.994 64.3614 10.994C67.6008 10.994 67.7076 14.1249 67.7076 14.4525V21.9883C67.7076 22.5344 68.1348 22.9713 68.7044 22.9713C69.2383 22.9713 69.6655 22.5344 69.6655 21.9883V14.4525C69.6655 12.5594 68.562 8.99175 64.3614 8.99175Z" fill="white"/>
<path d="M95.9368 21.0055C94.2993 21.0055 93.6585 20.2774 93.6585 18.348V10.9941H95.9368C96.4708 10.9941 96.898 10.5573 96.898 10.0112C96.898 9.46513 96.4708 9.02827 95.9368 9.02827H93.6229V6.84397C93.6229 6.29789 93.1958 5.86104 92.6618 5.86104C92.1278 5.86104 91.7006 6.29789 91.7006 6.84397V9.02827H90.1699C89.636 9.02827 89.2088 9.46513 89.2088 10.0112C89.2088 10.5573 89.636 10.9941 90.1699 10.9941H91.7006V18.348C91.7006 22.3889 94.3705 23.0078 95.9368 23.0078C96.4708 23.0078 96.898 22.5709 96.898 22.0249C96.898 21.4424 96.4708 21.0055 95.9368 21.0055Z" fill="white"/>
<path d="M105.37 23.4815C102.665 23.4815 100.458 21.3336 100.244 18.6032C100.208 18.0572 100.6 17.5839 101.17 17.5475C101.704 17.5111 102.166 17.9115 102.202 18.4576C102.344 20.2415 103.875 21.5884 105.619 21.4792C107.364 21.3336 108.681 19.7682 108.574 17.9843C108.467 16.2733 107.079 14.9627 105.406 14.9627C104.872 14.9627 104.445 14.5259 104.445 13.9798C104.445 13.4337 104.872 12.9969 105.406 12.9969C106.865 12.9969 108.04 11.7955 108.04 10.3029C108.04 8.81028 106.865 7.60891 105.406 7.60891C104.017 7.60891 102.878 8.70107 102.772 10.0845C102.736 10.6305 102.273 11.031 101.739 10.9946C101.205 10.9582 100.814 10.4849 100.849 9.93883C101.027 7.35408 103.234 5.42461 105.762 5.60664C108.289 5.78866 110.176 8.04577 109.998 10.6305C109.891 11.9047 109.322 13.1061 108.36 13.907C110.71 15.5452 111.279 18.8217 109.678 21.2244C108.645 22.6078 107.043 23.4815 105.37 23.4815Z" fill="white"/>
<path d="M127.156 23.0081C126.729 23.0081 126.373 22.7533 126.231 22.3528L122.884 12.9603L119.609 22.3528C119.467 22.7533 119.111 23.0081 118.684 23.0081C118.257 23.0081 117.901 22.7533 117.758 22.3528L113.487 10.3391C113.309 9.82948 113.558 9.24699 114.056 9.06497C114.554 8.88295 115.124 9.13778 115.302 9.64745L118.648 19.0399L121.888 9.75666C121.994 9.21059 122.528 8.88295 123.062 8.99216C123.205 9.02857 123.347 9.10138 123.454 9.17419C123.632 9.31981 123.739 9.50183 123.81 9.68386L127.156 19.0035L130.431 9.61104C130.609 9.10138 131.179 8.81013 131.677 8.99216C132.176 9.17418 132.46 9.75667 132.282 10.2663L128.117 22.2436C127.939 22.7168 127.583 23.0081 127.156 23.0081Z" fill="white"/>
<path d="M141.36 23.0079C137.587 23.0079 134.525 19.8771 134.525 16.0182C134.525 12.1592 137.587 9.02839 141.36 9.02839C145.133 9.02839 148.195 12.1592 148.195 16.0182C148.195 19.8771 145.133 23.0079 141.36 23.0079ZM141.36 10.9943C138.655 10.9943 136.483 13.215 136.483 15.9818C136.483 18.7485 138.655 20.9692 141.36 20.9692C144.066 20.9692 146.237 18.7485 146.237 15.9818C146.273 13.2514 144.066 10.9943 141.36 10.9943Z" fill="white"/>
<path d="M172.366 2.98481C171.832 2.98481 171.405 3.42167 171.405 3.96775V10.9939C170.23 9.71974 168.557 8.99164 166.848 8.99164C163.253 8.99164 160.334 12.1225 160.334 15.9814C160.334 19.8403 163.253 22.9712 166.848 22.9712C168.592 22.9712 170.23 22.2431 171.405 20.9689V21.9882C171.405 22.5343 171.832 22.9712 172.401 22.9712C172.935 22.9712 173.363 22.5343 173.363 21.9882V4.00415C173.363 3.45808 172.9 2.98481 172.366 2.98481ZM166.813 21.0053C164.285 21.0053 162.256 18.7482 162.256 16.0178C162.256 13.2874 164.321 11.0303 166.813 11.0303C169.34 11.0303 171.369 13.2874 171.369 16.0178C171.369 18.7482 169.34 21.0053 166.813 21.0053Z" fill="white"/>
<path d="M84.8303 8.99219C84.2963 8.99219 83.8691 9.42905 83.8691 9.97513V10.9945C82.6588 9.72029 81.0213 8.95579 79.277 8.95579C75.6816 8.95579 72.7625 12.0866 72.7625 15.9455C72.7625 19.8045 75.6816 22.9353 79.277 22.9353C81.0213 22.9353 82.6588 22.2072 83.8691 20.8966C83.8691 20.8966 83.9403 20.7146 83.8691 21.916C83.8691 22.462 84.2963 22.8989 84.8659 22.8989C85.3998 22.8989 85.827 22.462 85.827 21.916V9.90232C85.7914 9.46546 85.3643 8.99219 84.8303 8.99219ZM79.2414 21.0058C76.7139 21.0058 74.6848 18.7487 74.6848 16.0184C74.6848 13.288 76.7495 11.0309 79.2414 11.0309C81.7333 11.0309 83.7979 13.288 83.7979 16.0184C83.7979 18.7487 81.7689 21.0058 79.2414 21.0058Z" fill="white"/>
<path d="M181.479 22.9715C179.45 22.9715 177.777 22.0614 176.887 20.496C176.638 20.0227 176.745 19.4403 177.136 19.1126C177.528 18.8578 178.026 18.9306 178.311 19.2946C178.346 19.331 178.346 19.3674 178.382 19.4038C179.094 20.4596 180.269 21.1149 181.515 21.1149C183.152 21.1149 184.185 20.4232 184.185 19.2946C184.185 18.1661 182.974 17.6928 181.159 16.8191C179.094 15.8362 177.1 15.1809 177.065 12.6325C177.029 10.9215 178.738 9.10123 181.337 8.95561C182.939 8.84639 184.505 9.50168 185.324 10.4118C185.68 10.8123 185.715 11.3947 185.395 11.8316C185.11 12.1957 184.612 12.2685 184.22 11.9772C184.185 11.9408 184.149 11.9408 184.149 11.9044C182.12 9.97495 178.88 10.8851 178.88 12.6689C178.88 13.7611 180.376 14.3435 181.835 15.0352C183.295 15.6905 186 16.7463 186 19.331C185.964 21.0057 184.54 22.9715 181.479 22.9715Z" fill="white"/>
</g>
</g>
</svg>
