<svg width="75.68" height="40" viewBox="0 0 75.68 40" fill="none" xmlns="http://www.w3.org/2000/svg">
<g id="Logo">
<path d="M53.74 12.32C52.9 12.32 52.24 11.7 52.24 10.84C52.24 10 52.9 9.36004 53.74 9.36004C54.58 9.36004 55.24 10 55.24 10.84C55.24 11.7 54.58 12.32 53.74 12.32ZM52.58 14.78H54.78V26.88H52.58V14.78Z" fill="white"/>
<path d="M60.42 13.2V14.78H64.28V16.6H60.42V26.88H58.24V16.62H56.54V14.8H58.24V13.2C58.24 10.74 60.14 9.10003 62.64 9.10003C63.34 9.10003 64.22 9.22003 64.44 9.32003L64.34 11.22C64.04 11.1 63.28 11 62.76 11C61.14 11 60.42 12 60.42 13.2Z" fill="white"/>
<path d="M75.68 21.4H66.64C66.82 23.7 68.12 25.16 70.24 25.16C72.36 25.16 73.18 24.04 73.4 23.06H75.6C75.14 25.26 73.46 27.02 70.22 27.02C66.44 27.02 64.4 24.42 64.4 20.88C64.4 17.26 66.8 14.68 70.18 14.68C73.56 14.68 75.68 16.98 75.68 20.88V21.4ZM66.68 19.8H73.46C73.18 17.62 72 16.52 70.18 16.52C68.34 16.52 67.04 17.78 66.68 19.8Z" fill="white"/>
<path d="M50.08 24.78L49.96 24.82C49.6 24.96 49.2 25.08 48.82 25.08C48.22 25.08 47.18 24.82 47.18 23.08V9.36004H45.02V23.06C45.02 25.98 46.82 27 48.52 27C49.28 27 50.08 26.8 50.72 26.44L50.84 26.38L50.08 24.78Z" fill="white"/>
<path d="M38.4 0H1.6C0.72 0 0 0.72 0 1.6V38.4C0 39.28 0.72 40 1.6 40H38.4C39.28 40 40 39.28 40 38.4V1.6C40 0.72 39.28 0 38.4 0ZM11.48 32.36H8.94C8.94 32.36 11.46 26.48 11.74 25.78L6.22 12.64H8.86L13.02 22.82L17.18 12.64H19.84L11.48 32.36ZM33.56 21.06C33.56 26.38 30.1 27 27.5 27C23.36 27 21.44 25.12 21.44 21.06V12.64H23.86V21.06C23.86 22.74 24.28 24.66 27.5 24.66C30.72 24.66 31.14 22.74 31.14 21.06V12.64H33.56V21.06Z" fill="white"/>
</g>
</svg>
