<svg width="358" height="160" viewBox="0 0 358 160" fill="none" xmlns="http://www.w3.org/2000/svg">
<path d="M59.3097 125.192C46.7686 124.962 34.3309 120.056 26.1978 110.473C21.0199 104.372 17.5519 97.182 15.9539 89.3754C14.3566 81.5696 14.4506 73.4008 16.8046 65.7499C19.5796 56.7322 24.0645 49.6679 30.57 44.3926L30.5133 44.3404C23.2744 50.1056 18.4251 57.4122 15.9415 65.4843C13.5417 73.2808 13.0826 81.6404 14.7101 89.5927C16.3369 97.5434 19.7054 105.271 24.9835 111.491C33.8049 121.885 46.492 127.208 59.2732 127.461C59.5358 127.467 59.7626 127.376 59.9506 127.192C60.1386 127.008 60.2326 126.781 60.2326 126.518V126.136C60.2326 125.622 59.8209 125.202 59.3089 125.192L59.3097 125.192ZM9.98051 50.2318C9.76065 51.8456 9.70705 53.3667 9.93001 54.7757C10.1522 56.1839 10.6587 57.4978 11.563 58.7074C12.395 59.8204 13.5689 60.8532 15.1731 61.7972C16.0619 60.1569 16.5365 58.6661 16.6756 57.2852C16.8271 55.7812 16.5839 54.3925 16.0502 53.0707C15.515 51.7459 14.6868 50.4701 13.6691 49.2037C12.8278 48.1561 11.8551 47.1124 10.8094 46.0524C10.4583 47.5057 10.1615 48.9038 9.98051 50.2318ZM23.3785 35.3717C22.8137 36.7277 22.4159 38.0409 22.2854 39.3167C22.1549 40.5909 22.2916 41.8511 22.7989 43.1121C23.2604 44.2594 24.0311 45.416 25.1878 46.5968C26.3166 45.3903 27.0609 44.215 27.4959 43.0568C27.9745 41.7834 28.0832 40.52 27.924 39.2489C27.7647 37.9778 27.3374 36.6763 26.7423 35.3343C26.2607 34.2494 25.6703 33.1395 25.0216 32C24.4001 33.1519 23.8361 34.2743 23.3785 35.3717ZM39.2702 49.1569C40.2638 48.5112 41.2652 47.7526 42.2868 46.9325C41.0508 46.4955 39.8568 46.1108 38.7101 45.8312C37.2876 45.4846 35.9312 45.2961 34.6478 45.3662C33.373 45.4355 32.1541 45.7681 30.9911 46.4667C29.933 47.1023 28.9129 48.0463 27.9302 49.375C29.2959 50.3058 30.5692 50.8595 31.7773 51.1095C33.1065 51.3853 34.3674 51.2949 35.5948 50.939C36.8246 50.5823 38.042 49.9553 39.2702 49.1569ZM2.14417 89.2757C3.04379 90.7065 4.01644 91.9526 5.13436 92.9255C6.25073 93.8967 7.5318 94.6047 9.05991 94.9606C10.4738 95.2901 12.106 95.3236 14.0218 94.9949C13.6365 93.0789 13.0181 91.564 12.2039 90.3645C11.3229 89.0654 10.2035 88.1237 8.89677 87.4298C7.58929 86.7358 6.07827 86.2763 4.42042 85.9507C3.03913 85.6796 1.55453 85.5013 0 85.3587C0.693749 86.7615 1.39527 88.084 2.14417 89.2757ZM2.103 69.6817C2.59864 71.2713 3.20771 72.7014 4.02266 73.9039C4.83604 75.1057 5.87395 76.1003 7.23814 76.8262C8.49435 77.4953 10.0326 77.9392 11.9297 78.1122C12.0431 76.2039 11.8349 74.6127 11.3641 73.2668C10.8529 71.808 10.0279 70.6303 8.96358 69.6427C7.90159 68.6575 6.58246 67.8397 5.08697 67.1091C3.84553 66.5031 2.48755 65.9602 1.055 65.4337C1.36031 66.9338 1.69126 68.363 2.103 69.6817ZM26.7765 70.6521C27.2186 69.3468 27.5845 67.9261 27.9255 66.4322C26.4767 66.9253 25.1047 67.4354 23.857 68.0079C22.3522 68.6987 21.0152 69.4846 19.9206 70.4528C18.8314 71.4154 17.9769 72.5728 17.4323 74.0161C16.9296 75.3487 16.6842 76.9337 16.7517 78.8451C18.6543 78.7181 20.2011 78.3115 21.472 77.6737C22.8487 76.9828 23.9106 76.0123 24.7543 74.8284C25.5996 73.643 26.2436 72.2286 26.7765 70.6521ZM31.1674 57.9877C31.9047 56.8584 32.5953 55.6098 33.2782 54.2881C31.7913 54.401 30.3727 54.5483 29.0574 54.7843C27.4641 55.0701 26.0059 55.4883 24.7318 56.1379C23.4639 56.7828 22.3724 57.67 21.5031 58.9052C20.7022 60.0424 20.0838 61.4802 19.6813 63.3004C21.5109 63.6423 23.0732 63.6345 24.4296 63.3417C25.9025 63.0239 27.1448 62.3642 28.2339 61.4475C29.3223 60.5315 30.2779 59.35 31.1674 57.9877ZM22.7648 126.679C24.5065 127.363 26.1931 127.834 27.8339 127.964C29.4738 128.094 31.0835 127.879 32.6808 127.185C34.1685 126.538 35.6593 125.473 37.1688 123.88C35.5544 122.4 33.9921 121.442 32.4594 120.901C30.8155 120.321 29.1942 120.219 27.5682 120.463C25.9437 120.707 24.2944 121.297 22.6047 122.101C21.1636 122.787 19.6953 123.629 18.1874 124.548C19.7582 125.36 21.2817 126.097 22.764 126.679L22.7648 126.679ZM8.46327 109.36C9.80027 110.546 11.1567 111.522 12.5815 112.177C14.0039 112.83 15.5157 113.166 17.1767 113.07C18.7149 112.981 20.3906 112.522 22.2528 111.603C21.2918 109.756 20.2104 108.393 19.0218 107.411C17.7392 106.351 16.3214 105.727 14.7886 105.412C13.2527 105.097 11.5824 105.082 9.80416 105.246C8.30634 105.385 6.72773 105.653 5.08542 105.978C6.2181 107.21 7.33447 108.36 8.46327 109.36ZM30.5622 94.5027C30.0713 93.0711 29.4397 91.5983 28.7389 90.081C27.8152 91.4721 26.9661 92.8304 26.2622 94.1709C25.4302 95.7543 24.8056 97.3058 24.5088 98.8488C24.2121 100.392 24.2439 101.945 24.7295 103.537C25.1793 105.015 26.0222 106.539 27.353 108.134C28.9137 106.76 29.9788 105.384 30.6493 103.992C31.3725 102.492 31.6413 100.963 31.5838 99.394C31.5263 97.8292 31.1441 96.1983 30.5622 94.5027ZM26.4642 82.9598C26.5248 81.5548 26.479 80.0554 26.3865 78.4891C25.107 79.3872 23.9068 80.279 22.844 81.1996C21.5684 82.304 20.4846 83.4552 19.6899 84.7123C18.899 85.9632 18.3925 87.3386 18.2698 88.9081C18.1571 90.3583 18.3676 91.9799 18.979 93.8297C20.8101 93.1615 22.2108 92.3234 23.2721 91.3381C24.4226 90.2664 25.1855 89.0155 25.6734 87.6175C26.1628 86.2163 26.3912 84.65 26.4642 82.9598ZM38.4965 104.868C37.4236 103.697 36.186 102.537 34.8584 101.359C34.5484 103.101 34.2959 104.778 34.1786 106.371C34.0403 108.245 34.0877 110 34.4466 111.605C34.8055 113.21 35.4868 114.689 36.6219 116.016C37.6784 117.252 39.1343 118.366 41.0959 119.341C42.0312 117.355 42.4834 115.577 42.5471 113.95C42.6154 112.205 42.2348 110.623 41.5224 109.139C40.8123 107.656 39.7643 106.251 38.4965 104.868ZM42.7126 34.8327C41.2241 34.9574 39.8506 35.2144 38.6324 35.6973C37.4166 36.1786 36.3414 36.896 35.441 37.949C34.6167 38.9125 33.93 40.1618 33.4072 41.7725C35.0331 42.2328 36.4502 42.3566 37.7087 42.2071C39.0853 42.0427 40.2778 41.5474 41.3515 40.8051C42.4267 40.0605 43.404 39.0597 44.337 37.8882C45.0968 36.9341 45.8255 35.8702 46.5534 34.7401C45.2164 34.7175 43.9315 34.7323 42.7133 34.8335L42.7126 34.8327Z" fill="white"/>
<path d="M102.203 54.8882C103.419 55.1983 104.698 56.3559 104.698 58.4024C104.698 60.759 102.945 62.2887 100.45 62.2887H94.2234V48.1079H100.285C102.76 48.1079 104.223 49.6376 104.223 51.6634C104.223 53.6479 102.924 54.5781 102.203 54.8262V54.8882ZM101.708 52.0975C101.708 50.8159 100.924 50.1337 99.6049 50.1337H96.6976V54.082H99.6255C101.007 54.082 101.708 53.2758 101.708 52.0975ZM99.976 60.2628C101.296 60.2628 102.182 59.56 102.182 58.113C102.182 56.6866 101.254 55.9425 99.8523 55.9425H96.6976V60.2628H99.976Z" fill="white"/>
<path d="M115.663 57.2861V57.8029H108.425C108.611 59.4567 109.58 60.3869 111.023 60.3869C112.528 60.3869 113.085 59.6014 113.25 58.9812H115.621C115.271 60.759 113.869 62.392 110.92 62.392C107.827 62.392 105.951 60.2422 105.951 57.2448C105.951 54.1854 108.054 52.0562 110.941 52.0562C113.931 52.0562 115.663 54.1234 115.663 57.2861ZM110.961 53.9993C109.704 53.9993 108.735 54.7642 108.467 56.2525H113.271C113.065 54.7022 112.219 53.9993 110.961 53.9993Z" fill="white"/>
<path d="M125.248 59.4567C125.269 61.2758 123.64 62.392 120.959 62.392C118.155 62.392 116.774 61.2344 116.753 59.1879L118.939 59.2086C119.001 60.0768 119.578 60.5523 120.959 60.5523C122.258 60.5523 122.815 60.1595 122.815 59.5187C122.815 57.4722 116.98 59.0639 116.98 55.0122C116.98 53.1931 118.568 52.0562 121.145 52.0562C123.681 52.0562 125.063 53.2138 125.104 55.219H122.898C122.836 54.3301 122.197 53.896 121.124 53.896C119.949 53.896 119.413 54.3094 119.413 54.9502C119.413 56.9554 125.248 55.281 125.248 59.4567Z" fill="white"/>
<path d="M133.052 60.0355L133.135 62.1233C132.784 62.268 132.145 62.392 131.423 62.392C128.867 62.392 127.403 60.9037 127.403 58.6505V54.206H125.897V52.1595H127.547V49.2448H129.918V52.1595H132.99V54.1854H129.918V58.5884C129.918 59.5807 130.392 60.2628 131.794 60.2628C132.248 60.2628 132.66 60.2008 133.052 60.0355Z" fill="white"/>
<path d="M148.3 50.2164H141.351V54.4748H147.434V56.5626H141.351V62.2887H138.836V48.1079H148.3V50.2164Z" fill="white"/>
<path d="M152.719 48.8727C152.719 49.8236 151.998 50.4851 151.07 50.4851C150.142 50.4851 149.42 49.8236 149.42 48.8727C149.42 47.9632 150.142 47.281 151.07 47.281C151.998 47.281 152.719 47.9632 152.719 48.8727ZM149.792 62.2887V52.1595H152.307V62.2887H149.792Z" fill="white"/>
<path d="M160.244 52.0562C162.492 52.0562 163.811 53.5859 163.811 55.9218V62.2887H161.275V56.5006C161.275 55.0742 160.615 54.2267 159.337 54.2267C157.976 54.2267 157.09 55.1569 157.09 56.5419V62.2887H154.574V52.1595H156.987L157.069 53.6272C157.667 52.697 158.719 52.0562 160.244 52.0562Z" fill="white"/>
<path d="M175.528 60.1595L175.693 62.206C175.301 62.3094 174.847 62.392 174.332 62.392C173.239 62.392 172.435 61.8339 172.146 60.7383C171.816 61.3585 170.93 62.392 168.765 62.392C166.517 62.392 165.342 61.2758 165.342 59.6427C165.342 57.2448 167.713 56.4593 170.476 56.4593H172.043V55.9425C172.043 54.7642 171.342 54.02 169.94 54.02C168.744 54.02 168.002 54.5988 167.899 55.591H165.59C165.755 53.3172 167.507 52.0562 170.085 52.0562C172.951 52.0562 174.497 53.5652 174.497 56.0872V59.6427C174.497 60.0355 174.703 60.2628 175.012 60.2628C175.177 60.2628 175.301 60.2422 175.528 60.1595ZM169.425 60.5109C171.074 60.5109 172.043 59.4567 172.043 58.5884V57.9269H170.353C168.703 57.9269 167.796 58.4231 167.796 59.374C167.796 60.0975 168.311 60.5109 169.425 60.5109Z" fill="white"/>
<path d="M182.596 52.0562C184.843 52.0562 186.163 53.5859 186.163 55.9218V62.2887H183.627V56.5006C183.627 55.0742 182.967 54.2267 181.688 54.2267C180.328 54.2267 179.441 55.1569 179.441 56.5419V62.2887H176.925V52.1595H179.338L179.42 53.6272C180.018 52.697 181.07 52.0562 182.596 52.0562Z" fill="white"/>
<path d="M192.663 62.392C189.611 62.392 187.755 60.2628 187.755 57.2655C187.755 54.206 189.817 52.0562 192.724 52.0562C195.611 52.0562 197.096 53.7719 197.343 56.0458H194.869C194.683 54.9916 194.065 54.144 192.786 54.144C191.302 54.144 190.312 55.281 190.312 57.2241C190.312 59.1672 191.24 60.3042 192.766 60.3042C194.106 60.3042 194.683 59.4773 194.869 58.4644H197.343C197.075 60.6763 195.57 62.392 192.663 62.392Z" fill="white"/>
<path d="M201.862 48.8727C201.862 49.8236 201.141 50.4851 200.213 50.4851C199.285 50.4851 198.563 49.8236 198.563 48.8727C198.563 47.9632 199.285 47.281 200.213 47.281C201.141 47.281 201.862 47.9632 201.862 48.8727ZM198.934 62.2887V52.1595H201.45V62.2887H198.934Z" fill="white"/>
<path d="M213.263 60.1595L213.428 62.206C213.037 62.3094 212.583 62.392 212.068 62.392C210.975 62.392 210.171 61.8339 209.882 60.7383C209.552 61.3585 208.665 62.392 206.501 62.392C204.253 62.392 203.078 61.2758 203.078 59.6427C203.078 57.2448 205.449 56.4593 208.212 56.4593H209.779V55.9425C209.779 54.7642 209.078 54.02 207.676 54.02C206.48 54.02 205.738 54.5988 205.635 55.591H203.325C203.49 53.3172 205.243 52.0562 207.82 52.0562C210.686 52.0562 212.233 53.5652 212.233 56.0872V59.6427C212.233 60.0355 212.439 60.2628 212.748 60.2628C212.913 60.2628 213.037 60.2422 213.263 60.1595ZM207.16 60.5109C208.81 60.5109 209.779 59.4567 209.779 58.5884V57.9269H208.088C206.439 57.9269 205.531 58.4231 205.531 59.374C205.531 60.0975 206.047 60.5109 207.16 60.5109Z" fill="white"/>
<path d="M218.125 60.1595L218.29 62.206C217.898 62.3094 217.465 62.392 216.908 62.392C215.403 62.392 214.599 61.4618 214.599 59.8494V47.6118H217.094V59.6427C217.094 60.0355 217.321 60.2628 217.63 60.2628C217.795 60.2628 217.898 60.2422 218.125 60.1595Z" fill="white"/>
<path d="M87.864 73.0862H90.3795L86.4 87.267H83.5959L80.7917 76.0836L78.0082 87.267H75.1834L71.204 73.0862H73.7195L76.6267 84.7864L79.4721 73.0862H82.132L84.9774 84.7451L87.864 73.0862Z" fill="white"/>
<path d="M99.9459 82.2644V82.7812H92.7088C92.8943 84.435 93.8634 85.3652 95.3067 85.3652C96.8119 85.3652 97.3686 84.5797 97.5335 83.9595H99.9047C99.5542 85.7373 98.1521 87.3704 95.2036 87.3704C92.1108 87.3704 90.2345 85.2205 90.2345 82.2231C90.2345 79.1637 92.3376 77.0345 95.2242 77.0345C98.214 77.0345 99.9459 79.1017 99.9459 82.2644ZM95.2449 78.9776C93.9871 78.9776 93.018 79.7425 92.75 81.2309H97.5542C97.348 79.6805 96.5026 78.9776 95.2449 78.9776Z" fill="white"/>
<path d="M105.119 85.1378L105.284 87.1843C104.892 87.2877 104.459 87.3704 103.903 87.3704C102.397 87.3704 101.593 86.4401 101.593 84.8277V72.5901H104.088V84.621C104.088 85.0138 104.315 85.2412 104.624 85.2412C104.789 85.2412 104.892 85.2205 105.119 85.1378Z" fill="white"/>
<path d="M110.264 85.1378L110.429 87.1843C110.037 87.2877 109.604 87.3704 109.048 87.3704C107.543 87.3704 106.738 86.4401 106.738 84.8277V72.5901H109.233V84.621C109.233 85.0138 109.46 85.2412 109.769 85.2412C109.934 85.2412 110.037 85.2205 110.264 85.1378Z" fill="white"/>
<path d="M117.677 77.0345C120.296 77.0345 122.131 78.895 122.131 82.0577C122.131 85.1792 120.337 87.3704 117.574 87.3704C116.028 87.3704 115.017 86.7089 114.44 85.758L114.378 87.267H111.945V72.5901H114.461V78.6262C115.079 77.7167 116.131 77.0345 117.677 77.0345ZM117.1 85.2412C118.585 85.2412 119.595 84.0009 119.595 82.1404C119.595 80.3213 118.626 79.1637 117.121 79.1637C115.347 79.1637 114.461 80.6521 114.461 81.8924V82.4918C114.461 83.7942 115.368 85.2412 117.1 85.2412Z" fill="white"/>
<path d="M132.99 82.2644V82.7812H125.753C125.938 84.435 126.907 85.3652 128.351 85.3652C129.856 85.3652 130.413 84.5797 130.578 83.9595H132.949C132.598 85.7373 131.196 87.3704 128.248 87.3704C125.155 87.3704 123.279 85.2205 123.279 82.2231C123.279 79.1637 125.382 77.0345 128.268 77.0345C131.258 77.0345 132.99 79.1017 132.99 82.2644ZM128.289 78.9776C127.031 78.9776 126.062 79.7425 125.794 81.2309H130.598C130.392 79.6805 129.547 78.9776 128.289 78.9776Z" fill="white"/>
<path d="M137.627 73.8511C137.627 74.802 136.905 75.4635 135.978 75.4635C135.05 75.4635 134.328 74.802 134.328 73.8511C134.328 72.9415 135.05 72.2593 135.978 72.2593C136.905 72.2593 137.627 72.9415 137.627 73.8511ZM134.699 87.267V77.1379H137.215V87.267H134.699Z" fill="white"/>
<path d="M145.152 77.0345C147.399 77.0345 148.719 78.5642 148.719 80.9001V87.267H146.183V81.4789C146.183 80.0526 145.523 79.205 144.245 79.205C142.884 79.205 141.997 80.1353 141.997 81.5203V87.267H139.482V77.1379H141.894L141.977 78.6056C142.575 77.6753 143.626 77.0345 145.152 77.0345Z" fill="white"/>
<path d="M158.064 77.1379H160.456V87.329C160.456 89.7476 158.642 91.6287 155.384 91.6287C152.642 91.6287 150.91 90.5538 150.683 88.3213H153.075C153.26 89.2928 154.023 89.6649 155.384 89.6649C157.116 89.6649 157.961 88.652 157.961 87.4117V85.758C157.384 86.7089 156.394 87.3497 154.848 87.3497C152.126 87.3497 150.332 85.2412 150.332 82.2024C150.332 78.9983 152.332 77.0345 154.91 77.0345C156.456 77.0345 157.446 77.6547 157.982 78.5435L158.064 77.1379ZM155.343 85.2412C157.033 85.2412 157.961 83.7942 157.961 82.4712V81.9337C157.961 80.6521 157.075 79.1637 155.343 79.1637C153.879 79.1637 152.868 80.3626 152.868 82.2024C152.868 84.0215 153.879 85.2412 155.343 85.2412Z" fill="white"/>
<path d="M172.757 73.0862C175.746 73.0862 177.705 74.6159 177.705 77.4479C177.705 80.2593 175.746 81.8717 172.757 81.8717H169.623V87.267H167.107V73.0862H172.757ZM172.757 79.7632C174.324 79.7632 175.148 78.7916 175.148 77.4686C175.148 76.1663 174.324 75.1947 172.757 75.1947H169.623V79.7632H172.757Z" fill="white"/>
<path d="M184.223 77.0345C184.47 77.0345 184.717 77.0758 184.841 77.0965L184.821 79.5771C184.676 79.5151 184.511 79.4738 184.12 79.4738C182.882 79.4738 181.831 80.3213 181.666 81.851V87.267H179.15V77.1379H181.563L181.604 78.7709C182.099 77.758 182.924 77.0345 184.223 77.0345Z" fill="white"/>
<path d="M190.443 77.0345C193.536 77.0345 195.577 79.1017 195.577 82.1818C195.577 85.2205 193.536 87.3704 190.443 87.3704C187.371 87.3704 185.309 85.3239 185.309 82.2851C185.309 79.2257 187.371 77.0345 190.443 77.0345ZM190.443 79.1223C188.876 79.1223 187.866 80.3833 187.866 82.2231C187.866 84.0422 188.876 85.2825 190.443 85.2825C192.031 85.2825 193.02 84.0422 193.02 82.2231C193.02 80.3833 192.031 79.1223 190.443 79.1223Z" fill="white"/>
<path d="M203.631 77.1379H206.167L202.414 87.267H199.63L195.857 77.1379H198.579L200.785 83.6908C200.888 84.0009 200.971 84.3523 201.074 84.8277H201.136C201.218 84.3523 201.301 84.0009 201.404 83.6908L203.631 77.1379Z" fill="white"/>
<path d="M210.259 73.8511C210.259 74.802 209.538 75.4635 208.61 75.4635C207.682 75.4635 206.96 74.802 206.96 73.8511C206.96 72.9415 207.682 72.2593 208.61 72.2593C209.538 72.2593 210.259 72.9415 210.259 73.8511ZM207.331 87.267V77.1379H209.847V87.267H207.331Z" fill="white"/>
<path d="M219.227 72.5901H221.743V87.267H219.31L219.248 85.7373C218.65 86.6675 217.557 87.3704 216.011 87.3704C213.392 87.3704 211.557 85.4686 211.557 82.3265C211.557 79.2257 213.351 77.0345 216.155 77.0345C217.681 77.0345 218.671 77.6547 219.227 78.5642V72.5901ZM216.568 85.2412C218.341 85.2412 219.227 83.7528 219.227 82.5125V81.913C219.227 80.6107 218.32 79.1637 216.588 79.1637C215.104 79.1637 214.093 80.404 214.093 82.2644C214.093 84.0836 215.062 85.2412 216.568 85.2412Z" fill="white"/>
<path d="M233.138 82.2644V82.7812H225.901C226.087 84.435 227.056 85.3652 228.499 85.3652C230.004 85.3652 230.561 84.5797 230.726 83.9595H233.097C232.747 85.7373 231.345 87.3704 228.396 87.3704C225.303 87.3704 223.427 85.2205 223.427 82.2231C223.427 79.1637 225.53 77.0345 228.417 77.0345C231.406 77.0345 233.138 79.1017 233.138 82.2644ZM228.437 78.9776C227.18 78.9776 226.211 79.7425 225.943 81.2309H230.747C230.54 79.6805 229.695 78.9776 228.437 78.9776Z" fill="white"/>
<path d="M239.92 77.0345C240.167 77.0345 240.415 77.0758 240.538 77.0965L240.518 79.5771C240.374 79.5151 240.209 79.4738 239.817 79.4738C238.58 79.4738 237.528 80.3213 237.363 81.851V87.267H234.848V77.1379H237.26L237.301 78.7709C237.796 77.758 238.621 77.0345 239.92 77.0345Z" fill="white"/>
<path d="M84.345 111.362C86.1319 111.362 86.9292 110.342 87.0942 109.019H88.3313C88.0976 111.031 86.833 112.436 84.3312 112.436C81.857 112.436 80.0975 110.645 80.0975 107.627C80.0975 104.705 81.8982 102.817 84.3312 102.817C86.778 102.817 88.1251 104.223 88.3313 106.276H87.0942C86.9292 104.912 86.1182 103.892 84.345 103.892C82.6542 103.892 81.3209 105.312 81.3209 107.627C81.3209 109.997 82.6268 111.362 84.345 111.362Z" fill="white"/>
<path d="M92.5303 105.532C94.551 105.532 95.8706 106.91 95.8706 108.964C95.8706 111.003 94.551 112.423 92.5303 112.423C90.5372 112.423 89.2038 111.086 89.2038 109.046C89.2038 106.993 90.5372 105.532 92.5303 105.532ZM92.5303 106.566C91.2794 106.566 90.4409 107.572 90.4409 109.005C90.4409 110.424 91.2794 111.389 92.5303 111.389C93.8087 111.389 94.6334 110.424 94.6334 109.005C94.6334 107.572 93.8087 106.566 92.5303 106.566Z" fill="white"/>
<path d="M100.136 105.532C100.314 105.532 100.438 105.56 100.521 105.573L100.507 106.772C100.452 106.745 100.328 106.717 100.053 106.717C99.201 106.717 98.4038 107.434 98.4038 108.798V112.354H97.1941V105.601H98.335L98.3625 106.69C98.6924 106.028 99.256 105.532 100.136 105.532Z" fill="white"/>
<path d="M105.015 105.532C106.844 105.532 108.081 106.841 108.081 108.895C108.081 110.976 106.816 112.423 104.933 112.423C103.833 112.423 103.118 111.968 102.72 111.32V115.11H101.51V105.601H102.692L102.72 106.731C103.146 106.042 103.916 105.532 105.015 105.532ZM104.85 111.389C106.06 111.389 106.844 110.383 106.844 108.922C106.844 107.489 106.087 106.566 104.878 106.566C103.407 106.566 102.72 107.82 102.72 108.812V109.115C102.72 110.135 103.38 111.389 104.85 111.389Z" fill="white"/>
<path d="M112.324 105.532C114.345 105.532 115.665 106.91 115.665 108.964C115.665 111.003 114.345 112.423 112.324 112.423C110.331 112.423 108.998 111.086 108.998 109.046C108.998 106.993 110.331 105.532 112.324 105.532ZM112.324 106.566C111.073 106.566 110.235 107.572 110.235 109.005C110.235 110.424 111.073 111.389 112.324 111.389C113.603 111.389 114.427 110.424 114.427 109.005C114.427 107.572 113.603 106.566 112.324 106.566Z" fill="white"/>
<path d="M119.93 105.532C120.108 105.532 120.232 105.56 120.315 105.573L120.301 106.772C120.246 106.745 120.122 106.717 119.847 106.717C118.995 106.717 118.198 107.434 118.198 108.798V112.354H116.988V105.601H118.129L118.157 106.69C118.486 106.028 119.05 105.532 119.93 105.532Z" fill="white"/>
<path d="M127.273 111.251L127.37 112.312C127.136 112.381 126.889 112.423 126.6 112.423C125.899 112.423 125.431 111.982 125.349 111.32C125.102 111.706 124.483 112.423 122.985 112.423C121.459 112.423 120.703 111.665 120.703 110.59C120.703 109.129 122.05 108.523 123.919 108.523H125.335V108.082C125.335 107.145 124.758 106.566 123.672 106.566C122.71 106.566 122.119 107.02 122.036 107.834H120.854C120.964 106.373 122.105 105.532 123.754 105.532C125.528 105.532 126.545 106.483 126.545 108.109V110.865C126.545 111.155 126.71 111.32 126.93 111.32C127.053 111.32 127.136 111.306 127.273 111.251ZM123.232 111.444C124.593 111.444 125.335 110.493 125.335 109.873V109.405H123.851C122.586 109.405 121.94 109.79 121.94 110.535C121.94 111.1 122.325 111.444 123.232 111.444Z" fill="white"/>
<path d="M132.086 111.196L132.141 112.257C131.921 112.354 131.509 112.423 131.083 112.423C129.515 112.423 128.581 111.541 128.581 110.135V106.648H127.564V105.601H128.649V103.589H129.79V105.601H131.976V106.621H129.79V110.135C129.79 110.81 130.107 111.362 131.206 111.362C131.509 111.362 131.797 111.32 132.086 111.196Z" fill="white"/>
<path d="M138.853 108.991V109.294H133.822C133.918 110.576 134.647 111.389 135.829 111.389C137.011 111.389 137.464 110.769 137.588 110.218H138.812C138.55 111.444 137.616 112.423 135.815 112.423C133.712 112.423 132.571 110.976 132.571 108.991C132.571 106.965 133.904 105.532 135.787 105.532C137.671 105.532 138.853 106.814 138.853 108.991ZM135.801 106.566C134.77 106.566 134.042 107.269 133.849 108.399H137.629C137.478 107.186 136.818 106.566 135.801 106.566Z" fill="white"/>
<path d="M148.985 112.354L148.119 109.956H143.954L143.088 112.354H141.864L145.342 102.9H146.73L150.208 112.354H148.985ZM144.352 108.881H147.72L146.043 104.25L144.352 108.881Z" fill="white"/>
<path d="M155.967 102.569H157.177V112.354H155.995L155.967 111.224C155.541 111.913 154.771 112.423 153.672 112.423C151.844 112.423 150.606 111.113 150.606 109.06C150.606 106.979 151.871 105.532 153.754 105.532C154.854 105.532 155.569 105.987 155.967 106.635V102.569ZM153.809 111.389C155.28 111.389 155.967 110.135 155.967 109.143V108.84C155.967 107.82 155.308 106.566 153.837 106.566C152.627 106.566 151.844 107.572 151.844 109.033C151.844 110.466 152.6 111.389 153.809 111.389Z" fill="white"/>
<path d="M163.4 105.601H164.638L162.053 112.354H160.734L158.108 105.601H159.469L161.201 110.397C161.297 110.645 161.352 110.838 161.421 111.113H161.448C161.503 110.838 161.558 110.645 161.641 110.397L163.4 105.601Z" fill="white"/>
<path d="M167.082 103.396C167.082 103.878 166.711 104.223 166.244 104.223C165.776 104.223 165.405 103.878 165.405 103.396C165.405 102.927 165.776 102.569 166.244 102.569C166.711 102.569 167.082 102.927 167.082 103.396ZM165.597 112.354V105.601H166.821V112.354H165.597Z" fill="white"/>
<path d="M169.465 107.434C169.465 108.977 173.465 107.806 173.465 110.521C173.465 111.637 172.503 112.423 170.771 112.423C168.915 112.423 168.118 111.679 168.09 110.369L169.204 110.383C169.272 111.031 169.685 111.389 170.785 111.389C171.829 111.389 172.269 111.031 172.269 110.521C172.269 108.95 168.269 110.066 168.269 107.434C168.269 106.318 169.217 105.532 170.853 105.532C172.475 105.532 173.314 106.276 173.369 107.586L172.242 107.572C172.187 106.91 171.678 106.566 170.826 106.566C169.905 106.566 169.465 106.896 169.465 107.434Z" fill="white"/>
<path d="M177.681 105.532C179.701 105.532 181.021 106.91 181.021 108.964C181.021 111.003 179.701 112.423 177.681 112.423C175.687 112.423 174.354 111.086 174.354 109.046C174.354 106.993 175.687 105.532 177.681 105.532ZM177.681 106.566C176.43 106.566 175.591 107.572 175.591 109.005C175.591 110.424 176.43 111.389 177.681 111.389C178.959 111.389 179.784 110.424 179.784 109.005C179.784 107.572 178.959 106.566 177.681 106.566Z" fill="white"/>
<path d="M185.286 105.532C185.465 105.532 185.588 105.56 185.671 105.573L185.657 106.772C185.602 106.745 185.478 106.717 185.203 106.717C184.351 106.717 183.554 107.434 183.554 108.798V112.354H182.344V105.601H183.485L183.513 106.69C183.843 106.028 184.406 105.532 185.286 105.532Z" fill="white"/>
<path d="M195.151 112.354L194.285 109.956H190.12L189.254 112.354H188.031L191.508 102.9H192.897L196.374 112.354H195.151ZM190.519 108.881H193.886L192.209 104.25L190.519 108.881Z" fill="white"/>
<path d="M204.912 105.601H206.273L204.211 112.354H202.782L201.421 107.613C201.38 107.461 201.339 107.255 201.325 107.145H201.297C201.284 107.255 201.242 107.461 201.201 107.613L199.84 112.354H198.411L196.349 105.601H197.71L198.96 110.397C199.043 110.7 199.139 111.003 199.167 111.113H199.194C199.222 111.003 199.318 110.7 199.4 110.397L200.692 105.601H201.93L203.222 110.397C203.304 110.7 203.4 111.003 203.428 111.113H203.455C203.483 111.003 203.565 110.755 203.662 110.397L204.912 105.601Z" fill="white"/>
<path d="M213.283 111.251L213.379 112.312C213.145 112.381 212.898 112.423 212.609 112.423C211.908 112.423 211.441 111.982 211.358 111.32C211.111 111.706 210.492 112.423 208.994 112.423C207.468 112.423 206.712 111.665 206.712 110.59C206.712 109.129 208.059 108.523 209.929 108.523H211.345V108.082C211.345 107.145 210.767 106.566 209.681 106.566C208.719 106.566 208.128 107.02 208.046 107.834H206.863C206.973 106.373 208.114 105.532 209.764 105.532C211.537 105.532 212.554 106.483 212.554 108.109V110.865C212.554 111.155 212.719 111.32 212.939 111.32C213.063 111.32 213.145 111.306 213.283 111.251ZM209.241 111.444C210.602 111.444 211.345 110.493 211.345 109.873V109.405H209.86C208.595 109.405 207.949 109.79 207.949 110.535C207.949 111.1 208.334 111.444 209.241 111.444Z" fill="white"/>
<path d="M217.336 105.532C217.515 105.532 217.639 105.56 217.721 105.573L217.707 106.772C217.652 106.745 217.529 106.717 217.254 106.717C216.402 106.717 215.604 107.434 215.604 108.798V112.354H214.395V105.601H215.536L215.563 106.69C215.893 106.028 216.457 105.532 217.336 105.532Z" fill="white"/>
<path d="M223.431 102.569H224.641V112.354H223.459L223.431 111.224C223.005 111.913 222.235 112.423 221.135 112.423C219.307 112.423 218.07 111.113 218.07 109.06C218.07 106.979 219.335 105.532 221.218 105.532C222.318 105.532 223.032 105.987 223.431 106.635V102.569ZM221.273 111.389C222.744 111.389 223.431 110.135 223.431 109.143V108.84C223.431 107.82 222.771 106.566 221.3 106.566C220.091 106.566 219.307 107.572 219.307 109.033C219.307 110.466 220.063 111.389 221.273 111.389Z" fill="white"/>
<path d="M227.276 107.434C227.276 108.977 231.276 107.806 231.276 110.521C231.276 111.637 230.314 112.423 228.582 112.423C226.727 112.423 225.929 111.679 225.902 110.369L227.015 110.383C227.084 111.031 227.496 111.389 228.596 111.389C229.641 111.389 230.081 111.031 230.081 110.521C230.081 108.95 226.081 110.066 226.081 107.434C226.081 106.318 227.029 105.532 228.665 105.532C230.287 105.532 231.125 106.276 231.18 107.586L230.053 107.572C229.998 106.91 229.49 106.566 228.637 106.566C227.716 106.566 227.276 106.896 227.276 107.434Z" fill="white"/>
<path d="M251.69 125.191C264.23 124.962 276.668 120.055 284.801 110.472C289.979 104.371 293.447 97.1816 295.045 89.375C296.643 81.5692 296.549 73.4004 294.195 65.7496C291.42 56.7318 286.935 49.6675 280.429 44.3922L280.486 44.34C287.724 50.1052 292.574 57.4118 295.058 65.484C297.458 73.2804 297.917 81.64 296.289 89.5923C294.662 97.543 291.294 105.27 286.015 111.49C277.194 121.884 264.506 127.208 251.725 127.461C251.463 127.466 251.235 127.375 251.048 127.191C250.861 127.008 250.766 126.781 250.766 126.518V126.135C250.766 125.621 251.178 125.201 251.69 125.192L251.69 125.191ZM301.019 50.2322C301.239 51.846 301.292 53.3671 301.069 54.7761C300.847 56.1843 300.341 57.4982 299.436 58.7078C298.604 59.8208 297.43 60.8536 295.826 61.7976C294.937 60.1573 294.463 58.6665 294.324 57.2856C294.172 55.7816 294.415 54.3929 294.949 53.0711C295.484 51.7463 296.312 50.4705 297.329 49.204C298.171 48.1565 299.143 47.1128 300.189 46.0527C300.54 47.5061 300.837 48.9034 301.018 50.2314L301.019 50.2322ZM287.621 35.3721C288.186 36.7281 288.583 38.0413 288.714 39.3171C288.844 40.5913 288.707 41.8515 288.2 43.1125C287.739 44.2598 286.968 45.4164 285.812 46.5972C284.683 45.3907 283.939 44.2154 283.504 43.0572C283.026 41.7838 282.917 40.5204 283.076 39.2493C283.235 37.9782 283.663 36.6767 284.258 35.3347C284.739 34.2498 285.33 33.1399 285.978 32.0004C286.6 33.1523 287.164 34.2739 287.622 35.3713L287.621 35.3721ZM271.729 49.1573C270.735 48.5116 269.734 47.753 268.712 46.9329C269.948 46.4959 271.142 46.1112 272.289 45.8315C273.712 45.4849 275.068 45.2965 276.351 45.3666C277.626 45.4359 278.845 45.7685 280.008 46.4671C281.066 47.1027 282.086 48.0466 283.068 49.3754C281.703 50.3061 280.429 50.8599 279.221 51.1099C277.893 51.3857 276.631 51.2953 275.404 50.9394C274.174 50.5826 272.957 49.9557 271.729 49.1573ZM308.855 89.2753C307.955 90.7061 306.983 91.9523 305.865 92.9251C304.749 93.8963 303.467 94.6043 301.939 94.9603C300.525 95.2897 298.893 95.3232 296.977 94.9945C297.363 93.0785 297.981 91.5636 298.795 90.3642C299.676 89.065 300.796 88.1233 302.102 87.4294C303.41 86.7354 304.921 86.2759 306.58 85.9503C307.961 85.6793 309.445 85.5009 311 85.3584C310.306 86.7611 309.605 88.0844 308.856 89.2761L308.855 89.2753ZM308.896 69.6813C308.401 71.271 307.792 72.701 306.977 73.9035C306.163 75.1053 305.125 76.0999 303.76 76.8259C302.504 77.4949 300.966 77.9389 299.069 78.1118C298.955 76.2035 299.164 74.6123 299.634 73.2664C300.146 71.8076 300.971 70.6299 302.036 69.6423C303.098 68.6571 304.417 67.8393 305.913 67.1087C307.154 66.5027 308.512 65.9599 309.945 65.4333C309.64 66.9334 309.308 68.3627 308.896 69.6813ZM284.223 70.6518C283.781 69.3464 283.415 67.9257 283.074 66.4318C284.523 66.9249 285.895 67.435 287.142 68.0075C288.647 68.6984 289.984 69.4842 291.079 70.4524C292.168 71.4151 293.022 72.5724 293.567 74.0157C294.07 75.3483 294.315 76.9333 294.247 78.8447C292.345 78.7177 290.798 78.3112 289.527 77.6733C288.151 76.9824 287.089 76.0119 286.245 74.828C285.4 73.6426 284.756 72.2282 284.223 70.6518ZM279.832 57.9873C279.095 56.858 278.404 55.6095 277.721 54.2877C279.208 54.4007 280.627 54.5479 281.941 54.7839C283.534 55.0697 284.993 55.488 286.267 56.1375C287.535 56.7824 288.625 57.6696 289.495 58.9049C290.296 60.042 290.915 61.4798 291.317 63.3C289.488 63.6419 287.925 63.6341 286.569 63.3413C285.096 63.0235 283.854 62.3638 282.765 61.4471C281.676 60.5311 280.721 59.3496 279.832 57.9873ZM288.234 126.679C286.493 127.363 284.806 127.834 283.165 127.964C281.525 128.093 279.916 127.878 278.318 127.184C276.831 126.538 275.34 125.472 273.83 123.88C275.445 122.4 277.007 121.442 278.54 120.9C280.184 120.32 281.805 120.218 283.431 120.463C285.056 120.707 286.705 121.296 288.395 122.101C289.836 122.787 291.304 123.629 292.812 124.548C291.242 125.36 289.718 126.096 288.235 126.678L288.234 126.679ZM302.536 109.36C301.199 110.545 299.843 111.521 298.418 112.176C296.995 112.83 295.483 113.166 293.823 113.07C292.284 112.981 290.609 112.521 288.746 111.602C289.707 109.756 290.789 108.393 291.977 107.41C293.26 106.35 294.678 105.727 296.211 105.412C297.747 105.096 299.417 105.082 301.195 105.246C302.692 105.385 304.271 105.653 305.913 105.977C304.78 107.21 303.665 108.359 302.536 109.36ZM280.437 94.5023C280.928 93.0707 281.56 91.5979 282.26 90.0806C283.184 91.4717 284.033 92.83 284.737 94.1705C285.569 95.7539 286.194 97.3054 286.49 98.8484C286.787 100.391 286.755 101.944 286.27 103.536C285.82 105.015 284.977 106.538 283.646 108.133C282.086 106.76 281.02 105.384 280.35 103.992C279.627 102.491 279.358 100.962 279.415 99.3936C279.473 97.8288 279.855 96.1979 280.437 94.5023ZM284.535 82.9594C284.474 81.5544 284.521 80.055 284.613 78.4887C285.892 79.3868 287.092 80.2786 288.154 81.1992C289.43 82.3036 290.514 83.4548 291.309 84.7119C292.1 85.9628 292.607 87.3382 292.729 88.9077C292.842 90.3579 292.632 91.9795 292.02 93.8293C290.189 93.1611 288.788 92.323 287.727 91.3377C286.577 90.266 285.814 89.0151 285.326 87.6171C284.836 86.2159 284.608 84.6496 284.535 82.9594ZM272.503 104.867C273.576 103.697 274.813 102.537 276.141 101.359C276.451 103.101 276.703 104.778 276.821 106.371C276.959 108.245 276.912 109.999 276.553 111.605C276.193 113.21 275.512 114.688 274.377 116.015C273.321 117.251 271.865 118.365 269.903 119.34C268.969 117.355 268.516 115.576 268.452 113.95C268.384 112.204 268.764 110.623 269.477 109.139C270.187 107.656 271.235 106.251 272.503 104.867ZM268.287 34.8324C269.775 34.957 271.149 35.214 272.367 35.6969C273.583 36.1782 274.658 36.8956 275.558 37.9486C276.382 38.9121 277.068 40.1614 277.592 41.7721C275.966 42.2324 274.548 42.3562 273.291 42.2067C271.914 42.0423 270.721 41.547 269.648 40.8047C268.572 40.0601 267.595 39.0593 266.662 37.8879C265.902 36.9337 265.174 35.8698 264.447 34.7397C265.784 34.7171 267.069 34.7311 268.287 34.8324Z" fill="white"/>
</svg>
