<svg width="358" height="160" viewBox="0 0 358 160" fill="none" xmlns="http://www.w3.org/2000/svg">
<path d="M81.3836 125.192C68.7564 124.962 56.2333 120.056 48.0444 110.473C42.8309 104.372 39.3392 97.182 37.7302 89.3754C36.1219 81.5696 36.2166 73.4008 38.5867 65.7499C41.3807 56.7322 45.8964 49.6679 52.4466 44.3926L52.3895 44.3404C45.1009 50.1056 40.2184 57.4122 37.7176 65.4843C35.3014 73.2808 34.8391 81.6404 36.4778 89.5927C38.1158 97.5434 41.5074 105.271 46.8218 111.491C55.7037 121.885 68.478 127.208 81.3468 127.461C81.6112 127.467 81.8396 127.376 82.0289 127.192C82.2182 127.008 82.3129 126.781 82.3129 126.518V126.136C82.3129 125.622 81.8983 125.202 81.3828 125.192L81.3836 125.192ZM31.7158 50.2318C31.4944 51.8456 31.4404 53.3667 31.6649 54.7757C31.8886 56.1839 32.3986 57.4978 33.3091 58.7074C34.1469 59.8204 35.3288 60.8532 36.944 61.7972C37.8389 60.1569 38.3168 58.6661 38.4568 57.2852C38.6094 55.7812 38.3645 54.3925 37.8272 53.0707C37.2882 51.7459 36.4544 50.4701 35.4297 49.2037C34.5826 48.1561 33.6032 47.1124 32.5504 46.0524C32.1968 47.5057 31.898 48.9038 31.7158 50.2318ZM45.2057 35.3717C44.6371 36.7277 44.2366 38.0409 44.1052 39.3167C43.9737 40.5909 44.1114 41.8511 44.6222 43.1121C45.0868 44.2594 45.8628 45.416 47.0275 46.5968C48.164 45.3903 48.9134 44.215 49.3514 43.0568C49.8333 41.7834 49.9428 40.52 49.7824 39.2489C49.6221 37.9778 49.1919 36.6763 48.5927 35.3343C48.1077 34.2494 47.5132 33.1395 46.8601 32C46.2343 33.1519 45.6664 34.2743 45.2057 35.3717ZM61.2066 49.1569C62.207 48.5112 63.2153 47.7526 64.2439 46.9325C62.9994 46.4955 61.7971 46.1108 60.6426 45.8312C59.2104 45.4846 57.8446 45.2961 56.5524 45.3662C55.2688 45.4355 54.0415 45.7681 52.8706 46.4667C51.8052 47.1023 50.7782 48.0463 49.7887 49.375C51.1638 50.3058 52.4458 50.8595 53.6622 51.1095C55.0005 51.3853 56.27 51.2949 57.5059 50.939C58.7442 50.5823 59.9699 49.9553 61.2066 49.1569ZM23.8256 89.2757C24.7314 90.7065 25.7108 91.9526 26.8364 92.9255C27.9604 93.8967 29.2503 94.6047 30.7889 94.9606C32.2125 95.2901 33.8559 95.3236 35.7848 94.9949C35.3968 93.0789 34.7742 91.564 33.9544 90.3645C33.0674 89.0654 31.9403 88.1237 30.6246 87.4298C29.3081 86.7358 27.7867 86.2763 26.1175 85.9507C24.7267 85.6796 23.2319 85.5013 21.6667 85.3587C22.3653 86.7615 23.0716 88.084 23.8256 89.2757ZM23.7842 69.6817C24.2832 71.2713 24.8965 72.7014 25.717 73.9039C26.536 75.1057 27.581 76.1003 28.9546 76.8262C30.2194 77.4953 31.7682 77.9392 33.6783 78.1122C33.7925 76.2039 33.5829 74.6127 33.1089 73.2668C32.5942 71.808 31.7635 70.6303 30.6919 69.6427C29.6226 68.6575 28.2944 67.8397 26.7886 67.1091C25.5387 66.5031 24.1714 65.9602 22.729 65.4337C23.0364 66.9338 23.3696 68.363 23.7842 69.6817ZM48.6271 70.6521C49.0722 69.3468 49.4406 67.9261 49.784 66.4322C48.3252 66.9253 46.9438 67.4354 45.6876 68.0079C44.1724 68.6987 42.8262 69.4846 41.7241 70.4528C40.6275 71.4154 39.767 72.5728 39.2187 74.0161C38.7126 75.3487 38.4654 76.9337 38.5335 78.8451C40.4491 78.7181 42.0065 78.3115 43.2862 77.6737C44.6723 76.9828 45.7415 76.0123 46.591 74.8284C47.4421 73.643 48.0905 72.2286 48.6271 70.6521ZM53.0481 57.9877C53.7904 56.8584 54.4858 55.6098 55.1734 54.2881C53.6762 54.401 52.2479 54.5483 50.9237 54.7843C49.3193 55.0701 47.8511 55.4883 46.5683 56.1379C45.2918 56.7828 44.1928 57.67 43.3175 58.9052C42.511 60.0424 41.8884 61.4802 41.4832 63.3004C43.3253 63.6423 44.8983 63.6345 46.264 63.3417C47.7471 63.0239 48.9979 62.3642 50.0945 61.4475C51.1904 60.5315 52.1525 59.35 53.0481 57.9877ZM44.5878 126.679C46.3415 127.363 48.0397 127.834 49.6917 127.964C51.3429 128.094 52.9637 127.879 54.5719 127.185C56.0698 126.538 57.5709 125.473 59.0907 123.88C57.4653 122.4 55.8922 121.442 54.3489 120.901C52.6938 120.321 51.0613 120.219 49.4242 120.463C47.7886 120.707 46.1279 121.297 44.4266 122.101C42.9756 122.787 41.4973 123.629 39.979 124.548C41.5606 125.36 43.0945 126.097 44.587 126.679L44.5878 126.679ZM30.1881 109.36C31.5343 110.546 32.9 111.522 34.3346 112.177C35.7668 112.83 37.289 113.166 38.9614 113.07C40.5101 112.981 42.1973 112.522 44.0723 111.603C43.1047 109.756 42.0159 108.393 40.8191 107.411C39.5277 106.351 38.1001 105.727 36.5569 105.412C35.0104 105.097 33.3287 105.082 31.5382 105.246C30.0301 105.385 28.4407 105.653 26.7871 105.978C27.9275 107.21 29.0516 108.36 30.1881 109.36ZM52.4388 94.5027C51.9444 93.0711 51.3085 91.5983 50.603 90.081C49.6729 91.4721 48.818 92.8304 48.1093 94.1709C47.2715 95.7543 46.6426 97.3058 46.3438 98.8488C46.045 100.392 46.0771 101.945 46.566 103.537C47.0189 105.015 47.8676 106.539 49.2075 108.134C50.7789 106.76 51.8514 105.384 52.5264 103.992C53.2546 102.492 53.5253 100.963 53.4674 99.394C53.4095 97.8292 53.0247 96.1983 52.4388 94.5027ZM48.3126 82.9598C48.3737 81.5548 48.3275 80.0554 48.2344 78.4891C46.9461 79.3872 45.7376 80.279 44.6676 81.1996C43.3832 82.304 42.292 83.4552 41.4918 84.7123C40.6955 85.9632 40.1855 87.3386 40.0619 88.9081C39.9485 90.3583 40.1605 91.9799 40.7761 93.8297C42.6197 93.1615 44.0301 92.3234 45.0986 91.3381C46.257 90.2664 47.0251 89.0155 47.5164 87.6175C48.0092 86.2163 48.2391 84.65 48.3126 82.9598ZM60.4275 104.868C59.3472 103.697 58.1012 102.537 56.7644 101.359C56.4523 103.101 56.1981 104.778 56.08 106.371C55.9407 108.245 55.9884 110 56.3498 111.605C56.7112 113.21 57.3972 114.689 58.54 116.016C59.6038 117.252 61.0697 118.366 63.0447 119.341C63.9865 117.355 64.4418 115.577 64.5059 113.95C64.5747 112.205 64.1915 110.623 63.4742 109.139C62.7592 107.656 61.704 106.251 60.4275 104.868ZM64.6725 34.8327C63.1738 34.9574 61.7909 35.2144 60.5644 35.6973C59.3402 36.1786 58.2576 36.896 57.3511 37.949C56.5211 38.9125 55.8297 40.1618 55.3032 41.7725C56.9404 42.2328 58.3671 42.3566 59.6343 42.2071C61.0204 42.0427 62.2211 41.5474 63.3021 40.8051C64.3847 40.0605 65.3687 39.0597 66.3081 37.8882C67.0731 36.9341 67.8068 35.8702 68.5398 34.7401C67.1936 34.7175 65.8998 34.7323 64.6733 34.8335L64.6725 34.8327Z" fill="white"/>
<path d="M111.202 53.0691C113.943 53.0691 115.957 54.7022 115.957 57.7616C115.957 60.6556 113.735 62.4127 110.829 62.4127C108.005 62.4127 105.805 60.759 105.805 58.051H108.358C108.358 59.5187 109.479 60.2008 110.829 60.2008C112.323 60.2008 113.403 59.3326 113.403 57.7616C113.403 56.0458 112.344 55.2603 110.891 55.2603C109.915 55.2603 109.189 55.6117 108.607 56.0665L106.365 55.2396L107.05 48.1079H115.188V50.2577H109.126L108.836 53.5445C109.521 53.2345 110.31 53.0691 111.202 53.0691Z" fill="white"/>
<path d="M117.465 57.3275V55.405H124.419V57.3275H117.465Z" fill="white"/>
<path d="M134.492 59.4567C134.512 61.2758 132.872 62.392 130.173 62.392C127.35 62.392 125.959 61.2344 125.938 59.1879L128.139 59.2086C128.201 60.0768 128.783 60.5523 130.173 60.5523C131.481 60.5523 132.042 60.1595 132.042 59.5187C132.042 57.4722 126.167 59.0639 126.167 55.0122C126.167 53.1931 127.765 52.0562 130.36 52.0562C132.914 52.0562 134.305 53.2138 134.346 55.219H132.125C132.063 54.3301 131.419 53.896 130.34 53.896C129.156 53.896 128.616 54.3094 128.616 54.9502C128.616 56.9554 134.492 55.281 134.492 59.4567Z" fill="white"/>
<path d="M142.349 60.0355L142.432 62.1233C142.079 62.268 141.436 62.392 140.709 62.392C138.135 62.392 136.661 60.9037 136.661 58.6505V54.206H135.145V52.1595H136.806V49.2448H139.194V52.1595H142.287V54.1854H139.194V58.5884C139.194 59.5807 139.671 60.2628 141.083 60.2628C141.54 60.2628 141.955 60.2008 142.349 60.0355Z" fill="white"/>
<path d="M153.366 60.1595L153.532 62.206C153.138 62.3094 152.681 62.392 152.162 62.392C151.062 62.392 150.252 61.8339 149.961 60.7383C149.629 61.3585 148.737 62.392 146.557 62.392C144.294 62.392 143.111 61.2758 143.111 59.6427C143.111 57.2448 145.498 56.4593 148.28 56.4593H149.858V55.9425C149.858 54.7642 149.152 54.02 147.74 54.02C146.536 54.02 145.789 54.5988 145.685 55.591H143.36C143.526 53.3172 145.29 52.0562 147.885 52.0562C150.771 52.0562 152.328 53.5652 152.328 56.0872V59.6427C152.328 60.0355 152.536 60.2628 152.847 60.2628C153.013 60.2628 153.138 60.2422 153.366 60.1595ZM147.221 60.5109C148.882 60.5109 149.858 59.4567 149.858 58.5884V57.9269H148.155C146.495 57.9269 145.581 58.4231 145.581 59.374C145.581 60.0975 146.1 60.5109 147.221 60.5109Z" fill="white"/>
<path d="M159.88 52.0562C160.13 52.0562 160.379 52.0975 160.503 52.1182L160.482 54.5988C160.337 54.5368 160.171 54.4954 159.777 54.4954C158.531 54.4954 157.472 55.343 157.306 56.8727V62.2887H154.773V52.1595H157.202L157.244 53.7926C157.742 52.7797 158.572 52.0562 159.88 52.0562Z" fill="white"/>
<path d="M168.366 48.8727C168.366 49.8236 167.639 50.4851 166.705 50.4851C165.771 50.4851 165.044 49.8236 165.044 48.8727C165.044 47.9632 165.771 47.281 166.705 47.281C167.639 47.281 168.366 47.9632 168.366 48.8727ZM165.418 62.2887V52.1595H167.951V62.2887H165.418Z" fill="white"/>
<path d="M175.942 52.0562C178.205 52.0562 179.534 53.5859 179.534 55.9218V62.2887H176.98V56.5006C176.98 55.0742 176.316 54.2267 175.029 54.2267C173.659 54.2267 172.766 55.1569 172.766 56.5419V62.2887H170.233V52.1595H172.662L172.745 53.6272C173.347 52.697 174.406 52.0562 175.942 52.0562Z" fill="white"/>
<path d="M189.649 59.4567C189.67 61.2758 188.03 62.392 185.331 62.392C182.508 62.392 181.117 61.2344 181.096 59.1879L183.297 59.2086C183.359 60.0768 183.94 60.5523 185.331 60.5523C186.639 60.5523 187.199 60.1595 187.199 59.5187C187.199 57.4722 181.324 59.0639 181.324 55.0122C181.324 53.1931 182.923 52.0562 185.518 52.0562C188.071 52.0562 189.462 53.2138 189.504 55.219H187.283C187.22 54.3301 186.577 53.896 185.497 53.896C184.314 53.896 183.774 54.3094 183.774 54.9502C183.774 56.9554 189.649 55.281 189.649 59.4567Z" fill="white"/>
<path d="M197.815 52.1595H200.348V62.2887H197.919L197.836 60.821C197.234 61.7512 196.217 62.392 194.805 62.392C192.501 62.392 191.276 60.8417 191.276 58.7125V52.1595H193.809V58.175C193.809 59.436 194.473 60.2215 195.739 60.2215C196.923 60.2215 197.815 59.312 197.815 57.9063V52.1595Z" fill="white"/>
<path d="M207.729 52.0562C207.978 52.0562 208.227 52.0975 208.352 52.1182L208.331 54.5988C208.186 54.5368 208.02 54.4954 207.625 54.4954C206.379 54.4954 205.321 55.343 205.155 56.8727V62.2887H202.622V52.1595H205.051L205.092 53.7926C205.591 52.7797 206.421 52.0562 207.729 52.0562Z" fill="white"/>
<path d="M219.077 60.1595L219.243 62.206C218.848 62.3094 218.392 62.392 217.873 62.392C216.772 62.392 215.963 61.8339 215.672 60.7383C215.34 61.3585 214.447 62.392 212.267 62.392C210.004 62.392 208.821 61.2758 208.821 59.6427C208.821 57.2448 211.208 56.4593 213.99 56.4593H215.568V55.9425C215.568 54.7642 214.862 54.02 213.451 54.02C212.247 54.02 211.499 54.5988 211.395 55.591H209.07C209.236 53.3172 211.001 52.0562 213.596 52.0562C216.482 52.0562 218.039 53.5652 218.039 56.0872V59.6427C218.039 60.0355 218.246 60.2628 218.558 60.2628C218.724 60.2628 218.848 60.2422 219.077 60.1595ZM212.932 60.5109C214.592 60.5109 215.568 59.4567 215.568 58.5884V57.9269H213.866C212.205 57.9269 211.292 58.4231 211.292 59.374C211.292 60.0975 211.811 60.5109 212.932 60.5109Z" fill="white"/>
<path d="M226.193 52.0562C228.456 52.0562 229.784 53.5859 229.784 55.9218V62.2887H227.231V56.5006C227.231 55.0742 226.567 54.2267 225.279 54.2267C223.909 54.2267 223.017 55.1569 223.017 56.5419V62.2887H220.484V52.1595H222.913L222.996 53.6272C223.598 52.697 224.657 52.0562 226.193 52.0562Z" fill="white"/>
<path d="M236.329 62.392C233.256 62.392 231.388 60.2628 231.388 57.2655C231.388 54.206 233.464 52.0562 236.391 52.0562C239.298 52.0562 240.792 53.7719 241.042 56.0458H238.55C238.363 54.9916 237.741 54.144 236.454 54.144C234.959 54.144 233.962 55.281 233.962 57.2241C233.962 59.1672 234.897 60.3042 236.433 60.3042C237.782 60.3042 238.363 59.4773 238.55 58.4644H241.042C240.772 60.6763 239.256 62.392 236.329 62.392Z" fill="white"/>
<path d="M251.841 57.2861V57.8029H244.554C244.741 59.4567 245.716 60.3869 247.17 60.3869C248.685 60.3869 249.246 59.6014 249.412 58.9812H251.799C251.446 60.759 250.035 62.392 247.066 62.392C243.952 62.392 242.063 60.2422 242.063 57.2448C242.063 54.1854 244.18 52.0562 247.087 52.0562C250.097 52.0562 251.841 54.1234 251.841 57.2861ZM247.107 53.9993C245.841 53.9993 244.865 54.7642 244.595 56.2525H249.432C249.225 54.7022 248.374 53.9993 247.107 53.9993Z" fill="white"/>
<path d="M91.4551 87.267V75.2567H86.9086V73.0862H98.5552V75.2567H93.9879V87.267H91.4551Z" fill="white"/>
<path d="M106.705 82.2644V82.7812H99.418C99.6049 84.435 100.581 85.3652 102.034 85.3652C103.549 85.3652 104.11 84.5797 104.276 83.9595H106.663C106.31 85.7373 104.899 87.3704 101.93 87.3704C98.816 87.3704 96.9268 85.2205 96.9268 82.2231C96.9268 79.1637 99.0443 77.0345 101.951 77.0345C104.961 77.0345 106.705 79.1017 106.705 82.2644ZM101.972 78.9776C100.705 78.9776 99.7294 79.7425 99.4596 81.2309H104.297C104.089 79.6805 103.238 78.9776 101.972 78.9776Z" fill="white"/>
<path d="M112.786 87.3704C109.713 87.3704 107.845 85.2412 107.845 82.2438C107.845 79.1844 109.921 77.0345 112.848 77.0345C115.754 77.0345 117.249 78.7503 117.498 81.0241H115.007C114.82 79.9699 114.197 79.1223 112.91 79.1223C111.415 79.1223 110.419 80.2593 110.419 82.2024C110.419 84.1456 111.353 85.2825 112.889 85.2825C114.239 85.2825 114.82 84.4557 115.007 83.4427H117.498C117.228 85.6546 115.713 87.3704 112.786 87.3704Z" fill="white"/>
<path d="M124.789 77.0345C127.093 77.0345 128.401 78.6262 128.401 80.7347V87.267H125.848V81.3549C125.848 80.0319 125.183 79.205 123.917 79.205C122.526 79.205 121.633 80.1146 121.633 81.5203V87.267H119.1V72.5901H121.592V78.6262C122.194 77.696 123.232 77.0345 124.789 77.0345Z" fill="white"/>
<path d="M136.295 77.0345C138.558 77.0345 139.887 78.5642 139.887 80.9001V87.267H137.333V81.4789C137.333 80.0526 136.669 79.205 135.382 79.205C134.011 79.205 133.119 80.1353 133.119 81.5203V87.267H130.586V77.1379H133.015L133.098 78.6056C133.7 77.6753 134.759 77.0345 136.295 77.0345Z" fill="white"/>
<path d="M146.659 77.0345C149.774 77.0345 151.829 79.1017 151.829 82.1818C151.829 85.2205 149.774 87.3704 146.659 87.3704C143.566 87.3704 141.49 85.3239 141.49 82.2851C141.49 79.2257 143.566 77.0345 146.659 77.0345ZM146.659 79.1223C145.082 79.1223 144.064 80.3833 144.064 82.2231C144.064 84.0422 145.082 85.2825 146.659 85.2825C148.258 85.2825 149.255 84.0422 149.255 82.2231C149.255 80.3833 148.258 79.1223 146.659 79.1223Z" fill="white"/>
<path d="M157.024 85.1378L157.19 87.1843C156.796 87.2877 156.36 87.3704 155.8 87.3704C154.284 87.3704 153.474 86.4401 153.474 84.8277V72.5901H155.986V84.621C155.986 85.0138 156.215 85.2412 156.526 85.2412C156.692 85.2412 156.796 85.2205 157.024 85.1378Z" fill="white"/>
<path d="M163.204 77.0345C166.318 77.0345 168.373 79.1017 168.373 82.1818C168.373 85.2205 166.318 87.3704 163.204 87.3704C160.11 87.3704 158.034 85.3239 158.034 82.2851C158.034 79.2257 160.11 77.0345 163.204 77.0345ZM163.204 79.1223C161.626 79.1223 160.609 80.3833 160.609 82.2231C160.609 84.0422 161.626 85.2825 163.204 85.2825C164.802 85.2825 165.799 84.0422 165.799 82.2231C165.799 80.3833 164.802 79.1223 163.204 79.1223Z" fill="white"/>
<path d="M177.305 77.1379H179.714V87.329C179.714 89.7476 177.887 91.6287 174.607 91.6287C171.845 91.6287 170.102 90.5538 169.873 88.3213H172.281C172.468 89.2928 173.236 89.6649 174.607 89.6649C176.35 89.6649 177.202 88.652 177.202 87.4117V85.758C176.62 86.7089 175.624 87.3497 174.067 87.3497C171.326 87.3497 169.52 85.2412 169.52 82.2024C169.52 78.9983 171.534 77.0345 174.129 77.0345C175.686 77.0345 176.683 77.6547 177.222 78.5435L177.305 77.1379ZM174.565 85.2412C176.267 85.2412 177.202 83.7942 177.202 82.4712V81.9337C177.202 80.6521 176.309 79.1637 174.565 79.1637C173.091 79.1637 172.074 80.3626 172.074 82.2024C172.074 84.0215 173.091 85.2412 174.565 85.2412Z" fill="white"/>
<path d="M188.594 77.1379H191.168L187.411 87.267L187.12 88.0319C186.165 90.5538 185.127 91.5254 183.03 91.5254C182.407 91.5254 181.764 91.4427 181.39 91.3187L181.556 89.1895C181.868 89.3135 182.137 89.3962 182.532 89.3962C183.466 89.3962 184.213 89.1275 184.629 87.9492L184.795 87.5151L180.871 77.1379H183.632L185.791 83.7321C185.895 84.0422 185.978 84.3936 186.082 84.8691H186.144C186.227 84.3936 186.31 84.0215 186.414 83.7321L188.594 77.1379Z" fill="white"/>
<path d="M202.023 73.0862C205.033 73.0862 207.006 74.6159 207.006 77.4479C207.006 80.2593 205.033 81.8717 202.023 81.8717H198.867V87.267H196.335V73.0862H202.023ZM202.023 79.7632C203.601 79.7632 204.431 78.7916 204.431 77.4686C204.431 76.1663 203.601 75.1947 202.023 75.1947H198.867V79.7632H202.023Z" fill="white"/>
<path d="M213.568 77.0345C213.817 77.0345 214.066 77.0758 214.191 77.0965L214.17 79.5771C214.024 79.5151 213.858 79.4738 213.464 79.4738C212.218 79.4738 211.16 80.3213 210.993 81.851V87.267H208.461V77.1379H210.89L210.931 78.7709C211.429 77.758 212.26 77.0345 213.568 77.0345Z" fill="white"/>
<path d="M219.831 77.0345C222.945 77.0345 225 79.1017 225 82.1818C225 85.2205 222.945 87.3704 219.831 87.3704C216.737 87.3704 214.661 85.3239 214.661 82.2851C214.661 79.2257 216.737 77.0345 219.831 77.0345ZM219.831 79.1223C218.253 79.1223 217.236 80.3833 217.236 82.2231C217.236 84.0422 218.253 85.2825 219.831 85.2825C221.429 85.2825 222.426 84.0422 222.426 82.2231C222.426 80.3833 221.429 79.1223 219.831 79.1223Z" fill="white"/>
<path d="M233.109 77.1379H235.662L231.884 87.267H229.081L225.282 77.1379H228.023L230.244 83.6908C230.348 84.0009 230.431 84.3523 230.535 84.8277H230.597C230.68 84.3523 230.763 84.0009 230.867 83.6908L233.109 77.1379Z" fill="white"/>
<path d="M239.783 73.8511C239.783 74.802 239.056 75.4635 238.122 75.4635C237.188 75.4635 236.461 74.802 236.461 73.8511C236.461 72.9415 237.188 72.2593 238.122 72.2593C239.056 72.2593 239.783 72.9415 239.783 73.8511ZM236.835 87.267V77.1379H239.368V87.267H236.835Z" fill="white"/>
<path d="M248.813 72.5901H251.346V87.267H248.896L248.834 85.7373C248.231 86.6675 247.131 87.3704 245.574 87.3704C242.938 87.3704 241.09 85.4686 241.09 82.3265C241.09 79.2257 242.896 77.0345 245.719 77.0345C247.256 77.0345 248.252 77.6547 248.813 78.5642V72.5901ZM246.135 85.2412C247.92 85.2412 248.813 83.7528 248.813 82.5125V81.913C248.813 80.6107 247.899 79.1637 246.155 79.1637C244.661 79.1637 243.643 80.404 243.643 82.2644C243.643 84.0836 244.619 85.2412 246.135 85.2412Z" fill="white"/>
<path d="M262.819 82.2644V82.7812H255.532C255.719 84.435 256.695 85.3652 258.148 85.3652C259.664 85.3652 260.224 84.5797 260.39 83.9595H262.778C262.425 85.7373 261.013 87.3704 258.044 87.3704C254.93 87.3704 253.041 85.2205 253.041 82.2231C253.041 79.1637 255.159 77.0345 258.065 77.0345C261.075 77.0345 262.819 79.1017 262.819 82.2644ZM258.086 78.9776C256.82 78.9776 255.844 79.7425 255.574 81.2309H260.411C260.204 79.6805 259.352 78.9776 258.086 78.9776Z" fill="white"/>
<path d="M269.647 77.0345C269.896 77.0345 270.146 77.0758 270.27 77.0965L270.249 79.5771C270.104 79.5151 269.938 79.4738 269.544 79.4738C268.298 79.4738 267.239 80.3213 267.073 81.851V87.267H264.54V77.1379H266.969L267.011 78.7709C267.509 77.758 268.339 77.0345 269.647 77.0345Z" fill="white"/>
<path d="M93.1502 112.354V102.9H94.3682V112.354H93.1502Z" fill="white"/>
<path d="M99.7317 105.532C101.226 105.532 102.181 106.442 102.181 108.095V112.354H100.95V108.343C100.95 107.2 100.41 106.566 99.3995 106.566C98.3061 106.566 97.5726 107.282 97.5726 108.426V112.354H96.3547V105.601H97.5034L97.5588 106.607C97.9878 105.987 98.7075 105.532 99.7317 105.532Z" fill="white"/>
<path d="M104.763 107.434C104.763 108.977 108.79 107.806 108.79 110.521C108.79 111.637 107.822 112.423 106.078 112.423C104.209 112.423 103.407 111.679 103.379 110.369L104.5 110.383C104.569 111.031 104.984 111.389 106.092 111.389C107.143 111.389 107.586 111.031 107.586 110.521C107.586 108.95 103.559 110.066 103.559 107.434C103.559 106.318 104.514 105.532 106.161 105.532C107.794 105.532 108.638 106.276 108.694 107.586L107.559 107.572C107.503 106.91 106.991 106.566 106.133 106.566C105.206 106.566 104.763 106.896 104.763 107.434Z" fill="white"/>
<path d="M114.502 105.601H115.72V112.354H114.571L114.516 111.362C114.101 111.982 113.395 112.423 112.426 112.423C110.945 112.423 110.032 111.486 110.032 110.011V105.601H111.263V109.832C111.263 110.824 111.803 111.389 112.786 111.389C113.768 111.389 114.502 110.7 114.502 109.529V105.601Z" fill="white"/>
<path d="M120.422 105.532C120.602 105.532 120.727 105.56 120.81 105.573L120.796 106.772C120.741 106.745 120.616 106.717 120.339 106.717C119.481 106.717 118.678 107.434 118.678 108.798V112.354H117.46V105.601H118.609L118.637 106.69C118.969 106.028 119.536 105.532 120.422 105.532Z" fill="white"/>
<path d="M127.816 111.251L127.913 112.312C127.678 112.381 127.429 112.423 127.138 112.423C126.432 112.423 125.962 111.982 125.879 111.32C125.63 111.706 125.007 112.423 123.498 112.423C121.962 112.423 121.201 111.665 121.201 110.59C121.201 109.129 122.557 108.523 124.439 108.523H125.865V108.082C125.865 107.145 125.284 106.566 124.19 106.566C123.221 106.566 122.626 107.02 122.543 107.834H121.353C121.464 106.373 122.612 105.532 124.273 105.532C126.059 105.532 127.083 106.483 127.083 108.109V110.865C127.083 111.155 127.249 111.32 127.47 111.32C127.595 111.32 127.678 111.306 127.816 111.251ZM123.747 111.444C125.117 111.444 125.865 110.493 125.865 109.873V109.405H124.37C123.097 109.405 122.446 109.79 122.446 110.535C122.446 111.1 122.834 111.444 123.747 111.444Z" fill="white"/>
<path d="M132.313 105.532C133.808 105.532 134.763 106.442 134.763 108.095V112.354H133.531V108.343C133.531 107.2 132.991 106.566 131.981 106.566C130.887 106.566 130.154 107.282 130.154 108.426V112.354H128.936V105.601H130.085L130.14 106.607C130.569 105.987 131.289 105.532 132.313 105.532Z" fill="white"/>
<path d="M139.185 112.423C137.123 112.423 136.016 110.989 136.016 109.005C136.016 106.979 137.33 105.532 139.254 105.532C141.026 105.532 142.064 106.524 142.244 108.068H140.943C140.804 107.227 140.292 106.566 139.268 106.566C138.05 106.566 137.261 107.517 137.261 108.977C137.261 110.424 137.981 111.389 139.24 111.389C140.292 111.389 140.804 110.728 140.943 109.928H142.244C142.036 111.43 140.984 112.423 139.185 112.423Z" fill="white"/>
<path d="M149.403 108.991V109.294H144.337C144.434 110.576 145.168 111.389 146.358 111.389C147.548 111.389 148.005 110.769 148.13 110.218H149.361C149.098 111.444 148.157 112.423 146.344 112.423C144.227 112.423 143.078 110.976 143.078 108.991C143.078 106.965 144.42 105.532 146.316 105.532C148.213 105.532 149.403 106.814 149.403 108.991ZM146.33 106.566C145.292 106.566 144.559 107.269 144.365 108.399H148.171C148.019 107.186 147.354 106.566 146.33 106.566Z" fill="white"/>
<path d="M158.931 107.379C159.748 107.599 160.55 108.357 160.55 109.735C160.55 111.348 159.429 112.354 157.658 112.354H153.893V102.9H157.63C159.263 102.9 160.204 103.906 160.204 105.256C160.204 106.552 159.388 107.186 158.931 107.351V107.379ZM158.972 105.436C158.972 104.485 158.364 103.961 157.395 103.961H155.111V106.965H157.381C158.46 106.965 158.972 106.304 158.972 105.436ZM157.63 111.306C158.654 111.306 159.318 110.755 159.318 109.639C159.318 108.509 158.64 107.958 157.547 107.958H155.111V111.306H157.63Z" fill="white"/>
<path d="M166.378 105.601H167.596V112.354H166.447L166.392 111.362C165.977 111.982 165.271 112.423 164.302 112.423C162.821 112.423 161.908 111.486 161.908 110.011V105.601H163.139V109.832C163.139 110.824 163.679 111.389 164.662 111.389C165.644 111.389 166.378 110.7 166.378 109.529V105.601Z" fill="white"/>
<path d="M170.25 107.434C170.25 108.977 174.277 107.806 174.277 110.521C174.277 111.637 173.309 112.423 171.565 112.423C169.696 112.423 168.894 111.679 168.866 110.369L169.987 110.383C170.056 111.031 170.471 111.389 171.579 111.389C172.63 111.389 173.073 111.031 173.073 110.521C173.073 108.95 169.046 110.066 169.046 107.434C169.046 106.318 170.001 105.532 171.648 105.532C173.281 105.532 174.125 106.276 174.18 107.586L173.046 107.572C172.99 106.91 172.478 106.566 171.62 106.566C170.693 106.566 170.25 106.896 170.25 107.434Z" fill="white"/>
<path d="M177.083 103.396C177.083 103.878 176.709 104.223 176.238 104.223C175.768 104.223 175.394 103.878 175.394 103.396C175.394 102.927 175.768 102.569 176.238 102.569C176.709 102.569 177.083 102.927 177.083 103.396ZM175.588 112.354V105.601H176.82V112.354H175.588Z" fill="white"/>
<path d="M181.945 105.532C183.44 105.532 184.395 106.442 184.395 108.095V112.354H183.163V108.343C183.163 107.2 182.623 106.566 181.613 106.566C180.52 106.566 179.786 107.282 179.786 108.426V112.354H178.568V105.601H179.717L179.772 106.607C180.201 105.987 180.921 105.532 181.945 105.532Z" fill="white"/>
<path d="M191.973 108.991V109.294H186.907C187.004 110.576 187.738 111.389 188.928 111.389C190.118 111.389 190.575 110.769 190.7 110.218H191.931C191.668 111.444 190.727 112.423 188.914 112.423C186.797 112.423 185.648 110.976 185.648 108.991C185.648 106.965 186.99 105.532 188.886 105.532C190.783 105.532 191.973 106.814 191.973 108.991ZM188.9 106.566C187.862 106.566 187.129 107.269 186.935 108.399H190.741C190.589 107.186 189.924 106.566 188.9 106.566Z" fill="white"/>
<path d="M194.215 107.434C194.215 108.977 198.242 107.806 198.242 110.521C198.242 111.637 197.273 112.423 195.529 112.423C193.661 112.423 192.858 111.679 192.83 110.369L193.952 110.383C194.021 111.031 194.436 111.389 195.543 111.389C196.595 111.389 197.038 111.031 197.038 110.521C197.038 108.95 193.01 110.066 193.01 107.434C193.01 106.318 193.965 105.532 195.612 105.532C197.246 105.532 198.09 106.276 198.145 107.586L197.01 107.572C196.955 106.91 196.443 106.566 195.585 106.566C194.657 106.566 194.215 106.896 194.215 107.434Z" fill="white"/>
<path d="M200.466 107.434C200.466 108.977 204.493 107.806 204.493 110.521C204.493 111.637 203.525 112.423 201.781 112.423C199.912 112.423 199.11 111.679 199.082 110.369L200.203 110.383C200.272 111.031 200.687 111.389 201.795 111.389C202.846 111.389 203.289 111.031 203.289 110.521C203.289 108.95 199.262 110.066 199.262 107.434C199.262 106.318 200.217 105.532 201.864 105.532C203.497 105.532 204.341 106.276 204.396 107.586L203.262 107.572C203.206 106.91 202.694 106.566 201.836 106.566C200.909 106.566 200.466 106.896 200.466 107.434Z" fill="white"/>
<path d="M216.066 102.9H218.017L218.003 112.354H216.827V103.961L214.031 112.354H212.938L210.142 104.002V112.354H208.966L208.952 102.9H210.89L213.478 110.879L216.066 102.9Z" fill="white"/>
<path d="M226.087 111.251L226.184 112.312C225.949 112.381 225.7 112.423 225.409 112.423C224.703 112.423 224.233 111.982 224.15 111.32C223.9 111.706 223.278 112.423 221.769 112.423C220.233 112.423 219.472 111.665 219.472 110.59C219.472 109.129 220.828 108.523 222.71 108.523H224.136V108.082C224.136 107.145 223.554 106.566 222.461 106.566C221.492 106.566 220.897 107.02 220.814 107.834H219.624C219.735 106.373 220.883 105.532 222.544 105.532C224.33 105.532 225.354 106.483 225.354 108.109V110.865C225.354 111.155 225.52 111.32 225.741 111.32C225.866 111.32 225.949 111.306 226.087 111.251ZM222.018 111.444C223.388 111.444 224.136 110.493 224.136 109.873V109.405H222.641C221.368 109.405 220.717 109.79 220.717 110.535C220.717 111.1 221.105 111.444 222.018 111.444Z" fill="white"/>
<path d="M232.203 105.601H233.352V112.492C233.352 114.063 232.203 115.248 230.086 115.248C228.245 115.248 227.193 114.504 227.027 113.084H228.245C228.397 113.897 228.978 114.214 230.072 114.214C231.497 114.214 232.134 113.429 232.134 112.492V111.32C231.733 111.968 231.027 112.423 229.933 112.423C228.065 112.423 226.792 111.045 226.792 108.964C226.792 106.91 228.065 105.532 229.933 105.532C231.041 105.532 231.746 106.001 232.148 106.662L232.203 105.601ZM230.016 111.389C231.47 111.389 232.134 110.135 232.134 109.115V108.84C232.134 107.82 231.47 106.566 230.016 106.566C228.826 106.566 228.037 107.53 228.037 108.964C228.037 110.424 228.826 111.389 230.016 111.389Z" fill="white"/>
<path d="M241.253 111.251L241.349 112.312C241.114 112.381 240.865 112.423 240.574 112.423C239.869 112.423 239.398 111.982 239.315 111.32C239.066 111.706 238.443 112.423 236.934 112.423C235.398 112.423 234.637 111.665 234.637 110.59C234.637 109.129 235.993 108.523 237.876 108.523H239.301V108.082C239.301 107.145 238.72 106.566 237.626 106.566C236.658 106.566 236.062 107.02 235.979 107.834H234.789C234.9 106.373 236.049 105.532 237.709 105.532C239.495 105.532 240.519 106.483 240.519 108.109V110.865C240.519 111.155 240.685 111.32 240.907 111.32C241.031 111.32 241.114 111.306 241.253 111.251ZM237.184 111.444C238.554 111.444 239.301 110.493 239.301 109.873V109.405H237.806C236.533 109.405 235.883 109.79 235.883 110.535C235.883 111.1 236.27 111.444 237.184 111.444Z" fill="white"/>
<path d="M243.383 111.334H247.216V112.354H241.888V111.362L245.625 106.621H241.985V105.601H247.106V106.579L243.383 111.334Z" fill="white"/>
<path d="M249.956 103.396C249.956 103.878 249.582 104.223 249.112 104.223C248.641 104.223 248.268 103.878 248.268 103.396C248.268 102.927 248.641 102.569 249.112 102.569C249.582 102.569 249.956 102.927 249.956 103.396ZM248.461 112.354V105.601H249.693V112.354H248.461Z" fill="white"/>
<path d="M254.819 105.532C256.314 105.532 257.269 106.442 257.269 108.095V112.354H256.037V108.343C256.037 107.2 255.497 106.566 254.487 106.566C253.393 106.566 252.66 107.282 252.66 108.426V112.354H251.442V105.601H252.591L252.646 106.607C253.075 105.987 253.795 105.532 254.819 105.532Z" fill="white"/>
<path d="M264.846 108.991V109.294H259.781C259.878 110.576 260.611 111.389 261.802 111.389C262.992 111.389 263.449 110.769 263.573 110.218H264.805C264.542 111.444 263.601 112.423 261.788 112.423C259.67 112.423 258.521 110.976 258.521 108.991C258.521 106.965 259.864 105.532 261.76 105.532C263.656 105.532 264.846 106.814 264.846 108.991ZM261.774 106.566C260.736 106.566 260.002 107.269 259.809 108.399H263.615C263.462 107.186 262.798 106.566 261.774 106.566Z" fill="white"/>
<path d="M275.949 125.191C288.576 124.962 301.099 120.055 309.288 110.472C314.502 104.371 317.994 97.1816 319.603 89.375C321.211 81.5692 321.116 73.4004 318.746 65.7496C315.952 56.7318 311.436 49.6675 304.886 44.3922L304.943 44.34C312.231 50.1052 317.114 57.4118 319.615 65.484C322.031 73.2804 322.494 81.64 320.855 89.5923C319.216 97.543 315.825 105.27 310.51 111.49C301.629 121.884 288.854 127.208 275.985 127.461C275.721 127.466 275.492 127.375 275.303 127.191C275.114 127.008 275.019 126.781 275.019 126.518V126.135C275.019 125.621 275.434 125.201 275.95 125.192L275.949 125.191ZM325.617 50.2322C325.838 51.846 325.892 53.3671 325.668 54.7761C325.444 56.1843 324.934 57.4982 324.024 58.7078C323.186 59.8208 322.004 60.8536 320.389 61.7976C319.494 60.1573 319.017 58.6665 318.876 57.2856C318.723 55.7816 318.968 54.3929 319.506 53.0711C320.044 51.7463 320.878 50.4705 321.902 49.204C322.749 48.1565 323.729 47.1128 324.782 46.0527C325.135 47.5061 325.434 48.9034 325.616 50.2314L325.617 50.2322ZM312.127 35.3721C312.696 36.7281 313.096 38.0413 313.228 39.3171C313.359 40.5913 313.221 41.8515 312.711 43.1125C312.246 44.2598 311.47 45.4164 310.306 46.5972C309.169 45.3907 308.42 44.2154 307.982 43.0572C307.5 41.7838 307.391 40.5204 307.551 39.2493C307.711 37.9782 308.142 36.6767 308.741 35.3347C309.225 34.2498 309.82 33.1399 310.473 32.0004C311.099 33.1523 311.667 34.2739 312.128 35.3713L312.127 35.3721ZM296.126 49.1573C295.126 48.5116 294.117 47.753 293.089 46.9329C294.333 46.4959 295.536 46.1112 296.69 45.8315C298.122 45.4849 299.488 45.2965 300.78 45.3666C302.064 45.4359 303.291 45.7685 304.462 46.4671C305.527 47.1027 306.555 48.0466 307.543 49.3754C306.168 50.3061 304.886 50.8599 303.67 51.1099C302.332 51.3857 301.062 51.2953 299.826 50.9394C298.588 50.5826 297.363 49.9557 296.126 49.1573ZM333.507 89.2753C332.601 90.7061 331.622 91.9523 330.496 92.9251C329.372 93.8963 328.082 94.6043 326.544 94.9603C325.12 95.2897 323.477 95.3232 321.548 94.9945C321.936 93.0785 322.559 91.5636 323.378 90.3642C324.265 89.065 325.392 88.1233 326.708 87.4294C328.025 86.7354 329.546 86.2759 331.216 85.9503C332.607 85.6793 334.102 85.5009 335.667 85.3584C334.968 86.7611 334.262 88.0844 333.508 89.2761L333.507 89.2753ZM333.549 69.6813C333.049 71.271 332.436 72.701 331.616 73.9035C330.797 75.1053 329.752 76.0999 328.377 76.8259C327.113 77.4949 325.564 77.9389 323.654 78.1118C323.539 76.2035 323.749 74.6123 324.223 73.2664C324.738 71.8076 325.568 70.6299 326.641 69.6423C327.71 68.6571 329.038 67.8393 330.545 67.1087C331.794 66.5027 333.162 65.9599 334.604 65.4333C334.297 66.9334 333.963 68.3627 333.549 69.6813ZM308.706 70.6518C308.261 69.3464 307.892 67.9257 307.549 66.4318C309.008 66.9249 310.389 67.435 311.645 68.0075C313.16 68.6984 314.506 69.4842 315.609 70.4524C316.705 71.4151 317.566 72.5724 318.114 74.0157C318.62 75.3483 318.867 76.9333 318.799 78.8447C316.884 78.7177 315.326 78.3112 314.047 77.6733C312.66 76.9824 311.591 76.0119 310.742 74.828C309.891 73.6426 309.242 72.2282 308.706 70.6518ZM304.285 57.9873C303.542 56.858 302.847 55.6095 302.159 54.2877C303.656 54.4007 305.085 54.5479 306.408 54.7839C308.013 55.0697 309.481 55.488 310.764 56.1375C312.04 56.7824 313.138 57.6696 314.014 58.9049C314.821 60.042 315.444 61.4798 315.849 63.3C314.007 63.6419 312.434 63.6341 311.068 63.3413C309.585 63.0235 308.334 62.3638 307.237 61.4471C306.142 60.5311 305.179 59.3496 304.285 57.9873ZM312.745 126.679C310.991 127.363 309.293 127.834 307.641 127.964C305.99 128.093 304.369 127.878 302.761 127.184C301.263 126.538 299.762 125.472 298.242 123.88C299.867 122.4 301.44 121.442 302.984 120.9C304.639 120.32 306.271 120.218 307.909 120.463C309.544 120.707 311.205 121.296 312.906 122.101C314.357 122.787 315.835 123.629 317.354 124.548C315.773 125.36 314.238 126.096 312.746 126.678L312.745 126.679ZM327.145 109.36C325.798 110.545 324.433 111.521 322.998 112.176C321.566 112.83 320.044 113.166 318.371 113.07C316.823 112.981 315.135 112.521 313.26 111.602C314.228 109.756 315.317 108.393 316.514 107.41C317.805 106.35 319.233 105.727 320.776 105.412C322.322 105.096 324.004 105.082 325.794 105.246C327.302 105.385 328.892 105.653 330.545 105.977C329.404 107.21 328.281 108.359 327.145 109.36ZM304.894 94.5023C305.388 93.0707 306.024 91.5979 306.73 90.0806C307.66 91.4717 308.515 92.83 309.223 94.1705C310.061 95.7539 310.69 97.3054 310.989 98.8484C311.288 100.391 311.256 101.944 310.767 103.536C310.314 105.015 309.465 106.538 308.125 108.133C306.554 106.76 305.481 105.384 304.806 103.992C304.078 102.491 303.807 100.962 303.865 99.3936C303.923 97.8288 304.308 96.1979 304.894 94.5023ZM309.02 82.9594C308.959 81.5544 309.006 80.055 309.098 78.4887C310.387 79.3868 311.595 80.2786 312.664 81.1992C313.949 82.3036 315.04 83.4548 315.841 84.7119C316.637 85.9628 317.147 87.3382 317.271 88.9077C317.384 90.3579 317.172 91.9795 316.557 93.8293C314.713 93.1611 313.303 92.323 312.234 91.3377C311.076 90.266 310.308 89.0151 309.816 87.6171C309.324 86.2159 309.094 84.6496 309.02 82.9594ZM296.905 104.867C297.985 103.697 299.232 102.537 300.568 101.359C300.88 103.101 301.134 104.778 301.253 106.371C301.392 108.245 301.344 109.999 300.983 111.605C300.621 113.21 299.936 114.688 298.793 116.015C297.729 117.251 296.263 118.365 294.288 119.34C293.347 117.355 292.891 115.576 292.827 113.95C292.758 112.204 293.141 110.623 293.859 109.139C294.573 107.656 295.629 106.251 296.905 104.867ZM292.66 34.8324C294.159 34.957 295.542 35.214 296.768 35.6969C297.992 36.1782 299.075 36.8956 299.982 37.9486C300.812 38.9121 301.502 40.1614 302.029 41.7721C300.392 42.2324 298.965 42.3562 297.698 42.2067C296.312 42.0423 295.112 41.547 294.031 40.8047C292.947 40.0601 291.964 39.0593 291.025 37.8879C290.26 36.9337 289.526 35.8698 288.794 34.7397C290.14 34.7171 291.434 34.7311 292.66 34.8324Z" fill="white"/>
</svg>
