<svg width="358" height="160" viewBox="0 0 358 160" fill="none" xmlns="http://www.w3.org/2000/svg">
<path d="M82.1672 125.192C69.5858 124.962 57.108 120.056 48.9487 110.473C43.7542 104.372 40.2751 97.182 38.6719 89.3754C37.0696 81.5696 37.1639 73.4008 39.5254 65.7499C42.3093 56.7322 46.8086 49.6679 53.3351 44.3926L53.2782 44.3404C46.016 50.1056 41.1511 57.4122 38.6595 65.4843C36.252 73.2808 35.7914 81.6404 37.4242 89.5927C39.0562 97.5434 42.4355 105.271 47.7306 111.491C56.5804 121.885 69.3083 127.208 82.1305 127.461C82.394 127.467 82.6215 127.376 82.8101 127.192C82.9988 127.008 83.0931 126.781 83.0931 126.518V126.136C83.0931 125.622 82.68 125.202 82.1664 125.192L82.1672 125.192ZM32.6793 50.2318C32.4588 51.8456 32.405 53.3667 32.6287 54.7757C32.8516 56.1839 33.3597 57.4978 34.2669 58.7074C35.1016 59.8204 36.2793 60.8532 37.8887 61.7972C38.7803 60.1569 39.2565 58.6661 39.396 57.2852C39.548 55.7812 39.304 54.3925 38.7686 53.0707C38.2316 51.7459 37.4008 50.4701 36.3798 49.2037C35.5357 48.1561 34.56 47.1124 33.5109 46.0524C33.1587 47.5057 32.8609 48.9038 32.6793 50.2318ZM46.1204 35.3717C45.5538 36.7277 45.1548 38.0409 45.0238 39.3167C44.8929 40.5909 45.0301 41.8511 45.539 43.1121C46.0019 44.2594 46.7751 45.416 47.9356 46.5968C49.068 45.3903 49.8146 44.215 50.2511 43.0568C50.7312 41.7834 50.8403 40.52 50.6805 39.2489C50.5207 37.9778 50.0921 36.6763 49.4951 35.3343C49.0119 34.2494 48.4196 33.1395 47.7688 32C47.1453 33.1519 46.5795 34.2743 46.1204 35.3717ZM62.0633 49.1569C63.0601 48.5112 64.0647 47.7526 65.0896 46.9325C63.8496 46.4955 62.6517 46.1108 61.5013 45.8312C60.0743 45.4846 58.7135 45.2961 57.426 45.3662C56.147 45.4355 54.9242 45.7681 53.7575 46.4667C52.696 47.1023 51.6727 48.0463 50.6867 49.375C52.0569 50.3058 53.3343 50.8595 54.5462 51.1095C55.8797 51.3853 57.1446 51.2949 58.376 50.939C59.6098 50.5823 60.8311 49.9553 62.0633 49.1569ZM24.8178 89.2757C25.7203 90.7065 26.6961 91.9526 27.8176 92.9255C28.9376 93.8967 30.2228 94.6047 31.7558 94.9606C33.1742 95.2901 34.8117 95.3236 36.7336 94.9949C36.3471 93.0789 35.7267 91.564 34.9099 90.3645C34.0261 89.0654 32.903 88.1237 31.5921 87.4298C30.2804 86.7358 28.7646 86.2763 27.1014 85.9507C25.7157 85.6796 24.2263 85.5013 22.6667 85.3587C23.3627 86.7615 24.0665 88.084 24.8178 89.2757ZM24.7765 69.6817C25.2737 71.2713 25.8848 72.7014 26.7023 73.9039C27.5183 75.1057 28.5596 76.1003 29.9282 76.8262C31.1884 77.4953 32.7316 77.9392 34.6348 78.1122C34.7486 76.2039 34.5397 74.6127 34.0674 73.2668C33.5546 71.808 32.7269 70.6303 31.6591 69.6427C30.5937 68.6575 29.2704 67.8397 27.7701 67.1091C26.5246 66.5031 25.1623 65.9602 23.7251 65.4337C24.0314 66.9338 24.3634 68.363 24.7765 69.6817ZM49.5294 70.6521C49.9728 69.3468 50.3399 67.9261 50.6821 66.4322C49.2285 66.9253 47.8522 67.4354 46.6005 68.0079C45.0909 68.6987 43.7496 69.4846 42.6514 70.4528C41.5587 71.4154 40.7014 72.5728 40.1551 74.0161C39.6508 75.3487 39.4046 76.9337 39.4724 78.8451C41.381 78.7181 42.9328 78.3115 44.2078 77.6737C45.5889 76.9828 46.6543 76.0123 47.5007 74.8284C48.3486 73.643 48.9947 72.2286 49.5294 70.6521ZM53.9344 57.9877C54.674 56.8584 55.3669 55.6098 56.0519 54.2881C54.5602 54.401 53.1371 54.5483 51.8176 54.7843C50.2191 55.0701 48.7562 55.4883 47.4781 56.1379C46.2061 56.7828 45.1111 57.67 44.239 58.9052C43.4355 60.0424 42.8151 61.4802 42.4114 63.3004C44.2468 63.6423 45.8141 63.6345 47.1749 63.3417C48.6526 63.0239 49.8988 62.3642 50.9915 61.4475C52.0834 60.5315 53.042 59.35 53.9344 57.9877ZM45.5047 126.679C47.2521 127.363 48.9441 127.834 50.5901 127.964C52.2354 128.094 53.8502 127.879 55.4526 127.185C56.9451 126.538 58.4407 125.473 59.955 123.88C58.3355 122.4 56.7682 121.442 55.2305 120.901C53.5813 120.321 51.9548 120.219 50.3236 120.463C48.6939 120.707 47.0393 121.297 45.3442 122.101C43.8984 122.787 42.4254 123.629 40.9126 124.548C42.4885 125.36 44.0169 126.097 45.5039 126.679L45.5047 126.679ZM31.1572 109.36C32.4985 110.546 33.8593 111.522 35.2887 112.177C36.7157 112.83 38.2324 113.166 39.8987 113.07C41.4418 112.981 43.1229 112.522 44.9911 111.603C44.027 109.756 42.9421 108.393 41.7497 107.411C40.4629 106.351 39.0406 105.727 37.5029 105.412C35.9621 105.097 34.2864 105.082 32.5024 105.246C30.9998 105.385 29.4161 105.653 27.7685 105.978C28.9048 107.21 30.0248 108.36 31.1572 109.36ZM53.3273 94.5027C52.8347 93.0711 52.2011 91.5983 51.4981 90.081C50.5714 91.4721 49.7195 92.8304 49.0134 94.1709C48.1787 95.7543 47.5521 97.3058 47.2544 98.8488C46.9567 100.392 46.9886 101.945 47.4757 103.537C47.927 105.015 48.7726 106.539 50.1077 108.134C51.6734 106.76 52.742 105.384 53.4146 103.992C54.1402 102.492 54.4098 100.963 54.3521 99.394C54.2945 97.8292 53.911 96.1983 53.3273 94.5027ZM49.2161 82.9598C49.2769 81.5548 49.2309 80.0554 49.1381 78.4891C47.8545 79.3872 46.6504 80.279 45.5842 81.1996C44.3045 82.304 43.2172 83.4552 42.4199 84.7123C41.6265 85.9632 41.1184 87.3386 40.9953 88.9081C40.8822 90.3583 41.0935 91.9799 41.7068 93.8297C43.5438 93.1615 44.949 92.3234 46.0136 91.3381C47.1679 90.2664 47.9332 89.0155 48.4227 87.6175C48.9137 86.2163 49.1428 84.65 49.2161 82.9598ZM61.287 104.868C60.2107 103.697 58.9691 102.537 57.6372 101.359C57.3262 103.101 57.0729 104.778 56.9552 106.371C56.8165 108.245 56.8641 110 57.2241 111.605C57.5842 113.21 58.2677 114.689 59.4064 116.016C60.4663 117.252 61.9269 118.366 63.8948 119.341C64.8331 117.355 65.2867 115.577 65.3506 113.95C65.4192 112.205 65.0373 110.623 64.3227 109.139C63.6103 107.656 62.5589 106.251 61.287 104.868ZM65.5167 34.8327C64.0234 34.9574 62.6454 35.2144 61.4234 35.6973C60.2037 36.1786 59.125 36.896 58.2217 37.949C57.3948 38.9125 56.7058 40.1618 56.1813 41.7725C57.8125 42.2328 59.2341 42.3566 60.4967 42.2071C61.8778 42.0427 63.0741 41.5474 64.1512 40.8051C65.2298 40.0605 66.2103 39.0597 67.1463 37.8882C67.9085 36.9341 68.6396 35.8702 69.3699 34.7401C68.0286 34.7175 66.7395 34.7323 65.5174 34.8335L65.5167 34.8327Z" fill="white"/>
<path d="M168.162 61.9982H178.592C181.129 61.9982 184.475 61.9982 186.203 63.0467C188.098 64.1735 189.585 66.2237 189.585 69.0459C189.585 72.1029 187.978 74.3982 185.315 75.4833V75.5667C188.86 76.2919 190.791 78.9471 190.791 82.4893C190.791 86.7148 187.769 90.742 182.053 90.742H168.162V61.9982ZM171.989 74.3513H179.646C183.995 74.3513 185.77 72.7811 185.77 69.7606C185.77 65.7751 182.951 65.2117 179.646 65.2117H171.989V74.3513ZM171.989 87.5129H181.578C184.877 87.5129 186.975 85.4993 186.975 82.3641C186.975 78.6185 183.953 77.5752 180.732 77.5752H171.989V87.5129Z" fill="white"/>
<path d="M200.579 76.3757C200.579 88.4471 190.787 98.2335 178.702 98.2335C166.618 98.2335 156.83 88.4471 156.83 76.3757C156.83 64.3043 166.623 54.5179 178.702 54.5179C190.787 54.5179 200.579 64.3095 200.579 76.3757ZM178.707 51.1896C164.796 51.1896 153.515 62.4628 153.515 76.3653C153.515 90.2677 164.796 101.541 178.707 101.541C192.619 101.541 203.904 90.2677 203.904 76.3653C203.904 62.4628 192.624 51.1896 178.707 51.1896Z" fill="white"/>
<path d="M203.844 106.855H153.559V110.157H203.844V106.855Z" fill="white"/>
<path d="M202.27 103.219C202.333 103.219 202.39 103.219 202.448 103.219C202.5 103.219 202.552 103.203 202.594 103.188C202.641 103.167 202.672 103.135 202.698 103.099C202.724 103.057 202.735 103.005 202.735 102.937C202.735 102.88 202.724 102.828 202.704 102.796C202.683 102.76 202.651 102.734 202.615 102.718C202.578 102.697 202.542 102.687 202.49 102.676C202.443 102.676 202.401 102.676 202.349 102.676H201.988V103.235H202.27V103.219ZM202.39 102.436C202.599 102.436 202.751 102.478 202.855 102.562C202.954 102.645 203.006 102.77 203.006 102.942C203.006 103.104 202.959 103.214 202.876 103.292C202.787 103.365 202.677 103.407 202.542 103.422L203.043 104.194H202.751L202.27 103.438H201.983V104.194H201.706V102.442H202.39V102.436ZM201.158 103.819C201.216 103.975 201.305 104.116 201.419 104.231C201.529 104.346 201.66 104.434 201.811 104.502C201.957 104.565 202.124 104.596 202.296 104.596C202.469 104.596 202.636 104.565 202.782 104.502C202.933 104.434 203.064 104.346 203.173 104.231C203.283 104.116 203.372 103.981 203.429 103.819C203.492 103.662 203.528 103.495 203.528 103.313C203.528 103.13 203.497 102.963 203.429 102.807C203.366 102.65 203.278 102.515 203.173 102.4C203.058 102.285 202.928 102.196 202.782 102.134C202.636 102.071 202.469 102.035 202.296 102.035C202.124 102.035 201.957 102.071 201.811 102.134C201.66 102.202 201.524 102.29 201.419 102.4C201.305 102.515 201.221 102.65 201.158 102.807C201.096 102.963 201.064 103.125 201.064 103.313C201.064 103.49 201.091 103.662 201.158 103.819ZM200.908 102.718C200.986 102.536 201.096 102.384 201.231 102.249C201.367 102.113 201.529 102.014 201.712 101.936C201.894 101.857 202.093 101.821 202.291 101.821C202.5 101.821 202.693 101.857 202.881 101.936C203.058 102.014 203.22 102.113 203.351 102.249C203.487 102.384 203.601 102.541 203.674 102.718C203.758 102.901 203.795 103.099 203.795 103.313C203.795 103.527 203.758 103.725 203.674 103.908C203.596 104.095 203.487 104.252 203.351 104.387C203.215 104.528 203.058 104.627 202.881 104.706C202.693 104.779 202.5 104.815 202.291 104.815C202.082 104.815 201.894 104.779 201.712 104.706C201.529 104.627 201.367 104.528 201.231 104.387C201.096 104.252 200.986 104.095 200.908 103.908C200.824 103.725 200.793 103.527 200.793 103.313C200.788 103.099 200.824 102.901 200.908 102.718Z" fill="white"/>
<path d="M159.661 40.1179C159.541 39.9249 159.394 39.758 159.217 39.6171C159.039 39.4711 158.836 39.3615 158.611 39.278C158.387 39.1998 158.152 39.1581 157.907 39.1581C157.458 39.1581 157.077 39.2467 156.758 39.4189C156.445 39.591 156.189 39.8258 155.996 40.1179C155.803 40.4101 155.657 40.7439 155.568 41.1195C155.479 41.4951 155.432 41.8812 155.432 42.2776C155.432 42.6741 155.474 43.0288 155.568 43.3888C155.657 43.7487 155.798 44.0722 155.996 44.3643C156.189 44.6512 156.445 44.886 156.758 45.0581C157.071 45.2303 157.453 45.3189 157.907 45.3189C158.517 45.3189 158.998 45.1311 159.337 44.7608C159.682 44.3852 159.89 43.8948 159.969 43.2844H161.905C161.853 43.8531 161.723 44.3643 161.509 44.8234C161.294 45.2824 161.018 45.6737 160.668 45.9919C160.318 46.3153 159.911 46.5605 159.447 46.7327C158.982 46.8996 158.465 46.9883 157.907 46.9883C157.212 46.9883 156.586 46.8683 156.027 46.6231C155.469 46.3831 155.004 46.0493 154.618 45.6215C154.237 45.199 153.945 44.6982 153.741 44.1243C153.538 43.5505 153.428 42.9349 153.428 42.2724C153.428 41.6099 153.527 40.963 153.736 40.384C153.939 39.8049 154.232 39.2937 154.613 38.8659C154.994 38.4329 155.464 38.0939 156.022 37.8487C156.576 37.6035 157.202 37.4783 157.901 37.4783C158.403 37.4783 158.878 37.5513 159.321 37.6922C159.765 37.8382 160.167 38.0469 160.517 38.3234C160.866 38.5999 161.159 38.939 161.388 39.3459C161.618 39.7528 161.764 40.2223 161.822 40.7439H159.885C159.849 40.5144 159.775 40.3057 159.655 40.1179H159.661Z" fill="white"/>
<path d="M164.51 45.199C164.782 45.4598 165.173 45.5955 165.68 45.5955C166.045 45.5955 166.358 45.5068 166.625 45.3242C166.886 45.1416 167.047 44.9486 167.11 44.7451H168.702C168.446 45.5329 168.055 46.1015 167.528 46.4406C167 46.7796 166.364 46.9518 165.617 46.9518C165.1 46.9518 164.631 46.8683 164.218 46.7014C163.801 46.5345 163.451 46.2997 163.158 45.9971C162.871 45.6946 162.647 45.3294 162.49 44.9016C162.334 44.4791 162.255 44.0096 162.255 43.5036C162.255 42.9976 162.334 42.5541 162.496 42.1316C162.657 41.709 162.887 41.3387 163.185 41.0309C163.482 40.7231 163.837 40.4779 164.249 40.3005C164.662 40.1232 165.116 40.0345 165.617 40.0345C166.176 40.0345 166.666 40.144 167.084 40.3579C167.502 40.577 167.841 40.8639 168.107 41.2291C168.373 41.5943 168.566 42.0116 168.687 42.4759C168.807 42.9402 168.848 43.4305 168.812 43.9418H164.062C164.088 44.5104 164.234 44.9382 164.51 45.199ZM166.552 41.7403C166.332 41.5056 166.003 41.3856 165.565 41.3856C165.278 41.3856 165.038 41.4326 164.845 41.5317C164.651 41.6308 164.5 41.7508 164.385 41.8916C164.27 42.0377 164.192 42.189 164.145 42.3507C164.098 42.5124 164.072 42.6533 164.062 42.7837H167.006C166.922 42.3246 166.771 41.9751 166.552 41.7403Z" fill="white"/>
<path d="M171.349 40.1942V41.4149H171.375C171.459 41.2115 171.574 41.0237 171.72 40.8463C171.866 40.6741 172.028 40.5229 172.216 40.4029C172.404 40.2829 172.602 40.1838 172.816 40.116C173.03 40.0481 173.249 40.0168 173.479 40.0168C173.599 40.0168 173.729 40.0377 173.876 40.0794V41.7592C173.792 41.7436 173.688 41.7279 173.568 41.7175C173.448 41.707 173.333 41.6966 173.223 41.6966C172.894 41.6966 172.612 41.754 172.383 41.8635C172.153 41.9731 171.97 42.1244 171.829 42.3174C171.688 42.5104 171.589 42.7295 171.532 42.9851C171.474 43.2407 171.443 43.5172 171.443 43.8146V46.7829H169.637V40.1942H171.349Z" fill="white"/>
<path d="M178.708 40.1971V41.4074H177.383V44.6678C177.383 44.9756 177.435 45.1791 177.534 45.2782C177.633 45.3773 177.842 45.4295 178.145 45.4295C178.249 45.4295 178.343 45.4295 178.437 45.419C178.531 45.4086 178.62 45.3982 178.703 45.3825V46.7806C178.552 46.8067 178.38 46.8223 178.192 46.8327C178.004 46.8432 177.821 46.8484 177.644 46.8484C177.362 46.8484 177.095 46.8275 176.85 46.791C176.6 46.7545 176.38 46.6815 176.187 46.5667C175.994 46.4571 175.848 46.3006 175.733 46.0972C175.623 45.8937 175.566 45.6277 175.566 45.2938V41.4126H174.47V40.2024H175.566V38.2305H177.372V40.2024H178.708V40.1971Z" fill="white"/>
<path d="M179.762 39.178V37.6861H181.568V39.178H179.762ZM181.568 40.1953V46.7735H179.762V40.1953H181.568Z" fill="white"/>
<path d="M182.287 40.1953H183.368V39.684C183.368 39.0998 183.551 38.6198 183.916 38.2442C184.281 37.8686 184.835 37.6861 185.571 37.6861C185.733 37.6861 185.894 37.6913 186.056 37.7069C186.218 37.7174 186.375 37.733 186.526 37.7382V39.0893C186.312 39.0633 186.093 39.0528 185.863 39.0528C185.618 39.0528 185.44 39.1102 185.336 39.225C185.231 39.3397 185.179 39.5328 185.179 39.804V40.2005H186.427V41.4108H185.179V46.7839H183.368V41.4108H182.287V40.1953Z" fill="white"/>
<path d="M187.651 39.178V37.6861H189.457V39.178H187.651ZM189.462 40.1953V46.7735H187.651V40.1953H189.462Z" fill="white"/>
<path d="M192.311 45.1977C192.582 45.4585 192.974 45.5941 193.48 45.5941C193.846 45.5941 194.159 45.5054 194.425 45.3229C194.686 45.1403 194.848 44.9473 194.911 44.7438H196.503C196.247 45.5315 195.855 46.1001 195.333 46.4392C194.806 46.7783 194.169 46.9505 193.423 46.9505C192.906 46.9505 192.436 46.867 192.024 46.7001C191.606 46.5331 191.257 46.2984 190.964 45.9958C190.677 45.6932 190.453 45.3281 190.296 44.9003C190.139 44.4778 190.061 44.0083 190.061 43.5022C190.061 42.9962 190.145 42.5528 190.301 42.1303C190.463 41.6921 190.693 41.3269 190.99 41.0191C191.288 40.7113 191.643 40.4661 192.055 40.2888C192.468 40.1114 192.922 40.0227 193.423 40.0227C193.981 40.0227 194.472 40.1323 194.89 40.3462C195.307 40.5653 195.647 40.8522 195.913 41.2173C196.179 41.5825 196.372 41.9998 196.492 42.4641C196.612 42.9284 196.654 43.4188 196.623 43.93H191.872C191.893 44.5091 192.04 44.9368 192.311 45.1977ZM194.357 41.739C194.143 41.5043 193.809 41.3843 193.371 41.3843C193.083 41.3843 192.843 41.4312 192.65 41.5303C192.457 41.6295 192.306 41.7494 192.191 41.8903C192.076 42.0364 191.998 42.1876 191.951 42.3494C191.904 42.5111 191.878 42.6519 191.867 42.7823H194.806C194.723 42.3233 194.571 41.9738 194.357 41.739Z" fill="white"/>
<path d="M202.109 45.937C201.895 46.2917 201.618 46.5525 201.273 46.709C200.929 46.8655 200.543 46.9438 200.109 46.9438C199.619 46.9438 199.185 46.8499 198.81 46.6569C198.434 46.4638 198.126 46.2082 197.886 45.8796C197.645 45.5509 197.463 45.1753 197.337 44.7528C197.212 44.3302 197.155 43.8868 197.155 43.4277C197.155 42.9687 197.217 42.5618 197.337 42.1497C197.458 41.7375 197.645 41.3776 197.886 41.0594C198.126 40.7464 198.434 40.4908 198.794 40.303C199.159 40.1099 199.582 40.016 200.068 40.016C200.459 40.016 200.83 40.0995 201.179 40.2664C201.534 40.4334 201.811 40.6733 202.015 40.9968H202.041V37.6894H203.847V46.7768H202.129V45.937H202.109ZM202.03 42.6818C201.978 42.4314 201.895 42.2123 201.769 42.0192C201.644 41.8262 201.487 41.6749 201.289 41.555C201.096 41.435 200.845 41.3776 200.553 41.3776C200.261 41.3776 200.005 41.435 199.801 41.555C199.598 41.6749 199.436 41.8314 199.311 42.0245C199.191 42.2175 199.102 42.4418 199.044 42.6922C198.987 42.9426 198.961 43.2034 198.961 43.4747C198.961 43.7303 198.992 43.9859 199.05 44.2363C199.107 44.4919 199.206 44.7163 199.337 44.9197C199.467 45.1179 199.634 45.2797 199.833 45.4049C200.031 45.5301 200.271 45.5874 200.553 45.5874C200.851 45.5874 201.096 45.5301 201.299 45.4101C201.498 45.2901 201.66 45.1336 201.78 44.9301C201.9 44.7319 201.983 44.5024 202.036 44.252C202.088 43.9964 202.114 43.7355 202.114 43.4643C202.114 43.193 202.082 42.9322 202.03 42.6818Z" fill="white"/>
<path d="M157.974 116.643C157.886 116.007 157.275 115.521 156.575 115.521C155.312 115.521 154.837 116.596 154.837 117.718C154.837 118.839 155.312 119.856 156.575 119.856C157.437 119.856 157.922 119.267 158.027 118.422H159.394C159.248 120.018 158.147 121.041 156.575 121.041C154.592 121.041 153.428 119.559 153.428 117.718C153.428 115.876 154.592 114.337 156.575 114.337C157.985 114.337 159.165 115.161 159.337 116.643H157.974Z" fill="white"/>
<path d="M162.332 116.131C163.793 116.131 164.733 117.096 164.733 118.578C164.733 120.059 163.793 121.014 162.332 121.014C160.87 121.014 159.936 120.044 159.936 118.578C159.936 117.112 160.88 116.131 162.332 116.131ZM162.332 120.059C163.203 120.059 163.459 119.313 163.459 118.583C163.459 117.853 163.198 117.096 162.332 117.096C161.465 117.096 161.209 117.842 161.209 118.583C161.209 119.313 161.47 120.059 162.332 120.059Z" fill="white"/>
<path d="M165.523 116.251H166.734V117.112H166.755C166.984 116.528 167.616 116.126 168.237 116.126C168.326 116.126 168.436 116.142 168.514 116.168V117.352C168.394 117.326 168.206 117.31 168.054 117.31C167.12 117.31 166.796 117.983 166.796 118.797V120.884H165.523V116.251Z" fill="white"/>
<path d="M170.22 116.256V116.846H170.236C170.539 116.356 171.04 116.131 171.614 116.131C173.07 116.131 173.723 117.305 173.723 118.62C173.723 119.856 173.044 121.014 171.687 121.014C171.134 121.014 170.601 120.774 170.298 120.315H170.278V122.522H169.004V116.256H170.22ZM172.449 118.588C172.449 117.853 172.152 117.091 171.337 117.091C170.523 117.091 170.236 117.837 170.236 118.588C170.236 119.34 170.523 120.059 171.348 120.059C172.172 120.059 172.449 119.34 172.449 118.588Z" fill="white"/>
<path d="M176.515 116.131C177.977 116.131 178.922 117.096 178.922 118.578C178.922 120.059 177.977 121.014 176.515 121.014C175.054 121.014 174.125 120.044 174.125 118.578C174.125 117.102 175.064 116.131 176.515 116.131ZM176.515 120.059C177.387 120.059 177.648 119.313 177.648 118.583C177.648 117.853 177.387 117.096 176.515 117.096C175.644 117.096 175.393 117.842 175.393 118.583C175.398 119.313 175.659 120.059 176.515 120.059Z" fill="white"/>
<path d="M180.92 116.251V117.112H180.94C181.17 116.528 181.802 116.126 182.418 116.126C182.506 116.126 182.616 116.142 182.694 116.168V117.352C182.58 117.326 182.392 117.31 182.235 117.31C181.301 117.31 180.977 117.983 180.977 118.797V120.884H179.703V116.251H180.92Z" fill="white"/>
<path d="M183.073 117.681C183.146 116.486 184.211 116.131 185.255 116.131C186.179 116.131 187.291 116.335 187.291 117.446V119.856C187.291 120.279 187.332 120.696 187.453 120.889H186.158C186.116 120.743 186.074 120.592 186.069 120.44C185.667 120.863 185.077 121.014 184.508 121.014C183.631 121.014 182.932 120.576 182.932 119.626C182.932 118.578 183.72 118.327 184.508 118.218C185.291 118.103 186.017 118.129 186.017 117.608C186.017 117.06 185.636 116.982 185.192 116.982C184.707 116.982 184.394 117.18 184.347 117.681H183.073ZM186.012 118.625C185.793 118.813 185.349 118.823 184.952 118.896C184.555 118.974 184.2 119.11 184.2 119.579C184.2 120.049 184.566 120.169 184.983 120.169C185.975 120.169 186.017 119.381 186.017 119.105V118.625H186.012Z" fill="white"/>
<path d="M189.858 116.256H190.793V117.107H189.858V119.402C189.858 119.835 189.968 119.939 190.396 119.939C190.532 119.939 190.657 119.929 190.793 119.903V120.899C190.579 120.936 190.297 120.946 190.046 120.946C189.268 120.946 188.585 120.763 188.585 119.845V117.112H187.812V116.261H188.585V114.874H189.858V116.256Z" fill="white"/>
<path d="M193.025 115.541H191.751V114.493H193.025V115.541ZM191.751 116.256H193.025V120.888H191.751V116.256Z" fill="white"/>
<path d="M196.275 116.131C197.736 116.131 198.681 117.096 198.681 118.578C198.681 120.059 197.736 121.014 196.275 121.014C194.813 121.014 193.884 120.044 193.884 118.578C193.884 117.112 194.824 116.131 196.275 116.131ZM196.275 120.059C197.146 120.059 197.407 119.313 197.407 118.583C197.407 117.853 197.146 117.096 196.275 117.096C195.403 117.096 195.152 117.842 195.152 118.583C195.152 119.324 195.413 120.059 196.275 120.059Z" fill="white"/>
<path d="M199.501 116.256H200.712V116.903H200.738C201.062 116.382 201.615 116.131 202.158 116.131C203.51 116.131 203.855 116.893 203.855 118.041V120.889H202.581V118.27C202.581 117.508 202.357 117.133 201.767 117.133C201.072 117.133 200.78 117.519 200.78 118.463V120.894H199.506V116.256H199.501Z" fill="white"/>
<path d="M275.166 125.191C287.746 124.962 300.225 120.055 308.384 110.472C313.578 104.371 317.058 97.1816 318.661 89.375C320.263 81.5692 320.169 73.4004 317.807 65.7496C315.023 56.7318 310.524 49.6675 303.998 44.3922L304.055 44.34C311.316 50.1052 316.182 57.4118 318.673 65.484C321.081 73.2804 321.541 81.64 319.909 89.5923C318.276 97.543 314.897 105.27 309.601 111.49C300.752 121.884 288.024 127.208 275.201 127.461C274.938 127.466 274.71 127.375 274.522 127.191C274.334 127.008 274.239 126.781 274.239 126.518V126.135C274.239 125.621 274.652 125.201 275.166 125.192L275.166 125.191ZM324.653 50.2322C324.874 51.846 324.928 53.3671 324.704 54.7761C324.481 56.1843 323.973 57.4982 323.066 58.7078C322.231 59.8208 321.053 60.8536 319.444 61.7976C318.552 60.1573 318.077 58.6665 317.937 57.2856C317.785 55.7816 318.029 54.3929 318.564 53.0711C319.101 51.7463 319.931 50.4705 320.952 49.204C321.796 48.1565 322.772 47.1128 323.821 46.0527C324.173 47.5061 324.471 48.9034 324.653 50.2314L324.653 50.2322ZM311.212 35.3721C311.779 36.7281 312.178 38.0413 312.309 39.3171C312.44 40.5913 312.302 41.8515 311.794 43.1125C311.331 44.2598 310.558 45.4164 309.398 46.5972C308.266 45.3907 307.519 44.2154 307.082 43.0572C306.602 41.7838 306.493 40.5204 306.653 39.2493C306.813 37.9782 307.241 36.6767 307.838 35.3347C308.321 34.2498 308.914 33.1399 309.565 32.0004C310.188 33.1523 310.754 34.2739 311.213 35.3713L311.212 35.3721ZM295.269 49.1573C294.273 48.5116 293.268 47.753 292.243 46.9329C293.483 46.4959 294.681 46.1112 295.831 45.8315C297.258 45.4849 298.619 45.2965 299.907 45.3666C301.186 45.4359 302.409 45.7685 303.575 46.4671C304.637 47.1027 305.66 48.0466 306.645 49.3754C305.275 50.3061 303.998 50.8599 302.786 51.1099C301.453 51.3857 300.187 51.2953 298.956 50.9394C297.722 50.5826 296.502 49.9557 295.269 49.1573ZM332.515 89.2753C331.612 90.7061 330.637 91.9523 329.515 92.9251C328.395 93.8963 327.11 94.6043 325.577 94.9603C324.158 95.2897 322.521 95.3232 320.599 94.9945C320.986 93.0785 321.606 91.5636 322.423 90.3642C323.307 89.065 324.43 88.1233 325.741 87.4294C327.052 86.7354 328.568 86.2759 330.232 85.9503C331.618 85.6793 333.107 85.5009 334.667 85.3584C333.971 86.7611 333.267 88.0844 332.516 89.2761L332.515 89.2753ZM332.556 69.6813C332.059 71.271 331.448 72.701 330.63 73.9035C329.814 75.1053 328.773 76.0999 327.404 76.8259C326.144 77.4949 324.6 77.9389 322.697 78.1118C322.583 76.2035 322.792 74.6123 323.264 73.2664C323.777 71.8076 324.605 70.6299 325.674 69.6423C326.739 68.6571 328.062 67.8393 329.563 67.1087C330.808 66.5027 332.171 65.9599 333.608 65.4333C333.302 66.9334 332.969 68.3627 332.556 69.6813ZM307.803 70.6518C307.361 69.3464 306.993 67.9257 306.651 66.4318C308.104 66.9249 309.481 67.435 310.732 68.0075C312.242 68.6984 313.583 69.4842 314.681 70.4524C315.774 71.4151 316.631 72.5724 317.178 74.0157C317.682 75.3483 317.928 76.9333 317.86 78.8447C315.952 78.7177 314.4 78.3112 313.125 77.6733C311.744 76.9824 310.678 76.0119 309.832 74.828C308.984 73.6426 308.338 72.2282 307.803 70.6518ZM303.398 57.9873C302.659 56.858 301.966 55.6095 301.281 54.2877C302.772 54.4007 304.196 54.5479 305.514 54.7839C307.113 55.0697 308.576 55.488 309.854 56.1375C311.126 56.7824 312.22 57.6696 313.093 58.9049C313.896 60.042 314.517 61.4798 314.921 63.3C313.085 63.6419 311.518 63.6341 310.157 63.3413C308.679 63.0235 307.433 62.3638 306.34 61.4471C305.249 60.5311 304.29 59.3496 303.398 57.9873ZM311.828 126.679C310.081 127.363 308.389 127.834 306.743 127.964C305.097 128.093 303.482 127.878 301.88 127.184C300.388 126.538 298.892 125.472 297.378 123.88C298.997 122.4 300.565 121.442 302.102 120.9C303.751 120.32 305.378 120.218 307.009 120.463C308.639 120.707 310.293 121.296 311.989 122.101C313.434 122.787 314.907 123.629 316.42 124.548C314.845 125.36 313.316 126.096 311.829 126.678L311.828 126.679ZM326.175 109.36C324.834 110.545 323.473 111.521 322.044 112.176C320.617 112.83 319.1 113.166 317.434 113.07C315.891 112.981 314.21 112.521 312.342 111.602C313.306 109.756 314.391 108.393 315.583 107.41C316.87 106.35 318.292 105.727 319.83 105.412C321.371 105.096 323.046 105.082 324.83 105.246C326.332 105.385 327.917 105.653 329.563 105.977C328.427 107.21 327.308 108.359 326.175 109.36ZM304.005 94.5023C304.498 93.0707 305.132 91.5979 305.835 90.0806C306.761 91.4717 307.613 92.83 308.319 94.1705C309.154 95.7539 309.781 97.3054 310.078 98.8484C310.376 100.391 310.344 101.944 309.857 103.536C309.406 105.015 308.56 106.538 307.225 108.133C305.659 106.76 304.591 105.384 303.918 103.992C303.193 102.491 302.923 100.962 302.981 99.3936C303.038 97.8288 303.422 96.1979 304.005 94.5023ZM308.117 82.9594C308.056 81.5544 308.103 80.055 308.195 78.4887C309.478 79.3868 310.682 80.2786 311.748 81.1992C313.027 82.3036 314.115 83.4548 314.913 84.7119C315.706 85.9628 316.214 87.3382 316.337 88.9077C316.45 90.3579 316.239 91.9795 315.626 93.8293C313.789 93.1611 312.384 92.323 311.319 91.3377C310.165 90.266 309.399 89.0151 308.91 87.6171C308.419 86.2159 308.19 84.6496 308.117 82.9594ZM296.046 104.867C297.122 103.697 298.364 102.537 299.696 101.359C300.007 103.101 300.259 104.778 300.377 106.371C300.516 108.245 300.469 109.999 300.109 111.605C299.748 113.21 299.065 114.688 297.926 116.015C296.866 117.251 295.406 118.365 293.438 119.34C292.5 117.355 292.046 115.576 291.982 113.95C291.913 112.204 292.295 110.623 293.01 109.139C293.722 107.656 294.774 106.251 296.046 104.867ZM291.816 34.8324C293.309 34.957 294.687 35.214 295.909 35.6969C297.129 36.1782 298.208 36.8956 299.111 37.9486C299.938 38.9121 300.626 40.1614 301.151 41.7721C299.52 42.2324 298.098 42.3562 296.836 42.2067C295.455 42.0423 294.259 41.547 293.182 40.8047C292.102 40.0601 291.122 39.0593 290.186 37.8879C289.424 36.9337 288.693 35.8698 287.964 34.7397C289.305 34.7171 290.594 34.7311 291.816 34.8324Z" fill="white"/>
</svg>
