<svg width="153" height="40" viewBox="0 0 151.019 39.8625" fill="none" xmlns="http://www.w3.org/2000/svg">
<g>
<path d="M36.5319 28.6125H39.9932V39.8625H0V28.6125H11.0235C12.3197 28.6446 13.6049 28.3675 14.7719 27.8043C15.939 27.2412 16.9542 26.4083 17.733 25.375L19.7897 29.125C19.8927 29.3116 20.049 29.4635 20.2388 29.5615C20.4286 29.6594 20.6433 29.6989 20.8557 29.675C21.0681 29.6477 21.2671 29.5565 21.4262 29.4135C21.5852 29.2706 21.6968 29.0828 21.7461 28.875L25.9849 10.425L27.9789 32.925C28.013 33.2321 28.1601 33.5158 28.3917 33.7213C28.6233 33.9267 28.923 34.0394 29.233 34.0375C29.459 34.0334 29.6798 33.9686 29.8718 33.8497C30.0639 33.7309 30.2202 33.5626 30.3241 33.3625L33.5471 26.725C33.8487 27.2695 34.2844 27.7285 34.8132 28.0588C35.3419 28.389 35.9464 28.5796 36.5695 28.6125H36.5319ZM0 0V26.5H11.0235C12.1925 26.5079 13.3413 26.1963 14.3451 25.5991C15.3489 25.0019 16.1693 24.1419 16.7171 23.1125C16.8455 22.8616 17.03 22.6435 17.2564 22.475C17.3788 22.3943 17.517 22.3404 17.6618 22.3167C17.8066 22.293 17.9548 22.3001 18.0966 22.3375C18.2377 22.3707 18.37 22.4336 18.4846 22.522C18.5993 22.6104 18.6936 22.7223 18.7613 22.85L20.3415 25.75L25.0067 5.75C25.0934 5.46389 25.2745 5.21538 25.5208 5.04484C25.767 4.87429 26.0638 4.79173 26.3631 4.81055C26.6623 4.82937 26.9464 4.94848 27.1691 5.14852C27.3919 5.34857 27.5403 5.6178 27.5902 5.9125L29.7598 29.8375L32.4811 24.05C32.5571 23.9042 32.6655 23.7777 32.7981 23.6802C32.9307 23.5827 33.084 23.5168 33.2461 23.4875C33.4086 23.4673 33.5735 23.4825 33.7294 23.5322C33.8853 23.5818 34.0285 23.6647 34.1491 23.775C34.3643 24.0063 34.5383 24.2727 34.6633 24.5625C35.0144 25.25 35.6666 26.5 36.4943 26.5H39.9556V0H0Z" fill="#0079C8"/>
<path d="M55.5942 4.0875H68.1352C71.3206 4.0875 73.7284 4.9625 75.133 6.5875C75.6728 7.21513 76.0654 7.95479 76.2824 8.75267C76.4993 9.55055 76.5351 10.3866 76.3871 11.2V11.25C76.2254 12.6194 75.6996 13.9209 74.8639 15.0197C74.0283 16.1185 72.9132 16.9748 71.6341 17.5C74.7693 18.6125 76.8135 20.4875 76.3495 24.2625V24.35C75.7475 29.35 71.3331 31.9875 65.0626 31.9875H52.1579L55.5942 4.0875ZM66.2415 20H58.4661L57.5255 27.6375H65.6646C68.9754 27.6 71.2077 26.25 71.4836 23.75C71.772 21.4 70.0665 20 66.1913 20H66.2415ZM71.4836 11.9625C71.7595 9.775 70.1668 8.425 67.0065 8.425H59.8832L58.9426 15.825H65.652C68.7998 15.825 71.0697 14.575 71.3833 12.075L71.4836 11.9625ZM79.7857 24.3L81.4286 10.925H86.2569L84.7896 22.8625C84.3883 26.125 85.7929 27.95 88.6647 27.95C90.0597 27.9542 91.4018 27.4182 92.4078 26.4551C93.4139 25.4919 94.0054 24.1769 94.0574 22.7875L95.5121 10.925H100.328L97.7319 31.9375H92.866L93.2673 28.675C92.4751 29.8095 91.4245 30.7408 90.2016 31.3927C88.9787 32.0445 87.6183 32.3982 86.2318 32.425C81.4788 32.425 79.1085 29.2375 79.723 24.35L79.7857 24.3ZM104.943 10.925H109.784L109.345 14.425C110.235 13.2252 111.39 12.2458 112.721 11.5629C114.052 10.8801 115.523 10.5121 117.02 10.4875C122.036 10.4875 126.313 14.3875 125.46 21.3875V21.475C124.595 28.4375 119.327 32.375 114.336 32.375C112.979 32.4139 111.636 32.0858 110.45 31.4256C109.264 30.7654 108.28 29.7977 107.602 28.625L106.423 38.25H101.582L104.943 10.925ZM120.531 21.475V21.3875C121.033 17.3375 118.613 14.6625 115.339 14.6625C113.558 14.7579 111.871 15.4904 110.588 16.7258C109.305 17.9611 108.512 19.6163 108.354 21.3875V21.475C107.852 25.4875 110.398 28.2 113.671 28.2C116.945 28.2 120.017 25.6125 120.519 21.475H120.531ZM127.943 21.475V21.3875C128.796 14.425 134.038 10.4875 139.067 10.4875C140.422 10.4509 141.763 10.78 142.946 11.4401C144.129 12.1002 145.111 13.0667 145.789 14.2375L146.19 10.975H151.019L148.435 31.9875H143.607L144.033 28.4875C143.146 29.6871 141.993 30.6664 140.664 31.3494C139.335 32.0323 137.866 32.4004 136.371 32.425C131.354 32.425 127.078 28.4875 127.931 21.525L127.943 21.475ZM144.974 21.525V21.4375C145.475 17.3875 142.93 14.7125 139.694 14.7125C136.458 14.7125 133.311 17.2125 132.796 21.4375V21.525C132.307 25.575 134.765 28.25 138.039 28.25C139.814 28.1507 141.493 27.4155 142.767 26.1797C144.042 24.944 144.825 23.2909 144.974 21.525ZM34.7009 24.5625C34.5759 24.2727 34.402 24.0063 34.1867 23.775C34.067 23.6639 33.9235 23.5814 33.767 23.5338C33.6106 23.4861 33.4453 23.4746 33.2838 23.5C33.1202 23.5252 32.9648 23.5881 32.8299 23.6835C32.6949 23.779 32.5841 23.9045 32.5062 24.05L29.7974 29.8375L27.5902 5.9125C27.5645 5.59702 27.4264 5.30112 27.2008 5.07835C26.9752 4.85558 26.6771 4.72065 26.3603 4.698C26.0436 4.67534 25.7292 4.76644 25.474 4.95482C25.2188 5.1432 25.0397 5.41641 24.9691 5.725L20.3039 25.725L18.8115 22.85C18.7438 22.7223 18.6494 22.6104 18.5348 22.522C18.4202 22.4336 18.2879 22.3707 18.1468 22.3375C18.0049 22.3001 17.8567 22.293 17.7119 22.3167C17.5671 22.3404 17.429 22.3943 17.3066 22.475C17.0802 22.6435 16.8957 22.8616 16.7673 23.1125C16.2156 24.1495 15.3873 25.0145 14.3738 25.6122C13.3604 26.2099 12.201 26.5171 11.0235 26.5H0V28.6125H11.0235C12.3197 28.6446 13.6049 28.3675 14.7719 27.8043C15.939 27.2412 16.9542 26.4083 17.733 25.375L19.7897 29.125C19.8927 29.3116 20.049 29.4635 20.2388 29.5615C20.4286 29.6594 20.6433 29.6989 20.8557 29.675C21.0681 29.6477 21.2671 29.5565 21.4262 29.4135C21.5852 29.2706 21.6968 29.0828 21.7461 28.875L25.9849 10.375L27.9789 32.875C28.013 33.1821 28.1601 33.4658 28.3917 33.6713C28.6233 33.8767 28.923 33.9894 29.233 33.9875C29.459 33.9834 29.6798 33.9186 29.8718 33.7998C30.0639 33.6809 30.2202 33.5126 30.3241 33.3125L33.5471 26.675C33.8487 27.2195 34.2844 27.6785 34.8132 28.0088C35.3419 28.339 35.9464 28.5296 36.5695 28.5625H40.0308V26.5H36.5319C35.7042 26.5 35.052 25.25 34.7009 24.5625" fill="white"/>
</g>
</svg>
