<svg width="186" height="40" viewBox="0 0 186 40" fill="none" xmlns="http://www.w3.org/2000/svg">
<g clip-path="url(#clip0_1735_5843)">
<g clip-path="url(#clip1_1735_5843)">
<path d="M15.0571 39.9646C14.7737 38.1239 14.5966 36.2124 14.5966 34.3009C14.5966 26.3009 17.2537 18.9381 21.7177 13.0266C17.0411 6.83191 10.3451 2.23014 2.58626 0.177041C1.31083 -0.176941 0.0354004 0.814209 0.0354004 2.15934V37.9116C0.0354004 39.0443 0.95656 39.9646 2.09027 39.9646H15.0571Z" fill="#0090DA"/>
<path d="M21.7532 13.0266C17.2892 18.9381 14.6321 26.3009 14.6321 34.3009C14.6321 36.2124 14.7738 38.124 15.0926 39.9647H28.4492C28.7327 38.124 28.9098 36.2124 28.9098 34.3009C28.8744 26.3009 26.2172 18.9381 21.7532 13.0266Z" fill="#0061A0"/>
<path d="M21.7532 13.0266C26.2172 18.9381 28.8743 26.3009 28.8743 34.3009C28.8743 36.2124 28.7326 38.1239 28.4137 39.9646H41.3451C42.4789 39.9646 43.4 39.0443 43.4 37.9116V2.15934C43.4 0.814209 42.1246 -0.176941 40.8492 0.177041C33.1258 2.23014 26.4297 6.83191 21.7532 13.0266Z" fill="#A4CE4E"/>
<path d="M147.241 12.9205C145.47 12.9205 144.017 11.4692 144.017 9.69927C144.017 7.92935 145.47 6.47803 147.241 6.47803C149.013 6.47803 150.465 7.89396 150.465 9.69927C150.465 11.5046 148.977 12.9205 147.241 12.9205ZM56.792 33.5577H62.496L63.1691 16.4957L68.944 26.6196H72.0263L77.4822 16.3541L78.2263 33.5577H84.1783L82.9737 7.25679H77.2343L70.5383 19.6108L63.6651 7.25679H58.032L56.792 33.5577ZM102.566 27.9648C102.141 28.2833 101.467 28.6373 100.546 29.0975C99.6251 29.5223 98.4205 29.7347 96.968 29.7347C95.5154 29.7347 94.2754 29.3453 93.4251 28.6019C92.5748 27.8586 92.1143 26.9736 92.1143 25.9824H105.294V25.0267C105.294 23.4692 105.081 22.0532 104.691 20.7435C104.302 19.4338 103.699 18.3364 102.92 17.3807C102.141 16.4603 101.184 15.717 100.05 15.186C98.9166 14.655 97.6057 14.4072 96.0822 14.4072C94.5588 14.4072 93.248 14.6904 92.0434 15.2214C90.8743 15.7524 89.8469 16.4957 89.032 17.3807C88.2171 18.2656 87.5794 19.3276 87.1543 20.5311C86.7291 21.7347 86.5165 22.9736 86.5165 24.2479C86.5165 25.7347 86.7645 27.0798 87.1897 28.2833C87.6503 29.4869 88.3234 30.5488 89.2091 31.4338C90.0948 32.2833 91.1577 32.9913 92.4331 33.4515C93.7086 33.9471 95.1257 34.1948 96.6846 34.1948C97.8537 34.1948 98.9166 34.0886 99.8377 33.8763C100.759 33.6639 101.538 33.3807 102.211 33.0975C102.885 32.8143 103.416 32.5311 103.841 32.2125C104.266 31.894 104.585 31.6816 104.798 31.5754L102.566 27.9648ZM92.0788 22.3364C92.0788 21.9471 92.1497 21.5577 92.3268 21.1329C92.504 20.7435 92.752 20.3541 93.0708 20.0001C93.3897 19.6462 93.8148 19.363 94.3108 19.1506C94.8068 18.9382 95.3737 18.832 96.0468 18.832C96.72 18.832 97.2514 18.9382 97.7474 19.1506C98.208 19.363 98.5977 19.6462 98.9165 20.0001C99.2354 20.3541 99.4834 20.7081 99.6251 21.1329C99.7668 21.5577 99.8731 21.9471 99.8731 22.3364H92.0788ZM124.567 33.5577H141.891V28.6727H130.519V7.22139H124.567V33.5577ZM144.371 33.5577H150.075V15.0444H144.371V33.5577ZM169.384 8.46033C168.534 7.75236 167.613 7.25679 166.585 6.9736C165.558 6.69041 164.53 6.54882 163.538 6.54882C162.582 6.54882 161.661 6.69042 160.739 7.009C159.818 7.32758 159.039 7.78776 158.33 8.38953C157.622 8.9913 157.055 9.80546 156.63 10.7258C156.205 11.6816 155.992 12.8143 155.992 14.124V15.0798H152.981V19.54H155.992V33.5931H161.625V19.54H166.018V15.0798H161.625V14.0532C161.625 13.1329 161.873 12.4249 162.334 11.9294C162.794 11.4338 163.432 11.186 164.211 11.186C164.707 11.186 165.203 11.2568 165.664 11.4338C166.125 11.6108 166.585 11.8232 166.975 12.1063L169.384 8.46033ZM120.138 28.6019C119.784 28.8497 119.359 29.0975 118.969 29.2745C118.579 29.4515 118.048 29.5577 117.481 29.5577C116.702 29.5577 116.17 29.3099 115.816 28.8143C115.462 28.3187 115.285 27.6462 115.285 26.7258V19.4338H120.067V14.9736H115.285V10.0179H109.581V14.9736H106.64V19.4338H109.581V26.4072C109.581 27.5754 109.687 28.6019 109.935 29.5577C110.183 30.5134 110.573 31.3276 111.104 32.0001C111.671 32.6727 112.379 33.2037 113.265 33.5931C114.151 33.9824 115.285 34.1594 116.595 34.1594C118.686 34.1594 120.634 33.4515 122.441 32.0355L120.138 28.6019ZM183.095 27.9648C182.67 28.2833 181.997 28.6373 181.075 29.0975C180.154 29.5223 178.95 29.7347 177.497 29.7347C176.045 29.7347 174.805 29.3453 173.954 28.6019C173.104 27.8586 172.643 26.9736 172.643 25.9824H185.823V25.0267C185.823 23.4692 185.61 22.0532 185.221 20.7435C184.831 19.4338 184.229 18.3364 183.449 17.3807C182.67 16.4603 181.713 15.717 180.579 15.186C179.446 14.655 178.135 14.4072 176.611 14.4072C175.088 14.4072 173.777 14.6904 172.573 15.2214C171.403 15.7524 170.376 16.4957 169.561 17.3807C168.746 18.2656 168.109 19.3276 167.683 20.5311C167.258 21.7347 167.046 22.9736 167.046 24.2479C167.046 25.7347 167.294 27.0798 167.719 28.2833C168.179 29.4869 168.853 30.5488 169.738 31.4338C170.624 32.2833 171.687 32.9913 172.962 33.4515C174.238 33.9471 175.655 34.1948 177.214 34.1948C178.383 34.1948 179.446 34.0886 180.367 33.8763C181.288 33.6639 182.067 33.3807 182.741 33.0975C183.414 32.8143 183.945 32.5311 184.37 32.2125C184.795 31.894 185.114 31.6816 185.327 31.5754L183.095 27.9648ZM172.608 22.3364C172.608 21.9471 172.679 21.5577 172.856 21.1329C173.033 20.7081 173.281 20.3541 173.6 20.0001C173.919 19.6462 174.344 19.363 174.84 19.1506C175.336 18.9382 175.903 18.832 176.576 18.832C177.249 18.832 177.781 18.9382 178.277 19.1506C178.737 19.363 179.127 19.6462 179.446 20.0001C179.765 20.3541 180.013 20.7081 180.154 21.1329C180.296 21.5577 180.402 21.9471 180.402 22.3364H172.608Z" fill="white"/>
</g>
</g>
<defs>
<clipPath id="clip0_1735_5843">
<rect width="186" height="40" fill="white"/>
</clipPath>
<clipPath id="clip1_1735_5843">
<rect width="185.787" height="39.8599" fill="white" transform="translate(0.0354004 0.104736)"/>
</clipPath>
</defs>
</svg>
