<svg width="219" height="40" viewBox="0 0 219 40" fill="none" xmlns="http://www.w3.org/2000/svg">
<g clip-path="url(#clip0_1735_5978)">
<path d="M210.149 12.7381C204.455 12.7381 200.805 17.3217 200.805 22.5863C200.805 27.8509 204.747 32.3792 210.477 32.3792C213.525 32.3792 216.354 31.1643 218.087 29.1762L215.587 26.2494C214.273 27.4827 212.722 28.219 210.933 28.219C208.251 28.219 206.042 26.5623 205.823 24.0589H218.763C218.927 23.3226 218.982 22.6047 219 21.9604C219 16.9903 215.624 12.7197 210.149 12.7197M205.732 20.7087C205.951 19.0336 207.283 16.8247 210.057 16.8247C212.32 16.8247 213.926 18.2973 214.091 20.7087H205.732Z" fill="white"/>
<path d="M164.177 5.33813V31.9925H179.981V27.2249H169.214V5.33813H164.177Z" fill="white"/>
<path d="M196.699 11.5969C196.699 9.71936 198.031 9.18553 199.509 9.18553C199.911 9.18553 200.44 9.22235 200.987 9.3328V5.43036C199.965 5.09902 198.87 4.93335 197.83 4.93335C193.103 4.93335 191.899 8.48604 191.899 11.7994V13.0696H188.833V17.4506H191.899V31.9743H196.699V17.4506H200.677V13.0696H196.699V11.5785V11.5969Z" fill="white"/>
<path d="M186.843 13.0879H182.044V32.011H186.843V13.0879Z" fill="white"/>
<path d="M184.434 4.95166C182.828 4.95166 181.606 6.25861 181.606 7.82327C181.606 9.38792 182.865 10.6396 184.471 10.6396C186.077 10.6396 187.281 9.36952 187.281 7.80486C187.281 6.2402 186.059 4.95166 184.453 4.95166" fill="white"/>
<path d="M59.6957 5.33813H50.4612C51.2459 7.84159 51.5562 10.7132 51.5562 14.3395V23.4145C51.5562 27.0408 51.2824 29.4891 50.4977 31.9925H59.6774C67.5614 31.9925 73.2919 26.415 73.2919 18.6837C73.2919 10.9525 67.5614 5.33813 59.6774 5.33813M60.0607 27.317H56.5384V10.0321H60.0607C63.5099 10.0321 68.2184 12.1306 68.2184 18.7021C68.2184 25.2737 63.4552 27.317 60.0424 27.317" fill="white"/>
<path d="M138.445 12.738C135.269 12.738 133.59 14.7077 133.079 15.9042H132.97V5.33813H128.133V31.9925H132.933V21.1872C132.933 20.1011 133.627 17.34 136.601 17.34C137.934 17.34 140.087 17.8922 140.087 21.1872V31.9741H144.887V20.4877C144.887 15.3151 142.095 12.7012 138.463 12.7012" fill="white"/>
<path d="M90.5383 31.9926V19.8987C90.5383 15.2784 87.4358 12.7197 82.5265 12.7197C79.1503 12.7197 76.6865 14.8918 75.6098 16.3092L78.256 18.7943C79.3145 17.5241 80.6468 16.6958 82.417 16.6958C84.4063 16.6958 85.9393 17.8371 85.9393 19.9356L80.446 21.04C77.234 21.6843 74.6243 23.3778 74.6243 26.8753C74.6243 30.3727 77.1793 32.3792 80.3183 32.3608C82.5813 32.3608 84.8078 31.3484 85.8115 29.1578H85.921V31.9926H90.5383ZM81.8695 28.6424C80.3365 28.6424 79.2598 27.7404 79.2598 26.3414C79.2598 24.8688 80.4278 24.1325 81.833 23.8012L85.921 22.8072V23.9669C85.921 26.3783 84.242 28.624 81.8695 28.624" fill="white"/>
<path d="M118.862 27.9796C116.088 27.9796 114.026 25.6603 114.026 22.4941C114.026 19.328 116.07 17.1191 118.735 17.1191C120.249 17.1191 121.709 17.8002 123.023 19.328L126.126 16.6221C124.356 14.0082 121.563 12.738 118.552 12.738C113.333 12.738 109.226 16.7141 109.226 22.5125C109.226 27.7956 112.639 32.3791 118.516 32.3791C122.22 32.3791 124.684 30.5751 126.308 28.3662L123.169 25.6603C121.947 27.3538 120.286 27.9796 118.862 27.9796Z" fill="white"/>
<path d="M98.477 13.0879H93.6772V32.011H98.477V13.0879Z" fill="white"/>
<path d="M96.0863 4.95166C94.4803 4.95166 93.2576 6.25861 93.2576 7.82327C93.2576 9.38792 94.4986 10.6396 96.1046 10.6396C97.7106 10.6396 98.9333 9.36952 98.9333 7.80486C98.9333 6.2402 97.6923 4.95166 96.0863 4.95166Z" fill="white"/>
<path d="M106.817 13.0879H101.999V32.011H106.817V13.0879Z" fill="white"/>
<path d="M104.408 4.95166C102.802 4.95166 101.561 6.25861 101.561 7.82327C101.561 9.38792 102.821 10.6396 104.427 10.6396C106.033 10.6396 107.237 9.36952 107.237 7.80486C107.237 6.2402 106.014 4.95166 104.408 4.95166Z" fill="white"/>
<path d="M152.789 13.0879H147.989V32.011H152.789V13.0879Z" fill="white"/>
<path d="M150.38 4.95166C148.774 4.95166 147.533 6.25861 147.533 7.82327C147.533 9.38792 148.792 10.6396 150.398 10.6396C152.004 10.6396 153.209 9.36952 153.209 7.80486C153.209 6.2402 151.986 4.95166 150.38 4.95166Z" fill="white"/>
<path d="M18.9983 22.4206C23.652 22.9728 28.1415 24.0773 32.3938 25.6603C36.8468 21.9972 39.6573 18.4077 39.6573 16.0147C39.6573 11.7809 30.8608 6.90284 19.0348 3.57104C20.075 6.49787 20.6408 9.664 20.6408 12.959C20.6408 16.254 20.0568 19.4753 18.9983 22.439" fill="#4EDAFF"/>
<path d="M0.0182504 0C2.701 7.25265 3.869 14.9471 3.52225 22.5863C6.25975 22.1997 9.07025 21.9972 11.899 21.9972C14.308 21.9972 16.6623 22.1445 18.98 22.4206C20.0385 19.457 20.6225 16.2724 20.6225 12.9406C20.6225 9.60884 20.0568 6.49793 19.0165 3.55269C13.1948 1.9144 6.58825 0.644271 0 0" fill="#1746FF"/>
<path d="M18.9984 22.4207C16.6806 22.1446 14.3081 21.9973 11.9174 21.9973C9.07037 21.9973 6.27812 22.1998 3.54062 22.5864C3.28512 28.5136 2.11712 34.3857 0.0366211 40.0001C8.85137 37.6439 15.9506 31.0171 19.0166 22.4207" fill="#000064"/>
<path d="M0.0182504 40C8.833 37.6438 15.9323 31.0171 18.9983 22.4207C23.652 22.9729 28.1415 24.0774 32.3938 25.6604C24.6375 32.0479 11.8443 38.7299 0 40" fill="#0091FF"/>
</g>
<defs>
<clipPath id="clip0_1735_5978">
<rect width="219" height="40" fill="white"/>
</clipPath>
</defs>
</svg>
