<svg width="143" height="38" viewBox="0 0 143 38" fill="none" xmlns="http://www.w3.org/2000/svg">
<g clip-path="url(#clip0_1737_897)">
<path d="M31.69 26.15L28.79 32.16C28.21 33.3699 26.35 33.01 26.25 31.68L24.48 11.54L20.74 27.91C20.51 28.95 19.03 29.14 18.54 28.2L16.72 24.8499C15.11 26.7899 12.99 27.77 10.42 27.77H0V38.25H37.79V27.77H34.51C33.44 27.77 32.49 27.2299 31.69 26.16V26.15ZM0 25.3899H10.42C13.7 25.3899 15.11 23.12 15.64 22.26C15.82 21.97 15.95 21.77 16.2 21.6C16.76 21.22 17.59 21.42 17.9 22.03L19.15 24.34L23.44 5.83995C23.82 4.28995 26.13 4.42995 26.28 6.03995L28.27 28.02L30.54 23.16C30.87 22.4699 31.88 22.3 32.42 22.85C33.05 23.49 33.47 25.27 34.5 25.38H37.78V0.449951H0V25.3899ZM88.81 22.0499C88.43 25.1399 86.36 26.95 83.72 26.95C81.08 26.95 79.67 25.22 80.05 22.12L81.44 10.81H76.88L75.32 23.4799C74.75 28.1199 76.98 31.1399 81.47 31.1399C84.56 31.1399 86.61 29.52 88.12 27.63L87.74 30.72H92.34L94.78 10.81H90.18L88.8 22.0499H88.81ZM137.78 13.9C136.58 12.01 134.7 10.39 131.42 10.39C126.67 10.39 121.72 14.12 120.91 20.72V20.7999C120.09 27.4 124.19 31.13 128.87 31.13C132.11 31.13 134.39 29.47 136.12 27.4L135.71 30.72H140.27L142.71 10.81H138.15L137.77 13.9H137.78ZM137.02 20.7299V20.81C136.54 24.62 133.51 27.18 130.46 27.18C127.41 27.18 125.04 24.65 125.51 20.81V20.7299C126.01 16.77 128.91 14.36 132.03 14.36C135.15 14.36 137.49 16.8899 137.02 20.7299ZM72.2 11.11V11.03C72.43 9.25995 72 7.81995 70.97 6.65995C69.65 5.14995 67.37 4.31995 64.36 4.31995H52.52L49.28 30.72H61.5C67.38 30.72 71.58 28.1899 72.16 23.4799V23.4C72.61 19.82 70.68 18.05 67.71 16.99C69.8 15.97 71.81 14.27 72.2 11.11ZM56.58 8.42995H63.26C66.24 8.42995 67.74 9.70995 67.49 11.79V11.87C67.18 14.28 65.04 15.45 62.06 15.45H55.72L56.58 8.42995ZM67.59 22.91V22.99C67.29 25.37 65.21 26.61 62.04 26.61H54.35L55.24 19.37H62.59C66.25 19.37 67.86 20.69 67.58 22.91H67.59ZM110.57 10.39C107.33 10.39 105.05 12.05 103.32 14.12L103.73 10.8H99.17L95.98 36.75H100.54L101.66 27.6199C102.83 29.4699 104.7 31.13 108.02 31.13C112.73 31.13 117.72 27.4 118.53 20.7999V20.72C119.35 14.08 115.25 10.39 110.57 10.39ZM113.9 20.7299V20.81C113.41 24.73 110.54 27.18 107.41 27.18C104.28 27.18 101.92 24.61 102.38 20.81V20.7299C102.86 16.92 105.89 14.36 108.98 14.36C112.07 14.36 114.36 16.8899 113.89 20.7299H113.9Z" fill="white"/>
<path d="M24.86 4.73002C24.09 4.68002 23.47 5.48002 23.44 5.84002C23.36 6.20002 19.15 24.33 19.15 24.33L17.9 22.02C17.59 21.42 16.76 21.21 16.2 21.59C15.95 21.76 15.82 21.97 15.64 22.25C15.11 23.11 13.7 25.38 10.42 25.38H0V27.76H10.42C12.99 27.76 15.11 26.78 16.72 24.84L18.54 28.19C19.03 29.13 20.51 28.95 20.74 27.9L24.48 11.53L26.25 31.67C26.35 33 28.21 33.36 28.79 32.15L31.69 26.14C32.49 27.21 33.44 27.75 34.51 27.75H37.79V25.37H34.51C33.47 25.26 33.06 23.48 32.43 22.84C31.9 22.29 30.89 22.46 30.55 23.15L28.28 28.01L26.29 6.03002C26.22 5.30002 25.6 4.73002 24.86 4.73002Z" fill="#0079C8"/>
</g>
<defs>
<clipPath id="clip0_1737_897">
<rect width="143" height="38" fill="white"/>
</clipPath>
</defs>
</svg>
