<svg width="306" height="109" viewBox="0 0 306 109" fill="none" xmlns="http://www.w3.org/2000/svg">
<path d="M196.614 26.4802H187.385V85.6145H196.614V26.4802Z" fill="white"/>
<path d="M28.5264 68.7551L11.0762 26.4788H0L23.1566 81.0466C21.9833 83.9541 11.4114 108.372 11.4114 108.372H22.0671L57.1409 26.4774H45.9809L28.5278 68.7536L28.5264 68.7551Z" fill="white"/>
<path d="M294.839 26.4802L277.386 68.7565L259.935 26.4802H248.859L272.016 81.048C270.842 83.9555 260.271 108.374 260.271 108.374H270.926L306 26.4788H294.84L294.839 26.4802Z" fill="white"/>
<path d="M103.999 61.4462C103.999 68.4236 102.236 76.3955 88.7279 76.3955C75.2197 76.3955 73.4568 68.4221 73.4568 61.4462V26.4788H63.304V61.4462C63.304 78.307 71.3586 86.1139 88.7279 86.1139C99.635 86.1139 114.152 83.5393 114.152 61.4462V26.4788H103.999V61.4462Z" fill="white"/>
<path d="M148.978 25.9794C131.609 25.9794 123.555 33.7863 123.555 50.6471V85.6145H133.707V50.6471C133.707 43.6697 135.469 35.6978 148.978 35.6978C162.488 35.6978 164.25 43.6712 164.25 50.6471V85.6145H174.402V50.6471C174.402 28.5539 159.886 25.9794 148.978 25.9794Z" fill="white"/>
<path d="M227.673 0H218.613V26.6496H209.343V34.1321H218.613V69.9548C218.613 82.0813 226.165 86.3177 233.296 86.3177C236.485 86.3177 239.842 85.4868 242.526 83.9914L243.03 83.7417L239.842 77.0972L239.338 77.2637C237.826 77.8449 236.15 78.3429 234.555 78.3429C232.037 78.3429 227.673 77.2637 227.673 70.038V34.1321H241.823V26.6496H227.673V0Z" fill="white"/>
</svg>
