<svg preserveAspectRatio="none" overflow="visible" style="display: block;" width="195.23" height="176.68" viewBox="0 0 195.23 176.68" fill="none" xmlns="http://www.w3.org/2000/svg">
<g id="Group" style="mix-blend-mode:multiply">
<path id="Vector" opacity="0.5" d="M80.9099 171.484C89.0756 167.772 92.7873 157.379 100.953 153.667C104.665 152.183 108.376 152.183 112.088 151.44C143.266 145.502 158.113 100.219 190.034 98.7344C191.518 98.7344 193.003 98.7344 195.23 98.7344C195.23 92.7957 195.23 87.5994 194.488 81.6606C193.003 83.1453 191.518 84.63 190.034 85.3723C180.383 92.7957 165.536 92.0534 155.144 98.7344C148.463 103.188 144.751 111.354 139.555 117.293C126.193 133.624 105.407 141.048 86.1063 145.502C74.9712 147.729 41.566 149.213 24.4922 158.122C31.1732 165.545 37.8543 171.484 46.02 176.68C48.9893 173.711 51.9587 172.226 57.8974 171.484C66.0631 171.484 73.4865 175.195 80.9099 171.484Z" fill="url(#paint0_linear_0_89)"/>
<path id="Vector_2" opacity="0.5" d="M194.49 108.383C182.612 112.095 169.25 119.518 165.538 122.488C162.569 125.457 160.342 128.426 157.373 131.396C152.919 135.107 147.722 138.077 145.495 143.273C144.011 145.5 143.268 148.47 141.784 149.954C135.102 158.12 120.256 152.181 112.832 159.605C112.09 160.347 111.348 161.832 111.348 163.316C111.348 167.028 115.802 167.77 118.771 167.77C126.194 167.77 132.875 165.543 139.557 163.316C145.495 161.089 152.176 159.605 158.115 157.378C165.538 155.151 174.446 152.181 178.9 145.5C183.354 139.562 184.839 135.107 188.551 132.138C190.778 123.972 193.005 115.807 194.49 108.383Z" fill="url(#paint1_linear_0_89)"/>
<path id="Vector_3" opacity="0.5" d="M161.83 47.5128C160.345 51.9668 159.603 57.1632 155.149 60.1325C149.952 63.1019 143.271 58.6479 136.59 58.6479C122.486 58.6479 118.774 80.918 106.154 86.8567C95.7617 92.0531 80.1725 86.1144 73.4915 95.0225C71.2645 97.9918 70.5222 102.446 66.8105 104.673C62.3564 107.642 57.1601 105.415 51.9637 103.188C35.6323 96.5071 17.0738 97.2495 1.42788e-06 103.188C0.74234 112.839 2.96935 121.747 6.68104 131.397C8.16572 134.366 8.90806 137.336 10.3927 139.563C13.3621 137.336 16.3314 134.366 18.5585 131.397C20.0431 128.428 20.7855 124.716 23.0125 121.747C28.9512 114.323 40.8286 119.52 48.252 124.716C55.6754 129.912 66.0681 135.851 73.4915 130.655C79.4302 125.458 79.4302 115.808 85.3689 109.869C95.7617 100.219 114.32 114.323 125.455 105.415C132.879 98.7341 130.652 84.6297 138.075 78.691C144.014 74.237 153.664 76.464 160.345 72.7523C169.996 66.8136 169.996 50.4821 180.388 46.0281H181.131C178.161 41.5741 175.192 37.12 172.223 32.666C168.511 37.12 164.057 41.5741 161.83 47.5128Z" fill="url(#paint2_linear_0_89)"/>
<path id="Vector_4" opacity="0.5" d="M0.736328 86.8536C8.15971 80.9149 14.8408 74.2338 20.7795 71.2645C28.2029 68.2951 37.8533 69.0375 42.3073 74.9762C43.792 77.2032 44.5343 80.9149 46.7613 83.1419C51.2153 87.5959 58.6387 86.8536 63.0928 83.1419C68.2891 79.4302 70.5161 73.4915 73.4855 68.2951C74.9702 66.0681 75.7125 63.8411 77.9395 62.3564C82.3936 60.1294 87.5899 63.0988 91.3016 61.6141C95.7557 60.1294 97.2403 54.933 97.9826 50.479C97.9826 46.025 97.2403 41.5709 97.9826 36.3746C99.4673 28.2089 107.633 22.2702 116.541 20.7855C124.707 19.3008 133.615 20.0431 141.781 21.5278C148.462 22.2702 155.143 23.0125 162.566 23.0125C149.946 11.8774 134.357 3.71169 118.026 0C115.056 6.68104 112.087 12.6198 105.406 14.8468C100.952 16.3314 95.7557 14.8468 91.3016 17.8161C86.8476 20.7855 87.5899 27.4665 83.8782 31.1782C75.7125 39.3439 60.8657 25.2395 49.7307 30.4359C45.2766 32.6629 43.0496 37.8593 38.5956 40.0863C32.6569 43.0556 23.7488 40.0863 17.0678 38.6016C8.15972 52.706 2.221 69.0375 0.736328 86.8536Z" fill="url(#paint3_linear_0_89)"/>
</g>
<defs>
<linearGradient id="paint0_linear_0_89" x1="29.4613" y1="171.315" x2="202.027" y2="99.8346" gradientUnits="userSpaceOnUse">
<stop stop-color="#9796FE"/>
<stop offset="0.9927" stop-color="#FF7DFF"/>
</linearGradient>
<linearGradient id="paint1_linear_0_89" x1="109.313" y1="160.272" x2="200.353" y2="122.561" gradientUnits="userSpaceOnUse">
<stop stop-color="#9796FE"/>
<stop offset="0.9927" stop-color="#FF7DFF"/>
</linearGradient>
<linearGradient id="paint2_linear_0_89" x1="7.26118" y1="130.736" x2="186.671" y2="56.4205" gradientUnits="userSpaceOnUse">
<stop stop-color="#9796FE"/>
<stop offset="0.9927" stop-color="#FF7DFF"/>
</linearGradient>
<linearGradient id="paint3_linear_0_89" x1="-2.44255" y1="78.9315" x2="159.017" y2="12.0515" gradientUnits="userSpaceOnUse">
<stop stop-color="#9796FE"/>
<stop offset="0.9927" stop-color="#FF7DFF"/>
</linearGradient>
</defs>
</svg>
