<svg preserveAspectRatio="none" width="100%" height="100%" overflow="visible" style="display: block;" viewBox="0 0 506.333 650.999" fill="none" xmlns="http://www.w3.org/2000/svg">
<path id="CoinEngrave" d="M261.025 259.159C269.103 249.015 282.314 242.522 293.968 249.136C331.834 272.672 305.328 206 262.918 226.818C244.616 235.826 245.373 278.759 261.025 259.159ZM242.26 581.035C196.82 571.458 185.166 641.092 228.081 647.991L242.68 650.831C243.797 651.05 244.947 651.055 246.065 650.845C247.183 650.636 248.247 650.215 249.196 649.608C250.146 649.002 250.962 648.22 251.598 647.309C252.235 646.398 252.678 645.375 252.904 644.298L289.508 471.024C289.772 469.945 289.803 468.826 289.601 467.735C289.399 466.644 288.967 465.605 288.333 464.681C287.698 463.757 286.874 462.968 285.911 462.363C284.948 461.758 283.867 461.35 282.735 461.163L276.634 459.946C275.517 459.721 274.366 459.712 273.246 459.92C272.125 460.127 271.059 460.547 270.108 461.155C269.157 461.762 268.341 462.546 267.706 463.46C267.071 464.374 266.631 465.4 266.41 466.479L242.26 581.035ZM474.085 251.53C431.717 203.647 351.23 163.27 275.834 146.349C281.599 105.77 309.493 101.022 333.728 71.9669C340.039 62.1467 357.289 60.1989 357.71 46.2802C359.393 37.1093 352.661 29.7238 346.055 23.9616C332.76 10.6515 313.743 20.9587 307.768 35.7296C302.846 41.6542 294.852 44.373 289.677 50.2164C288.961 50.7439 266.284 75.9843 265.568 76.593C260.94 66.6916 250.927 39.26 243.185 31.4687C239.188 28.2224 238.137 19.9442 236.958 15.237C231.489 -9.11059 193.202 -1.68457 188.406 19.2949C185.629 28.9528 193.16 37.3933 199.429 44.0483C203.847 50.6628 204.057 59.0627 208.433 65.8394C230.563 95.7464 236.285 110.477 232.33 139.207C215.15 137.316 197.802 137.316 180.622 139.207C146.458 77.4045 69.9263 79.5958 13.2111 81.219L0 81.6248L1.8933 94.2856C12.0751 161.241 27.1375 261.188 128.367 263.096C127.651 326.196 112.799 383.21 94.1607 454.346C83.8106 493.911 72.1562 538.508 61.5537 590.124C61.3271 591.209 61.3249 592.326 61.5472 593.412C61.7696 594.497 62.2121 595.53 62.8494 596.45C63.4866 597.37 64.3061 598.159 65.2606 598.773C66.2152 599.387 67.286 599.812 68.4117 600.026L74.5544 601.162C76.8132 601.58 79.1515 601.118 81.059 599.879C82.9666 598.64 84.2885 596.723 84.7362 594.548C89.4839 571.532 94.6598 548.601 100.261 525.766C153.274 550.113 174.143 462.462 116.67 461.447C136.992 383.738 153.106 322.544 152.012 251.368V248.203C151.98 247.084 151.715 245.982 151.234 244.963C150.752 243.944 150.063 243.029 149.207 242.272C148.352 241.515 147.347 240.932 146.253 240.556C145.16 240.181 143.999 240.021 142.84 240.087H139.6C59.9548 244.632 40.1382 182.14 27.3478 103.578C91.0052 102.361 140.947 107.636 162.993 156.331L164.003 158.523C164.786 160.249 166.152 161.67 167.878 162.554C169.604 163.438 171.589 163.733 173.512 163.392L175.952 162.986C256.649 148.459 398.1 200.644 456.162 266.342C480.565 293.936 488.264 320.799 478.882 346.08C478.882 346.08 457.003 425.616 363.432 427.564H362.801C359.014 427.767 274.025 432.027 225.472 400.781C223.676 399.594 221.481 399.105 219.327 399.414C217.174 399.722 215.22 400.805 213.86 402.445L209.947 407.152C209.204 408.055 208.66 409.095 208.35 410.209C208.04 411.322 207.969 412.485 208.142 413.625C208.316 414.766 208.73 415.86 209.358 416.841C209.987 417.821 210.818 418.667 211.798 419.326C265.905 454.549 353.839 450.856 363.852 450.247C471.982 447.975 498.824 361.866 501.265 353.263C513.256 320.718 503.873 285.495 474.127 251.733L474.085 251.53Z" fill="#EA9E2F"/>
</svg>
